<svg xmlns="http://www.w3.org/2000/svg" xmlns:xlink="http://www.w3.org/1999/xlink" xml:space="preserve" width="2048px" height="2048px" style="shape-rendering:geometricPrecision; text-rendering:geometricPrecision; image-rendering:optimizeQuality; fill-rule:evenodd; clip-rule:evenodd" viewBox="0 0 2048 2048">
 <defs>
  <style type="text/css">
   <![CDATA[
    .fil1 {fill:none}
    .fil0 {fill:#212121;fill-rule:nonzero}
   ]]>
  </style>
 </defs>
 <g id="Layer_x0020_1">
  <metadata id="CorelCorpID_0Corel-Layer"></metadata>
  <path class="fil0" d="M681 395l328 -167c9,-5 20,-4 29,0l328 167c6,3 7,3 7,4 31,15 61,30 58,75l-91 1274c-2,21 -10,40 -24,54 -14,14 -33,23 -55,23l-474 0c-22,0 -41,-9 -55,-23 -14,-14 -23,-33 -24,-54l-91 -1274c-3,-45 27,-59 58,-75 1,0 1,0 7,-4zm343 -103l-314 160c-1,1 -3,2 -8,4 -11,6 -22,11 -22,13l91 1274c0,5 3,10 6,14 3,3 6,4 10,4l474 0c4,0 7,-2 10,-4 3,-3 6,-8 6,-14l91 -1274c0,-2 -11,-7 -22,-13 -4,-2 -7,-3 -8,-4l-314 -160z"></path>
  <g id="_516204920">
   <polygon class="fil0" points="1056,529 1056,1011 992,1011 992,529 "></polygon>
   <polygon class="fil0" points="808,641 1240,641 1240,705 808,705 "></polygon>
  </g>
 </g>
 <rect class="fil1" width="2048" height="2048"></rect>
</svg>