<svg xmlns="http://www.w3.org/2000/svg" xmlns:xlink="http://www.w3.org/1999/xlink" xml:space="preserve" width="2048px" height="2048px" style="shape-rendering:geometricPrecision; text-rendering:geometricPrecision; image-rendering:optimizeQuality; fill-rule:evenodd; clip-rule:evenodd" viewBox="0 0 2048 2048">
 <defs>
  <style type="text/css">
   <![CDATA[
    .fil2 {fill:none}
    .fil1 {fill:#212121}
    .fil0 {fill:#212121;fill-rule:nonzero}
   ]]>
  </style>
 </defs>
 <g id="Layer_x0020_1">
  <metadata id="CorelCorpID_0Corel-Layer"></metadata>
  <g id="_516205136">
   <path class="fil0" d="M1203 379l0 0 0 0c0,0 -1,0 -1,0 -3,0 -5,-1 -8,0 -3,0 -6,0 -9,1l0 0c-10,2 -19,6 -27,12 -8,7 -16,17 -21,29 -2,4 -4,9 -5,13 -1,5 -3,9 -4,14l0 0 -1 6c-1,8 -2,16 -1,23 0,8 1,16 2,24 5,26 15,50 29,67 13,16 30,27 47,30l0 0 0 0c3,1 6,1 9,1 3,0 6,0 9,-1l0 0 0 0c10,-2 18,-6 26,-12 8,-7 15,-16 21,-27l0 0 0 0c6,-11 10,-25 11,-39 2,-14 1,-30 -1,-45 0,0 0,-1 0,-1 -5,-26 -15,-49 -29,-66 -13,-16 -30,-27 -47,-30l0 0 0 0zm8 -48l0 0 0 0c30,5 56,22 77,47 19,23 34,54 40,88 0,0 0,1 0,1 4,20 4,40 2,59 -2,19 -8,38 -16,55 -9,18 -20,32 -34,43 -14,12 -31,19 -49,22l0 0c-6,1 -12,2 -17,2 -6,0 -12,0 -18,-1l0 0c-30,-5 -56,-22 -77,-47 -20,-24 -34,-55 -40,-90 -2,-10 -3,-21 -3,-32 0,-11 0,-21 2,-31l0 0 0 -1 1 -7c0,-1 0,-1 0,-2 1,-7 3,-13 5,-20 2,-6 5,-13 8,-19 9,-18 20,-34 34,-45 15,-12 31,-20 50,-23l0 0 0 0c5,-1 11,-1 17,-1 5,0 10,0 15,1 1,0 1,0 2,0l0 0z"></path>
   <path class="fil0" d="M1306 1708c-41,-10 -70,-28 -89,-52 -22,-28 -30,-61 -29,-97 2,-35 13,-73 26,-112 10,-30 19,-62 24,-91 24,-151 14,-247 -7,-314l24 -71c36,74 64,186 31,392 -5,33 -16,66 -25,98 -11,36 -22,72 -24,100 -1,25 4,47 18,65 12,15 32,28 62,35 1,0 1,0 2,0 126,29 172,-30 191,-112 10,-45 14,-96 17,-146 3,-47 6,-93 15,-129 25,-104 61,-186 90,-252 58,-133 87,-200 -75,-274l0 0 0 0c-53,-24 -129,-47 -200,-51 -36,-2 -71,1 -101,12 -3,-6 -7,-12 -11,-18 -6,-8 -12,-15 -19,-22 40,-18 86,-23 134,-21 78,4 160,29 218,55l0 0c206,93 171,175 100,337 -28,65 -63,144 -87,244 -8,33 -11,76 -14,121 -3,51 -7,105 -18,154 -25,108 -85,187 -249,149 -1,0 -1,0 -2,-1z"></path>
   <path class="fil0" d="M1403 458l0 0 0 0c-9,1 -16,6 -22,14 -7,10 -11,24 -10,41l0 0 0 1c0,0 0,1 0,1 1,14 5,26 12,36 6,8 13,14 21,15 1,0 2,0 3,0 0,0 1,0 2,0 0,0 1,0 1,0 3,0 6,-1 9,-3 3,-2 6,-4 9,-7 0,0 0,0 1,-1 4,-5 8,-11 10,-18 3,-8 4,-17 3,-27l0 0c-1,-16 -6,-30 -14,-40 -6,-7 -15,-12 -24,-12l0 0zm-3 -49l0 0 0 0c0,0 1,0 1,0 25,-1 47,10 63,29 15,17 24,41 26,68l0 0 0 0c1,15 -1,30 -5,44 -4,14 -11,26 -20,36 0,0 0,0 0,1 -7,8 -15,14 -24,18 -8,4 -18,7 -27,8 0,0 -1,0 -1,0 -2,0 -5,0 -8,0 -3,0 -5,0 -8,-1 -21,-4 -39,-16 -52,-35 -12,-17 -20,-38 -21,-61l0 -1 0 -1 0 0 0 0c-2,-27 5,-52 18,-71 14,-21 35,-34 59,-36l0 0 0 0z"></path>
   <path class="fil0" d="M1542 501c-7,-1 -13,2 -19,6 -8,6 -14,16 -16,29 0,0 0,1 0,1 -1,6 -2,11 -1,17 0,5 2,10 3,15 0,0 0,1 1,1 2,4 4,7 6,9 2,2 5,4 8,4l0 0c6,1 13,-2 18,-7 8,-7 14,-17 16,-29 0,0 0,-1 0,-1 1,-6 2,-12 1,-17 0,-5 -2,-10 -3,-15 0,0 0,-1 0,-1 -2,-4 -4,-7 -7,-9 -2,-2 -5,-3 -8,-4zm-50 -31c17,-14 38,-21 59,-17l0 0c0,0 1,0 1,0 12,3 22,8 30,15 8,7 14,16 19,26 0,0 0,1 0,1 4,10 7,20 7,31 1,10 0,21 -2,31 0,0 0,1 0,1 -5,23 -17,42 -32,55 -17,14 -37,21 -58,18l0 0c-1,0 -2,0 -2,0 -11,-3 -22,-8 -30,-16 -8,-7 -14,-15 -19,-26 0,-1 -1,-1 -1,-2 -4,-10 -7,-20 -7,-31 -1,-10 0,-20 2,-31 0,-1 0,-1 0,-2 5,-23 17,-42 33,-55z"></path>
   <path class="fil0" d="M1669 588c-1,-4 -3,-8 -5,-11 -2,-2 -4,-4 -7,-6l-1 0c-6,-2 -13,-1 -19,2 -9,5 -17,14 -22,25 0,0 0,1 0,1 -3,6 -4,13 -5,19 0,6 0,12 2,17 0,0 0,1 0,1 1,3 2,5 4,7 2,2 4,3 6,4 0,0 0,0 1,0 0,0 0,0 1,0 1,0 2,0 2,0 6,1 13,-1 19,-5 8,-5 15,-13 19,-23 0,0 0,0 0,-1 2,-6 4,-11 5,-16 1,-5 1,-11 0,-15zm34 -41c7,9 11,19 14,30l0 0 0 0c2,10 2,21 1,31 -1,10 -4,20 -8,30 0,0 0,1 -1,1 -8,18 -22,34 -37,44 -17,11 -36,16 -54,13 -2,0 -5,-1 -7,-2 -3,-1 -5,-2 -8,-3l0 0c-8,-4 -16,-9 -22,-16 -6,-6 -10,-14 -13,-22 0,0 0,-1 -1,-1 -4,-12 -6,-24 -5,-37 1,-12 4,-24 9,-36 0,-1 0,-1 1,-2 10,-22 26,-39 44,-49 19,-10 41,-12 62,-4 0,0 0,0 1,0 10,5 19,12 26,21z"></path>
   <path class="fil0" d="M1742 674c-1,-3 -2,-5 -3,-7 -1,-1 -2,-2 -3,-3l-5 -2c-3,0 -7,1 -11,4 -6,4 -11,10 -14,17 -2,4 -3,9 -4,13 0,4 0,7 0,11 0,0 0,0 0,1 1,3 2,5 3,7 1,1 2,2 4,3l4 1c4,0 8,-1 11,-4 6,-4 11,-9 14,-17l0 0c2,-4 3,-9 4,-13 0,-4 0,-8 0,-11 0,0 0,-1 0,-1zm36 -36c5,7 9,16 11,25 0,0 0,1 0,1 2,9 2,18 1,27 -1,9 -4,18 -7,27l0 0 0 0c-7,16 -19,29 -32,38 -14,9 -30,13 -45,11 -2,0 -3,0 -5,-1l-7 -2 0 0c-1,0 -2,-1 -3,-1 -10,-4 -17,-11 -24,-19 -6,-7 -10,-16 -12,-26 0,0 0,-1 0,-1 -2,-9 -2,-18 -1,-27 1,-9 4,-18 8,-27 7,-16 19,-29 32,-38 14,-9 31,-14 47,-11l0 0c1,0 2,1 4,1l8 3c1,0 2,1 4,1 9,4 17,10 23,19z"></path>
   <path class="fil0" d="M1183 680c12,5 25,14 35,30 8,12 16,28 21,48l0 0c4,18 8,36 10,52 5,32 6,58 6,58 0,2 0,4 -1,6l-96 279c0,0 0,1 -1,1 -4,11 -12,20 -22,24 -10,5 -22,6 -33,2 -1,0 -1,0 -1,0l-164 -57c0,0 -1,0 -1,-1 -11,-4 -20,-12 -24,-22 -5,-10 -6,-22 -2,-33 0,-1 0,-1 0,-1l96 -279c2,-6 40,-42 46,-47 12,-11 26,-24 40,-36 16,-14 31,-22 45,-26 17,-5 33,-4 46,1zm9 48c-7,-10 -14,-15 -21,-18 -7,-3 -15,-3 -25,0 -10,3 -21,9 -33,19 -13,11 -26,23 -39,35 -21,20 -36,33 -37,34l0 0 -96 280 0 0c-1,3 -1,6 1,9 1,3 4,5 6,6l0 0 166 57 0 0c3,1 6,1 9,-1 3,-1 5,-4 6,-6l0 0 95 -277c0,-7 -2,-26 -6,-51 -2,-15 -5,-32 -10,-49l0 0 0 0c-4,-16 -10,-28 -16,-38z"></path>
   <path class="fil1" d="M1155 753c12,2 20,13 18,26 -2,12 -13,20 -26,18 -12,-2 -20,-13 -18,-26 2,-12 13,-20 26,-18z"></path>
   <path class="fil0" d="M837 331l0 0 0 0 0 0c1,0 1,0 2,0 5,-1 10,-1 15,-1 6,0 12,1 17,1l0 0 0 0c18,3 35,11 50,23 14,12 26,27 34,45 3,6 5,12 8,19 2,7 4,13 5,20 0,1 0,1 0,2l1 7 0 1 0 0c1,10 2,20 2,31 0,11 -1,21 -3,32 -6,35 -20,66 -40,90 -21,25 -47,42 -77,47 -6,1 -12,1 -18,1 -6,0 -12,-1 -17,-2l0 0c-18,-3 -34,-11 -49,-22 -14,-11 -25,-26 -34,-43 -8,-17 -14,-35 -16,-55 -2,-19 -2,-39 2,-59 0,0 0,-1 0,-1 6,-34 20,-65 40,-88 21,-25 47,-42 77,-47zm8 48l0 0c-18,3 -34,14 -47,30 -14,17 -24,40 -29,66 0,0 0,1 0,1 -3,15 -3,31 -1,45 2,14 6,27 11,39l0 0 0 0c6,11 13,21 21,27 8,6 16,10 26,12l0 0 0 0c3,1 6,1 9,1 3,0 6,0 9,-1 18,-3 34,-14 47,-30 14,-17 25,-40 29,-67 1,-8 2,-16 2,-24 0,-8 0,-16 -1,-23l-1 -6 0 0c-1,-5 -2,-10 -4,-14 -1,-5 -3,-9 -5,-13 -6,-12 -13,-22 -21,-29 -8,-6 -17,-11 -27,-12l0 0c-3,0 -6,-1 -9,-1 -3,0 -5,0 -8,0 0,0 -1,0 -1,0l0 0 0 0 0 0z"></path>
   <path class="fil0" d="M730 1661c30,-7 50,-20 62,-35 14,-17 19,-40 18,-65 -1,-28 -12,-63 -24,-100 -10,-32 -20,-65 -25,-98 -45,-284 24,-389 73,-463 21,-32 38,-58 35,-89 -2,-19 -6,-36 -14,-50 -7,-13 -17,-25 -29,-33 0,0 -1,-1 -1,-1 -35,-25 -84,-32 -135,-30 -71,4 -146,27 -200,51l0 0 0 0c-163,73 -133,140 -75,274 29,67 64,148 90,252 9,37 12,82 15,129 3,49 7,101 17,146 19,82 65,141 191,112 1,0 1,0 2,0zm100 -5c-19,23 -48,42 -89,52 -1,0 -1,0 -2,1 -164,38 -224,-40 -249,-149 -11,-48 -15,-102 -18,-154 -3,-45 -6,-89 -14,-121 -24,-100 -59,-179 -87,-244 -71,-163 -106,-245 100,-337l0 0c58,-26 140,-51 218,-55 61,-3 120,7 166,39 1,0 1,1 2,1 18,13 33,30 43,51 10,20 16,42 19,68 5,49 -16,80 -43,120 -45,68 -108,163 -66,429 5,29 14,60 24,91 12,39 24,77 26,112 2,36 -6,70 -29,97z"></path>
   <path class="fil0" d="M648 409l0 0 0 0 0 0c24,2 45,15 59,36 13,19 20,44 18,71l0 1 0 0c-1,23 -9,45 -21,61 -13,18 -32,31 -52,35 -2,0 -5,1 -8,1 -3,0 -6,0 -8,0 0,0 -1,0 -1,0 -9,-1 -19,-3 -27,-8 -9,-4 -17,-11 -24,-18 0,0 0,0 0,-1 -9,-10 -16,-23 -20,-36 -4,-14 -6,-28 -5,-44l0 0 0 0c2,-27 11,-51 26,-68 16,-18 38,-29 63,-29 0,0 1,0 1,0l0 0zm-2 49l0 0 0 0c-9,0 -17,4 -24,12 -8,10 -13,23 -14,40l0 0c0,9 1,18 3,27 2,7 6,14 10,18 0,0 0,0 1,1 3,3 6,5 9,7 3,1 6,2 9,3 0,0 1,0 1,0 1,0 1,0 2,0 1,0 2,0 3,0 8,-1 15,-7 21,-15 7,-9 11,-22 12,-36l0 0 0 -1c1,-16 -3,-30 -10,-41 -6,-8 -13,-14 -22,-14l0 0z"></path>
   <path class="fil0" d="M497 453c22,-4 42,3 59,17 15,13 27,32 33,55 0,1 0,1 0,2 2,10 3,21 2,31 -1,11 -3,21 -7,31 0,1 -1,1 -1,2 -5,10 -11,19 -19,26 -9,8 -19,13 -30,16 -1,0 -2,0 -2,0l0 0c-21,4 -42,-3 -58,-18 -15,-13 -27,-32 -32,-55 0,0 0,-1 0,-1 -2,-11 -3,-21 -2,-31 1,-11 3,-21 7,-31 0,0 0,-1 0,-1 5,-10 11,-19 19,-26 8,-7 19,-13 30,-15 0,0 1,0 1,0l0 0zm28 54c-6,-5 -12,-7 -19,-6 -3,1 -6,2 -8,4 -3,2 -5,5 -7,9 0,0 0,1 0,1 -2,4 -3,9 -3,15 0,6 0,11 1,17 0,0 0,1 0,1 3,12 9,22 16,29 6,5 12,8 18,7l0 0c3,-1 6,-2 9,-4 3,-2 5,-5 6,-9 0,-1 0,-1 1,-1 2,-5 3,-10 3,-15 0,-6 0,-11 -1,-17 0,0 0,-1 0,-1 -3,-12 -9,-22 -16,-29z"></path>
   <path class="fil0" d="M332 578c3,-11 7,-22 14,-30 7,-9 16,-16 26,-21 0,0 0,0 1,0 20,-9 42,-7 62,4 18,10 34,27 44,49 0,1 0,1 1,2 5,12 8,24 9,36 1,13 -1,26 -5,37 0,0 0,1 -1,1 -3,8 -8,15 -13,22 -6,7 -14,12 -22,16l0 0c-3,1 -5,2 -8,3 -3,1 -5,1 -7,2 -18,3 -37,-2 -54,-13 -15,-10 -29,-25 -37,-44 0,0 0,-1 -1,-1 -4,-10 -7,-20 -8,-30 -1,-11 -1,-21 1,-31l0 0 0 0zm53 -1c-2,3 -4,7 -5,11 -1,5 -1,10 0,15 1,5 2,11 5,17 0,0 0,0 0,1 4,10 11,18 19,23 7,4 13,6 19,5 1,0 2,0 2,0 0,0 0,0 1,0l1 0c2,-1 4,-3 6,-4 2,-2 3,-4 4,-7 0,0 0,-1 0,-1 2,-5 3,-11 2,-17 0,-6 -2,-13 -5,-19 0,0 0,-1 0,-1 -5,-12 -13,-21 -22,-25 -7,-3 -13,-4 -19,-2l-1 0c-3,1 -5,3 -7,6z"></path>
   <path class="fil0" d="M258 663c2,-9 6,-18 11,-25 6,-8 14,-15 23,-19 1,-1 2,-1 4,-1l8 -3c1,0 2,-1 4,-1l0 0c16,-3 33,1 47,11 13,9 25,22 32,38 4,8 6,18 8,27 1,9 1,19 -1,27 0,0 0,1 0,1 -2,10 -6,18 -12,26 -6,8 -14,14 -24,19 -1,0 -2,1 -3,1l0 0 -7 2c-2,0 -3,1 -5,1 -16,2 -32,-2 -45,-11 -13,-9 -25,-22 -32,-38l0 0 0 0c-4,-9 -6,-18 -7,-27 -1,-9 -1,-18 1,-27 0,0 0,-1 0,-1zm51 4c-1,2 -2,4 -3,7 0,0 0,1 0,1 -1,3 -1,7 0,11 1,4 2,9 4,13l0 0c3,7 8,13 14,17 4,3 8,4 11,4l4 -1c1,-1 3,-2 4,-3 1,-2 2,-4 3,-7 0,0 0,0 0,-1 1,-3 1,-7 0,-11 -1,-4 -2,-8 -4,-13 -3,-7 -8,-13 -14,-17 -4,-3 -8,-4 -11,-4l-5 2c-1,1 -2,1 -3,3z"></path>
  </g>
 </g>
 <rect class="fil2" width="2048" height="2048"></rect>
</svg>