<svg xmlns="http://www.w3.org/2000/svg" xmlns:xlink="http://www.w3.org/1999/xlink" xml:space="preserve" width="2048px" height="2048px" style="shape-rendering:geometricPrecision; text-rendering:geometricPrecision; image-rendering:optimizeQuality; fill-rule:evenodd; clip-rule:evenodd" viewBox="0 0 2048 2048">
 <defs>
  <style type="text/css">
   <![CDATA[
    .fil1 {fill:none}
    .fil0 {fill:#212121;fill-rule:nonzero}
   ]]>
  </style>
 </defs>
 <g id="Layer_x0020_1">
  <metadata id="CorelCorpID_0Corel-Layer"></metadata>
  <path class="fil0" d="M1775 802c18,2 30,17 29,35 -2,18 -17,30 -35,29 -29,-3 -68,-4 -100,-1 -18,2 -31,4 -32,6 -17,21 -15,33 -11,60l1 6c5,28 1,39 -2,47 -2,5 2,-6 17,18 15,24 12,54 9,88 -3,31 -6,67 8,86 12,17 14,43 15,72 1,24 2,51 9,64 2,4 3,8 3,12l0 0c2,18 2,31 2,39 6,7 15,20 28,41 40,68 14,104 -1,126 0,0 0,0 0,0l-1 -1c-1,10 -7,19 -16,25 -60,40 -107,34 -161,27 -36,-4 -76,-9 -127,4 -28,7 -57,4 -87,1 -29,-3 -60,-7 -81,3 -67,28 -157,20 -231,13 -16,-1 -30,-3 -47,-4 -22,-1 -40,0 -58,2 -37,3 -69,6 -117,-15 -14,-6 -40,-1 -68,6 -50,11 -105,23 -159,-10 -17,-10 -39,-5 -59,0 -34,9 -63,16 -92,-14 -14,-14 -24,-35 -24,-58 0,-19 5,-39 20,-58 26,-33 22,-40 16,-50 -12,-21 -28,-47 -19,-106 2,-13 3,-49 1,-81 -1,-21 -2,-38 -4,-40 -16,-25 -13,-99 -11,-177 3,-79 5,-163 -3,-171 -3,-3 -18,-1 -36,2 -28,4 -60,8 -90,-6 -16,-7 -24,-26 -17,-42 7,-16 26,-24 42,-17 15,6 37,4 57,1 34,-4 65,-8 89,16 27,27 24,126 21,218 -2,68 -4,132 1,141 8,12 12,40 13,70 2,35 1,77 -1,93 -5,36 4,52 11,64 19,32 31,53 -21,121 -5,7 -7,13 -7,18 0,6 3,11 7,15 3,3 16,0 30,-4 32,-8 67,-17 107,7 33,20 75,10 113,2 38,-8 74,-16 107,-2 33,14 57,12 86,10 19,-2 40,-3 67,-2 13,1 30,2 48,4 67,6 148,14 200,-8 37,-16 75,-11 113,-7 24,3 48,5 64,1 62,-17 109,-11 151,-6 39,5 72,9 110,-12 2,-4 5,-8 8,-13 7,-9 17,-24 -2,-57 -16,-28 -20,-31 -22,-32 -5,-4 -8,-6 -11,-14 0,-1 -1,-1 -1,-2 -2,-6 -2,-9 -2,-16 0,-4 0,-13 -2,-37 -10,-24 -12,-55 -13,-83 -1,-19 -2,-36 -3,-38 -29,-39 -24,-87 -20,-130 2,-22 4,-42 0,-48 -31,-50 -30,-55 -23,-73 0,-1 1,-3 -1,-15l-1 -6c-8,-48 -11,-68 24,-111 14,-17 42,-26 75,-29 36,-4 81,-2 113,1zm-60 727c0,0 0,-2 -1,-5 0,1 0,3 0,4l1 1z"></path>
  <g id="_516206984">
   <g>
    <path class="fil0" d="M585 1128l864 0c11,0 21,8 23,18l22 74c1,2 1,5 1,8 0,1 0,3 0,4l-22 180c-1,12 -12,21 -24,21l0 0 -864 0c-12,0 -23,-10 -24,-22l-22 -179c0,-1 0,-1 0,-2l0 0c-1,-4 0,-8 2,-12l22 -72c3,-10 13,-17 23,-17l0 0zm846 48l-828 0 -8 28 845 0 -8 -28zm13 76l-855 0 17 132 822 0 17 -132z"></path>
    <path class="fil0" d="M521 1252c-13,0 -24,-11 -24,-24 0,-13 11,-24 24,-24l1006 0c13,0 24,11 24,24 0,13 -11,24 -24,24l-1006 0z"></path>
   </g>
   <g>
    <path class="fil0" d="M666 1312c-9,0 -16,-7 -16,-16 0,-9 7,-16 16,-16l72 0c9,0 16,7 16,16 0,9 -7,16 -16,16l-72 0z"></path>
    <path class="fil0" d="M1310 1312c-9,0 -16,-7 -16,-16 0,-9 7,-16 16,-16l72 0c9,0 16,7 16,16 0,9 -7,16 -16,16l-72 0z"></path>
   </g>
  </g>
 </g>
 <rect class="fil1" width="2048" height="2048"></rect>
</svg>