<svg xmlns="http://www.w3.org/2000/svg" xmlns:xlink="http://www.w3.org/1999/xlink" xml:space="preserve" width="2048px" height="2048px" style="shape-rendering:geometricPrecision; text-rendering:geometricPrecision; image-rendering:optimizeQuality; fill-rule:evenodd; clip-rule:evenodd" viewBox="0 0 2048 2048">
 <defs>
  <style type="text/css">
   <![CDATA[
    .fil1 {fill:none}
    .fil0 {fill:#212121;fill-rule:nonzero}
   ]]>
  </style>
 </defs>
 <g id="Layer_x0020_1">
  <metadata id="CorelCorpID_0Corel-Layer"></metadata>
  <path class="fil0" d="M1581 1566c0,18 -14,32 -32,32 -18,0 -32,-14 -32,-32l0 -1105c0,-39 -16,-74 -41,-99 -26,-26 -61,-41 -99,-41l-795 0c2,2 4,4 6,6 32,36 51,83 51,134l0 1105c0,18 -14,32 -32,32 -18,0 -32,-14 -32,-32l0 -1105c0,-35 -13,-68 -35,-92 -22,-25 -51,-42 -85,-47 -17,-1 -30,-15 -30,-32l0 -2c0,-18 14,-32 32,-32l920 0c56,0 108,23 145,60 37,37 60,88 60,145l0 1105z"></path>
  <path class="fil0" d="M441 258c17,-2 34,10 36,27 2,17 -10,34 -27,36 -34,5 -65,22 -87,47 -22,25 -35,57 -35,92l0 210 258 0c18,0 32,14 32,32 0,18 -14,32 -32,32l-290 0c-18,0 -32,-14 -32,-32l0 -242c0,-51 19,-98 51,-134 32,-36 76,-62 127,-68z"></path>
  <path class="fil0" d="M801 1788c-4,2 -10,4 -15,4 -18,0 -32,-14 -32,-32l0 -2c0,-17 13,-31 30,-32 34,-5 63,-22 85,-47 22,-25 35,-57 35,-92l0 -19c0,-18 14,-32 32,-32 18,0 32,14 32,32l0 19c0,51 -19,98 -51,134 -30,34 -70,58 -116,67z"></path>
  <path class="fil0" d="M936 1599c-18,0 -32,-14 -32,-32 0,-18 14,-32 32,-32l824 0c18,0 32,14 32,32l0 19c0,51 -19,98 -51,134 -32,36 -76,62 -127,68 -2,0 -4,0 -6,0l-181 2 0 0 0 0 -649 0c-53,0 -102,-21 -138,-54 -37,-34 -61,-81 -66,-133l0 0c0,0 0,0 0,-1 0,0 0,-1 0,-1 0,-3 0,-8 0,-14 0,-17 0,-27 0,-28 0,-18 14,-32 32,-32 18,0 32,14 32,32 0,5 0,22 0,28 0,5 0,9 0,12l0 0 0 0c3,36 20,68 45,92 25,23 58,37 95,37l649 0 0 0 180 -2c34,-5 64,-22 85,-47 19,-22 31,-49 34,-80l-791 0z"></path>
  <polygon class="fil0" points="1060,672 1060,416 1108,416 1108,672 "></polygon>
  <polygon class="fil0" points="1012,462 1156,462 1156,510 1012,510 "></polygon>
  <polygon class="fil0" points="972,744 1196,744 1196,792 972,792 "></polygon>
  <polygon class="fil0" points="764,861 1404,861 1404,909 764,909 "></polygon>
  <polygon class="fil0" points="764,968 1404,968 1404,1016 764,1016 "></polygon>
  <polygon class="fil0" points="764,1081 1404,1081 1404,1129 764,1129 "></polygon>
  <polygon class="fil0" points="764,1188 1404,1188 1404,1236 764,1236 "></polygon>
  <polygon class="fil0" points="764,1320 942,1320 942,1368 764,1368 "></polygon>
  <polygon class="fil0" points="1226,1320 1404,1320 1404,1368 1226,1368 "></polygon>
 </g>
 <rect class="fil1" width="2048" height="2048"></rect>
</svg>