<svg xmlns="http://www.w3.org/2000/svg" xmlns:xlink="http://www.w3.org/1999/xlink" xml:space="preserve" width="2048px" height="2048px" style="shape-rendering:geometricPrecision; text-rendering:geometricPrecision; image-rendering:optimizeQuality; fill-rule:evenodd; clip-rule:evenodd" viewBox="0 0 2048 2048">
 <defs>
  <style type="text/css">
   <![CDATA[
    .fil1 {fill:none}
    .fil0 {fill:#212121;fill-rule:nonzero}
   ]]>
  </style>
 </defs>
 <g id="Layer_x0020_1">
  <metadata id="CorelCorpID_0Corel-Layer"></metadata>
  <g id="_516212192">
   <g>
    <path class="fil0" d="M523 280c87,-51 150,-5 196,29l2 2c1,-2 2,-4 3,-6 25,-50 57,-111 120,-111 44,0 75,25 96,64 17,32 26,74 28,120 2,44 -2,92 -11,137 -19,97 -64,183 -128,199 -66,18 -155,-46 -225,-129 -31,-37 -59,-78 -80,-116 -22,-41 -36,-80 -38,-112 -3,-34 8,-62 35,-77zm158 80c-32,-24 -75,-55 -126,-25 -3,2 -4,8 -3,18 2,23 13,53 31,86 19,35 44,72 72,105 56,66 121,119 160,108 37,-10 66,-75 82,-150 8,-40 12,-83 10,-121 -2,-37 -9,-70 -21,-94 -10,-18 -23,-30 -40,-30 -24,0 -46,42 -63,76 -8,16 -15,30 -23,41l0 0 0 0c-9,12 -25,17 -39,11 -12,-6 -24,-15 -38,-24z"></path>
    <path class="fil0" d="M789 692c-5,-17 6,-35 23,-39 17,-5 35,6 39,23l305 1139c5,17 -6,35 -23,39 -17,5 -35,-6 -39,-23l-305 -1139z"></path>
    <path class="fil0" d="M1008 1440c-30,-13 -69,-44 -113,-86 -42,-41 -89,-93 -135,-152 -46,-59 -85,-118 -115,-169 -31,-54 -52,-101 -58,-134 -3,-13 6,-26 19,-28 5,-1 10,0 15,2 30,13 69,44 113,86 42,41 89,93 135,152 46,59 86,118 115,169 31,54 52,101 58,134 3,13 -6,26 -19,28 -5,1 -10,0 -15,-2zm-80 -121c15,15 30,28 43,39 -8,-17 -18,-35 -29,-55 -28,-49 -66,-106 -111,-164 -45,-58 -90,-108 -130,-147 -15,-15 -30,-28 -43,-39 8,17 18,35 29,55 28,49 66,106 111,164 45,58 90,108 130,147z"></path>
   </g>
   <g>
    <path class="fil0" d="M523 280c87,-51 150,-5 196,29l2 2c1,-2 2,-4 3,-6 25,-50 57,-111 120,-111 44,0 75,25 96,64 17,32 26,74 28,120 2,44 -2,92 -11,137 -19,97 -64,183 -128,199 -66,18 -155,-46 -225,-129 -31,-37 -59,-78 -80,-116 -22,-41 -36,-80 -38,-112 -3,-34 8,-62 35,-77zm158 80c-32,-24 -75,-55 -126,-25 -3,2 -4,8 -3,18 2,23 13,53 31,86 19,35 44,72 72,105 56,66 121,119 160,108 37,-10 66,-75 82,-150 8,-40 12,-83 10,-121 -2,-37 -9,-70 -21,-94 -10,-18 -23,-30 -40,-30 -24,0 -46,42 -63,76 -8,16 -15,30 -23,41l0 0 0 0c-9,12 -25,17 -39,11 -12,-6 -24,-15 -38,-24z"></path>
    <path class="fil0" d="M789 692c-5,-17 6,-35 23,-39 17,-5 35,6 39,23l305 1139c5,17 -6,35 -23,39 -17,5 -35,-6 -39,-23l-305 -1139z"></path>
    <path class="fil0" d="M1008 1440c-30,-13 -69,-44 -113,-86 -42,-41 -89,-93 -135,-152 -46,-59 -85,-118 -115,-169 -31,-54 -52,-101 -58,-134 -3,-13 6,-26 19,-28 5,-1 10,0 15,2 30,13 69,44 113,86 42,41 89,93 135,152 46,59 86,118 115,169 31,54 52,101 58,134 3,13 -6,26 -19,28 -5,1 -10,0 -15,-2zm-80 -121c15,15 30,28 43,39 -8,-17 -18,-35 -29,-55 -28,-49 -66,-106 -111,-164 -45,-58 -90,-108 -130,-147 -15,-15 -30,-28 -43,-39 8,17 18,35 29,55 28,49 66,106 111,164 45,58 90,108 130,147z"></path>
   </g>
   <g>
    <path class="fil0" d="M1493 335c-51,-30 -94,2 -126,25 -13,10 -25,19 -38,24 -14,7 -31,2 -39,-11l0 0 0 0c-8,-11 -15,-25 -23,-41 -17,-34 -39,-76 -63,-76 -17,0 -30,12 -40,30 -12,23 -19,57 -21,94 -2,39 1,81 10,121 15,75 44,140 82,150 39,10 104,-42 160,-108 28,-33 53,-70 72,-105 18,-33 29,-63 31,-86 1,-10 0,-16 -3,-18zm-164 -26c47,-34 109,-80 196,-29 27,16 37,43 35,77 -2,32 -16,71 -38,112 -21,39 -49,79 -80,116 -70,83 -159,147 -225,129 -63,-17 -108,-103 -128,-199 -9,-45 -13,-93 -11,-137 2,-46 11,-88 28,-120 21,-39 52,-64 96,-64 63,0 95,61 120,111 1,2 2,4 3,6l2 -2z"></path>
    <path class="fil0" d="M1197 675c5,-17 22,-27 39,-23 17,5 27,22 23,39l-305 1139c-5,17 -22,27 -39,23 -17,-5 -27,-22 -23,-39l305 -1139z"></path>
    <path class="fil0" d="M1077 1358c14,-11 28,-24 43,-39 40,-39 85,-89 130,-147 45,-58 83,-114 111,-164 11,-20 21,-38 29,-55 -14,11 -28,24 -43,39 -40,39 -85,89 -130,147 -45,58 -83,114 -111,164 -11,20 -21,38 -29,55zm77 -4c-44,43 -84,73 -113,86 -4,2 -10,3 -15,2 -13,-3 -21,-15 -19,-28 7,-33 27,-80 58,-134 30,-51 69,-110 115,-169 46,-59 93,-111 135,-152 44,-43 84,-73 113,-86 4,-2 10,-3 15,-2 13,3 21,15 19,28 -7,33 -27,80 -58,134 -30,51 -69,110 -115,169 -46,59 -93,111 -135,152z"></path>
   </g>
  </g>
  <path class="fil0" d="M1017 1435c9,-1 16,6 17,15 1,9 -6,16 -15,17 -4,0 -12,-2 -24,-6l-6 -2c-31,25 -100,54 -166,66 -28,5 -56,7 -80,4 -26,-3 -49,-11 -64,-26 -9,-9 -16,-21 -18,-36 -9,-51 19,-75 64,-83 82,-15 228,31 279,47 9,3 10,5 12,5zm-66 12c-64,-18 -162,-43 -220,-32 -27,5 -43,18 -38,46 1,8 5,14 9,19 9,10 25,15 44,17 21,2 46,0 71,-4 50,-9 101,-27 133,-46z"></path>
  <path class="fil0" d="M1055 1443c-9,1 -17,-4 -18,-13 -1,-9 4,-17 13,-18 36,-6 49,1 78,17l3 2c12,7 27,14 42,19 12,4 24,5 35,2 0,0 0,-1 1,-1 5,-7 15,-9 22,-4 7,5 9,15 4,22l0 1 0 0 0 0c-3,4 -5,8 -12,11 -19,7 -39,5 -58,-1 -18,-5 -34,-14 -48,-21l-3 -2c-23,-13 -32,-18 -58,-14z"></path>
  <path class="fil0" d="M1064 1469c-8,-3 -12,-13 -8,-21 3,-8 13,-12 21,-8 53,22 87,75 116,121 5,8 11,16 15,23 13,20 38,43 66,58 22,12 45,20 64,17l0 0c0,0 4,-2 7,-3 0,0 1,0 1,0 4,-2 9,-3 13,-2 8,3 13,12 10,20 -2,5 -6,9 -12,11 -1,0 -1,1 -2,1 -3,1 -6,2 -9,3 -1,1 -3,1 -5,2 -27,4 -57,-5 -84,-21 -32,-18 -60,-45 -76,-68 -6,-8 -10,-16 -15,-23 -27,-43 -58,-91 -102,-109z"></path>
  <path class="fil0" d="M667 350c-15,-9 -19,-29 -10,-44 9,-15 29,-19 44,-10 153,96 153,249 154,364 0,8 0,16 0,23 0,18 -14,32 -32,32 -18,0 -32,-14 -32,-32 0,-7 0,-16 0,-24 0,-99 -1,-233 -124,-310z"></path>
  <path class="fil0" d="M1279 357c-5,-17 4,-35 21,-40 17,-5 35,4 40,21 46,139 -25,279 -69,368l-1 2c-8,16 -27,22 -43,14 -16,-8 -22,-27 -14,-43l1 -2c40,-80 103,-205 66,-320z"></path>
 </g>
 <rect class="fil1" width="2048" height="2048"></rect>
</svg>