<svg xmlns="http://www.w3.org/2000/svg" xmlns:xlink="http://www.w3.org/1999/xlink" xml:space="preserve" width="2048px" height="2048px" style="shape-rendering:geometricPrecision; text-rendering:geometricPrecision; image-rendering:optimizeQuality; fill-rule:evenodd; clip-rule:evenodd" viewBox="0 0 2048 2048">
 <defs>
  <style type="text/css">
   <![CDATA[
    .fil1 {fill:none}
    .fil0 {fill:#212121;fill-rule:nonzero}
   ]]>
  </style>
 </defs>
 <g id="Layer_x0020_1">
  <metadata id="CorelCorpID_0Corel-Layer"></metadata>
  <g id="_516213632">
   <path class="fil0" d="M1504 1216l0 576c0,18 -14,32 -32,32l-896 0c-18,0 -32,-14 -32,-32l0 -576 0 0c0,-10 5,-19 12,-25l446 -428c12,-12 32,-12 44,0l0 0 448 430c7,6 10,15 10,23l0 0zm-64 544l0 -530 -416 -399 -416 399 0 530 832 0z"></path>
   <path class="fil0" d="M720 1108c0,18 -14,32 -32,32 -18,0 -32,-14 -32,-32l0 -354 0 0c0,-10 5,-19 12,-25l334 -321c12,-12 32,-12 44,0l0 0 336 322c7,6 10,15 10,23l0 0 0 354c0,18 -14,32 -32,32 -18,0 -32,-14 -32,-32l0 -340 -304 -292 -304 292 0 340z"></path>
   <polygon class="fil0" points="1008,435 1008,256 1040,256 1040,435 "></polygon>
   <polygon class="fil0" points="960,290 1088,290 1088,322 960,322 "></polygon>
   <path class="fil0" d="M1024 570c19,0 37,8 50,21 13,13 21,30 21,50 0,19 -8,37 -21,50 -13,13 -30,21 -50,21 -19,0 -37,-8 -50,-21 -13,-13 -21,-30 -21,-50 0,-19 8,-37 21,-50 13,-13 30,-21 50,-21zm27 43c-7,-7 -17,-11 -27,-11 -11,0 -20,4 -27,11 -7,7 -11,17 -11,27 0,11 4,20 11,27 7,7 17,11 27,11 11,0 20,-4 27,-11 7,-7 11,-17 11,-27 0,-11 -4,-20 -11,-27z"></path>
   <g>
    <path class="fil0" d="M1293 1328l0 0c21,0 40,9 54,23 14,14 23,33 23,54l0 163c0,9 -7,16 -16,16l-122 0c-9,0 -16,-7 -16,-16l0 -163c0,-21 9,-40 23,-54 14,-14 33,-23 54,-23zm0 32l0 0c-12,0 -24,5 -32,13 -8,8 -13,19 -13,32l0 147 90 0 0 -147c0,-12 -5,-24 -13,-32 -8,-8 -19,-13 -32,-13z"></path>
    <path class="fil0" d="M755 1328l0 0c21,0 40,9 54,23 14,14 23,33 23,54l0 163c0,9 -7,16 -16,16l-122 0c-9,0 -16,-7 -16,-16l0 -163c0,-21 9,-40 23,-54 14,-14 33,-23 54,-23zm0 32l0 0c-12,0 -24,5 -32,13 -8,8 -13,19 -13,32l0 147 90 0 0 -147c0,-12 -5,-24 -13,-32 -8,-8 -19,-13 -32,-13z"></path>
   </g>
   <path class="fil0" d="M1024 1328c31,0 59,13 79,33 20,20 33,48 33,79l0 352c0,9 -7,16 -16,16l-192 0c-9,0 -16,-7 -16,-16l0 -352c0,-31 13,-59 33,-79 20,-20 48,-33 79,-33zm56 56c-15,-15 -35,-24 -56,-24 -22,0 -42,9 -56,24 -15,15 -24,35 -24,56l0 336 160 0 0 -336c0,-22 -9,-42 -24,-56z"></path>
   <path class="fil0" d="M933 1456c-9,0 -16,-7 -16,-16 0,-9 7,-16 16,-16l183 0c9,0 16,7 16,16 0,9 -7,16 -16,16l-183 0z"></path>
   <path class="fil0" d="M1024 971l0 0c21,0 40,9 54,23 14,14 23,33 23,54l0 163c0,9 -7,16 -16,16l-122 0c-9,0 -16,-7 -16,-16l0 -163c0,-21 9,-40 23,-54 14,-14 33,-23 54,-23zm0 32l0 0c-12,0 -24,5 -32,13 -8,8 -13,19 -13,32l0 147 90 0 0 -147c0,-12 -5,-24 -13,-32 -8,-8 -19,-13 -32,-13z"></path>
   <path class="fil0" d="M1040 1605c0,9 -7,16 -16,16 -9,0 -16,-7 -16,-16l0 -36c0,-9 7,-16 16,-16 9,0 16,7 16,16l0 36z"></path>
  </g>
 </g>
 <rect class="fil1" width="2048" height="2048"></rect>
</svg>