<svg xmlns="http://www.w3.org/2000/svg" xmlns:xlink="http://www.w3.org/1999/xlink" xml:space="preserve" width="2048px" height="2048px" style="shape-rendering:geometricPrecision; text-rendering:geometricPrecision; image-rendering:optimizeQuality; fill-rule:evenodd; clip-rule:evenodd" viewBox="0 0 2048 2048">
 <defs>
  <style type="text/css">
   <![CDATA[
    .fil1 {fill:none}
    .fil0 {fill:#212121;fill-rule:nonzero}
   ]]>
  </style>
 </defs>
 <g id="Layer_x0020_1">
  <metadata id="CorelCorpID_0Corel-Layer"></metadata>
  <path class="fil0" d="M288 416l1472 0c18,0 32,14 32,32l0 932c0,18 -14,32 -32,32l-1472 0c-18,0 -32,-14 -32,-32l0 -932c0,-18 14,-32 32,-32zm1440 64l-1408 0 0 868 1408 0 0 -868z"></path>
  <path class="fil0" d="M424 535l1200 0c12,0 24,5 32,13 0,0 1,1 1,1 8,8 12,19 12,31l0 669c0,12 -5,24 -13,32l0 0 0 0c-8,8 -20,13 -32,13l-1200 0c-12,0 -24,-5 -32,-13l0 0 0 0c-8,-8 -13,-20 -13,-32l0 -669c0,-12 5,-24 13,-32l0 0c8,-8 20,-13 32,-13zm1200 32l-1200 0c-4,0 -7,2 -9,4l0 0 0 0c-2,2 -4,6 -4,9l0 669c0,4 1,7 4,9 2,2 6,4 9,4l1200 0c4,0 7,-1 9,-4 2,-2 4,-6 4,-9l0 -669c0,-3 -1,-7 -3,-9 0,0 0,0 -1,-1 -2,-2 -6,-4 -9,-4z"></path>
  <path class="fil0" d="M820 1349l407 0c18,0 32,14 32,32l0 219c0,18 -14,32 -32,32l-407 0c-18,0 -32,-14 -32,-32l0 -219c0,-18 14,-32 32,-32zm375 64l-343 0 0 155 343 0 0 -155z"></path>
  <path class="fil0" d="M616 1632c-18,0 -32,-14 -32,-32 0,-18 14,-32 32,-32l817 0c18,0 32,14 32,32 0,18 -14,32 -32,32l-817 0z"></path>
  <path class="fil0" d="M459 976c-9,0 -16,-7 -16,-16 0,-9 7,-16 16,-16l72 0 38 -161c2,-9 11,-14 19,-12 7,2 11,7 12,14l42 272 57 -171c3,-8 12,-13 20,-10 5,2 9,6 10,11l0 0 24 97 91 -285c3,-8 12,-13 20,-10 6,2 10,7 11,13l0 0 53 349 31 -87c3,-8 12,-13 20,-10 2,1 4,2 6,4l0 0 36 36 42 -84c4,-8 14,-11 21,-7 3,2 6,4 7,7l22 43 474 0c9,0 16,7 16,16 0,9 -7,16 -16,16l-484 0 0 0c-6,0 -11,-3 -14,-9l-12 -24 -37 74c-1,2 -2,4 -4,6 -6,6 -16,6 -23,0l-34 -34 -43 123c-2,6 -7,11 -13,12 -9,1 -17,-5 -18,-13l-52 -345 -88 274 0 0c-2,5 -6,9 -11,11 -9,2 -17,-3 -19,-12l-24 -98 -60 180c-1,6 -7,11 -13,12 -9,1 -17,-5 -18,-13l-40 -257 -22 93c-1,7 -8,13 -16,13l-85 0zm634 -66l0 0"></path>
 </g>
 <rect class="fil1" width="2048" height="2048"></rect>
</svg>