<svg xmlns="http://www.w3.org/2000/svg" xmlns:xlink="http://www.w3.org/1999/xlink" xml:space="preserve" width="2048px" height="2048px" style="shape-rendering:geometricPrecision; text-rendering:geometricPrecision; image-rendering:optimizeQuality; fill-rule:evenodd; clip-rule:evenodd" viewBox="0 0 2048 2048">
 <defs>
  <style type="text/css">
   <![CDATA[
    .fil1 {fill:none}
    .fil0 {fill:#212121;fill-rule:nonzero}
   ]]>
  </style>
 </defs>
 <g id="Layer_x0020_1">
  <metadata id="CorelCorpID_0Corel-Layer"></metadata>
  <g id="_516216224">
   <g>
    <path class="fil0" d="M1024 442c28,0 51,19 74,38 16,13 32,26 47,30 9,2 20,1 31,-1 -7,5 -14,11 -20,18 -3,3 -5,7 -7,10 -3,0 -7,-1 -10,-2 -21,-5 -39,-20 -58,-35 -19,-16 -39,-32 -58,-32 -19,0 -38,16 -58,32 -18,15 -37,31 -58,35 -21,5 -45,-1 -68,-7 -23,-6 -45,-11 -61,-5 -3,-8 -9,-16 -17,-21 1,-1 3,-2 5,-3 24,-12 51,-5 79,2 20,5 41,10 56,7 15,-4 31,-17 47,-30 23,-19 46,-38 74,-38zm361 183c7,2 14,3 21,4 28,5 56,10 72,31 16,21 16,49 15,77 -1,21 -1,41 5,55 7,13 23,26 40,38 23,17 47,35 53,61 1,2 1,5 1,7 -9,-1 -18,0 -26,3 0,-1 0,-3 -1,-4 -4,-17 -24,-32 -43,-46 -19,-14 -38,-28 -48,-47 -10,-20 -9,-43 -8,-67 1,-24 1,-47 -9,-60 -10,-13 -34,-17 -57,-22 -15,-3 -29,-5 -42,-10 9,-3 17,-9 24,-17 1,-1 1,-2 2,-2zm207 527c0,2 -1,4 -1,6 -6,26 -30,44 -53,61 -17,12 -33,24 -40,38 -7,14 -6,34 -5,55 1,28 2,57 -15,77 -16,21 -44,26 -72,31 -11,2 -21,4 -31,7 -4,-9 -10,-16 -19,-21 14,-6 29,-9 45,-11 23,-4 46,-9 57,-22 10,-13 10,-36 9,-60 -1,-24 -1,-48 8,-67 9,-19 28,-33 48,-47 19,-14 39,-29 43,-46 1,-4 1,-8 1,-12 3,2 5,4 8,5 6,3 12,6 18,7zm-439 386c-3,0 -6,0 -9,1 -15,4 -31,17 -47,30 -23,19 -46,38 -74,38 -28,0 -51,-19 -74,-38 -16,-13 -32,-26 -47,-30 -15,-4 -36,2 -56,7 -28,7 -56,14 -79,2 -1,0 -2,-1 -3,-2 13,-1 26,-7 35,-19 12,-1 26,-4 41,-8 23,-6 47,-12 68,-7 21,5 39,20 58,35 19,16 39,32 58,32 19,0 38,-16 58,-32 18,-15 37,-31 58,-35 13,-3 27,-2 40,0 -8,6 -16,12 -22,20 -1,2 -2,3 -3,5zm-573 -828c0,8 0,17 0,26 1,24 1,48 -8,67 -9,19 -28,33 -48,47 -13,10 -26,19 -34,29 -2,0 -3,-1 -5,-1 -10,-2 -19,0 -27,3 9,-22 30,-37 50,-53 17,-12 33,-24 40,-38 7,-14 6,-34 5,-55 0,-16 -1,-32 2,-46 2,3 5,6 8,9 5,5 11,8 17,11zm-96 447c7,15 24,27 41,40 19,14 38,28 48,47 10,20 9,43 8,67 -1,24 -1,47 9,60 7,9 22,14 37,18 -7,3 -13,6 -19,9 -5,3 -9,5 -14,8 -10,-4 -19,-10 -25,-19 -16,-21 -16,-49 -15,-77 1,-21 1,-41 -5,-55 -7,-13 -23,-26 -40,-38 -23,-17 -47,-35 -53,-61l0 0c9,3 19,3 28,0z"></path>
    <path class="fil0" d="M647 678c1,7 5,31 9,27 4,-4 9,-12 12,-21 8,-21 13,-45 7,-51 -6,-5 -33,5 -53,16 -9,5 -16,10 -19,14 5,2 15,3 31,4 7,0 12,5 13,11l0 0zm128 -4c2,20 -1,33 -7,40 -9,12 -21,12 -34,5 -9,-5 -18,-13 -26,-23 -4,-5 -7,-10 -11,-15 -1,5 -3,9 -5,13 -5,12 -11,23 -18,30 -10,11 -22,14 -34,6 -7,-5 -14,-17 -18,-36 -21,-1 -34,-6 -41,-12 -11,-10 -10,-22 0,-34 6,-7 16,-15 27,-21 14,-8 31,-14 47,-17 -7,-14 -13,-31 -16,-47 -2,-13 -3,-25 0,-34 3,-15 12,-23 27,-21 9,1 21,9 35,25 18,-9 31,-11 40,-8 14,4 19,15 17,30 -1,10 -6,21 -12,33 -3,6 -7,12 -12,18 12,0 24,1 35,4 13,3 24,7 32,12l0 0 0 0c13,8 18,19 10,33 -5,8 -16,16 -36,23zm-27 -7l0 0c-1,-6 3,-12 9,-14 16,-5 25,-9 29,-13 -5,-3 -13,-6 -23,-8 -23,-5 -52,-6 -56,0 -4,7 8,29 22,47 6,8 13,14 18,17 5,3 2,-21 1,-29zm-42 -109c-6,4 -13,3 -17,-3 -11,-13 -18,-20 -22,-22 -1,6 -1,14 1,24 4,23 13,50 20,52 8,2 25,-18 36,-37 5,-9 8,-17 9,-23 1,-6 -19,6 -26,9z"></path>
    <path class="fil0" d="M1242 575c1,7 5,31 9,27 4,-4 9,-12 12,-21 8,-21 13,-45 7,-51 -6,-5 -33,5 -53,16 -9,5 -16,10 -19,14 5,2 15,3 31,4 7,0 12,5 13,11l0 0zm128 -4c2,20 -1,33 -7,40 -9,12 -21,12 -34,5 -9,-5 -18,-13 -26,-23 -4,-5 -7,-10 -11,-15 -1,5 -3,9 -5,13 -5,12 -11,23 -18,30 -10,11 -22,14 -34,6 -7,-5 -14,-17 -18,-36 -21,-1 -34,-6 -41,-12 -11,-10 -10,-22 0,-34 6,-7 16,-15 27,-21 14,-8 31,-14 47,-17 -7,-14 -13,-31 -16,-47 -2,-13 -3,-25 0,-34 3,-15 12,-23 27,-21 9,1 21,9 35,25 18,-9 31,-11 40,-8 14,4 19,15 17,30 -1,10 -6,21 -12,33 -3,6 -7,12 -12,18 12,0 24,1 35,4 13,3 24,7 32,12l0 0 0 0c13,8 18,19 10,33 -5,8 -16,16 -36,23zm-27 -7l0 0c-1,-6 3,-12 9,-14 16,-5 25,-9 29,-13 -5,-3 -13,-6 -23,-8 -23,-5 -52,-6 -56,0 -4,7 8,29 22,47 6,8 13,14 18,17 5,3 2,-21 1,-29zm-42 -109c-6,4 -13,3 -17,-3 -11,-13 -18,-20 -22,-22 -1,6 -1,14 1,24 4,23 13,50 20,52 8,2 25,-18 36,-37 5,-9 8,-17 9,-23 1,-6 -19,6 -26,9z"></path>
    <path class="fil0" d="M1501 1081c1,7 5,31 9,27 4,-4 9,-12 12,-21 8,-21 13,-45 7,-51 -6,-5 -33,5 -53,16 -9,5 -16,10 -19,14 5,2 15,3 31,4 7,0 12,5 13,11l0 0zm128 -4c2,20 -1,33 -7,40 -9,12 -21,12 -34,5 -9,-5 -18,-13 -26,-23 -4,-5 -7,-10 -11,-15 -1,5 -3,9 -5,13 -5,12 -11,23 -18,30 -10,11 -22,14 -34,6 -7,-5 -14,-17 -18,-36 -21,-1 -34,-6 -41,-12 -11,-10 -10,-22 0,-34 6,-7 16,-15 27,-21 14,-8 31,-14 47,-17 -7,-14 -13,-31 -16,-47 -2,-13 -3,-25 0,-34 3,-15 12,-23 27,-21 9,1 21,9 35,25 18,-9 31,-11 40,-8 14,4 19,15 17,30 -1,10 -6,21 -12,33 -3,6 -7,12 -12,18 12,0 24,1 35,4 13,3 24,7 32,12l0 0 0 0c13,8 18,19 10,33 -5,8 -16,16 -36,23zm-27 -7l0 0c-1,-6 3,-12 9,-14 16,-5 25,-9 29,-13 -5,-3 -13,-6 -23,-8 -23,-5 -52,-6 -56,0 -4,7 8,29 22,47 6,8 13,14 18,17 5,3 2,-21 1,-29zm-42 -109c-6,4 -13,3 -17,-3 -11,-13 -18,-20 -22,-22 -1,6 -1,14 1,24 4,23 13,50 20,52 8,2 25,-18 36,-37 5,-9 8,-17 9,-23 1,-6 -19,6 -26,9z"></path>
    <path class="fil0" d="M1243 1581c1,7 5,31 9,27 4,-4 9,-12 12,-21 8,-21 13,-45 7,-51 -6,-5 -33,5 -53,16 -9,5 -16,10 -19,14 5,2 15,3 31,4 7,0 12,5 13,11l0 0zm128 -4c2,20 -1,33 -7,40 -9,12 -21,12 -34,5 -9,-5 -18,-13 -26,-23 -4,-5 -7,-10 -11,-15 -1,5 -3,9 -5,13 -5,12 -11,23 -18,30 -10,11 -22,14 -34,6 -7,-5 -14,-17 -18,-36 -21,-1 -34,-6 -41,-12 -11,-10 -10,-22 0,-34 6,-7 16,-15 27,-21 14,-8 31,-14 47,-17 -7,-14 -13,-31 -16,-47 -2,-13 -3,-25 0,-34 3,-15 12,-23 27,-21 9,1 21,9 35,25 18,-9 31,-11 40,-8 14,4 19,15 17,30 -1,10 -6,21 -12,33 -3,6 -7,12 -12,18 12,0 24,1 35,4 12,3 22,6 30,11 13,8 21,19 12,34 -5,8 -16,16 -36,23zm-27 -7l0 0c-1,-6 3,-12 9,-14 16,-5 25,-9 29,-13 -5,-3 -13,-6 -23,-8 -23,-5 -52,-6 -56,0 -4,7 8,29 22,47 6,8 13,14 18,17 5,3 2,-21 1,-29zm-42 -109c-6,4 -13,3 -17,-3 -11,-13 -18,-20 -22,-22 -1,6 -1,14 1,24 4,23 13,50 20,52 8,2 25,-18 36,-37 5,-9 8,-17 9,-23 1,-6 -19,6 -26,9z"></path>
    <path class="fil0" d="M713 1327c18,-9 31,-11 40,-8 14,4 19,15 17,30 -1,10 -6,21 -12,33 -15,27 -43,54 -63,50 -19,-4 -36,-41 -42,-74 -2,-13 -3,-25 0,-34 3,-15 12,-23 27,-21 9,1 21,9 35,25zm4 28c-6,4 -13,3 -17,-3 -11,-13 -18,-20 -22,-22 -1,6 -1,14 1,24 4,23 13,50 20,52 8,2 25,-18 36,-37 5,-9 8,-17 9,-23 1,-6 -19,6 -26,9z"></path>
    <path class="fil0" d="M659 1475c1,7 5,31 9,27 4,-4 9,-12 12,-21 8,-21 13,-45 7,-51 -6,-5 -33,5 -53,16 -9,5 -16,10 -19,14 5,2 15,3 31,4 7,0 12,5 13,11l0 0zm-6 51c-7,-5 -14,-17 -18,-36 -21,-1 -34,-6 -41,-12 -11,-10 -10,-22 0,-34 6,-7 16,-15 27,-21 28,-16 69,-25 83,-13 15,13 12,52 0,81 -5,12 -11,23 -18,30 -10,11 -22,14 -34,6z"></path>
    <path class="fil0" d="M787 1471c2,20 -1,33 -7,40 -9,12 -21,12 -34,5 -9,-5 -18,-13 -26,-23 -20,-24 -34,-60 -23,-77 10,-16 52,-19 84,-12 13,3 24,7 32,12l0 0 0 0c13,8 18,19 10,33 -5,8 -16,16 -36,23zm-27 -7l0 0c-1,-6 3,-12 9,-14 16,-5 25,-9 29,-13 -5,-3 -13,-6 -23,-8 -23,-5 -52,-6 -56,0 -4,7 8,29 22,47 6,8 13,14 18,17 5,3 2,-21 1,-29z"></path>
    <path class="fil0" d="M463 1078c1,7 5,31 9,27 4,-4 9,-12 12,-21 8,-21 13,-45 7,-51 -6,-5 -33,5 -53,16 -9,5 -16,10 -19,14 5,2 15,3 31,4 7,0 12,5 13,11l0 0zm128 -4c2,20 -1,33 -7,40 -9,12 -21,12 -34,5 -9,-5 -18,-13 -26,-23 -4,-5 -7,-10 -11,-15 -1,5 -3,9 -5,13 -5,12 -11,23 -18,30 -10,11 -22,14 -34,6 -7,-5 -14,-17 -18,-36 -21,-1 -34,-6 -41,-12 -11,-10 -10,-22 0,-34 6,-7 16,-15 27,-21 14,-8 31,-14 47,-17 -7,-14 -13,-31 -16,-47 -2,-13 -3,-25 0,-34 3,-15 12,-23 27,-21 9,1 21,9 35,25 18,-9 31,-11 40,-8 14,4 19,15 17,30 -1,10 -6,21 -12,33 -3,6 -7,12 -12,18 12,0 24,1 35,4 13,3 24,7 32,12l0 0 0 0c13,8 18,19 10,33 -5,8 -16,16 -36,23zm-18 -22c16,-5 25,-9 29,-13 -5,-3 -13,-6 -23,-8 -23,-5 -52,-6 -56,0 -4,7 8,29 22,47 6,8 13,14 18,17 10,5 -9,-37 10,-43zm-51 -94c-6,4 -13,3 -17,-3 -11,-13 -18,-20 -22,-22 -1,6 -1,14 1,24 4,23 13,50 20,52 8,2 25,-18 36,-37 5,-9 8,-17 9,-23 1,-6 -19,6 -26,9z"></path>
    <path class="fil0" d="M474 865c-1,-4 -3,-10 -5,-16 -8,-25 -20,-60 -17,-102 1,-21 8,-41 16,-60 13,-30 30,-54 36,-61 5,-6 13,-6 19,-2 4,4 6,9 4,14l0 0c-5,15 0,32 6,51 6,20 13,42 12,68 -1,21 -7,40 -14,57 -12,27 -27,48 -33,55 -5,6 -13,6 -19,2 -2,-2 -4,-4 -4,-7l0 0zm4 -117c-2,33 6,62 13,84 5,-8 10,-17 15,-28 6,-14 11,-31 12,-48 1,-21 -5,-41 -10,-59 -2,-7 -4,-14 -6,-20 -3,6 -7,13 -10,20 -7,16 -12,34 -14,51z"></path>
    <path class="fil0" d="M786 489c2,-2 5,-5 8,-8 14,-14 32,-34 61,-47 14,-6 30,-9 45,-11 24,-2 46,1 53,2 7,2 12,9 10,16 -1,6 -6,10 -11,10 -10,2 -19,11 -29,21 -11,11 -23,24 -41,32 -14,6 -29,9 -43,11 -22,2 -41,-1 -48,-3 -7,-2 -12,-9 -10,-16 1,-3 2,-5 4,-7zm81 -31c-18,8 -32,20 -43,31 5,0 9,0 14,-1 11,-1 23,-3 34,-8 14,-6 24,-16 33,-26 2,-2 3,-3 5,-5 -2,0 -5,0 -7,0 -12,1 -25,3 -36,8z"></path>
    <path class="fil0" d="M1014 474c0,-6 1,-12 1,-17 0,-3 1,-6 2,-8 4,-6 12,-7 18,-3 8,5 28,21 47,45 11,14 22,32 29,51 9,25 8,48 7,69 -1,20 -1,38 7,51 3,4 3,10 0,15 -4,6 -12,7 -18,3 -8,-5 -31,-24 -51,-50 -13,-16 -24,-34 -31,-53 -14,-40 -12,-77 -11,-103zm26 10c-1,23 -1,53 10,85 6,16 16,32 27,46 5,6 10,12 15,17 0,-7 0,-14 0,-21 1,-19 2,-39 -5,-59 -6,-16 -15,-31 -25,-43 -7,-9 -15,-17 -21,-23z"></path>
    <path class="fil0" d="M1492 805c-4,-3 -7,-6 -10,-8 -2,-1 -3,-2 -4,-4 -4,-6 -2,-14 4,-18 6,-4 24,-14 46,-19 14,-3 29,-4 45,0 20,5 34,16 48,27 11,9 22,17 31,16 5,-1 10,2 13,6 4,6 2,14 -4,18 -6,4 -27,15 -51,20 -15,3 -31,4 -47,1 -31,-7 -54,-26 -71,-39zm22 -16c14,11 32,25 55,30 11,3 24,2 35,-1 5,-1 10,-2 14,-4 -4,-3 -9,-7 -13,-10 -11,-9 -23,-19 -37,-22 -11,-3 -23,-2 -33,0 -8,2 -14,4 -20,6z"></path>
    <path class="fil0" d="M1478 676c0,3 -1,7 -1,11 -2,19 -4,46 -18,74 -7,14 -17,26 -28,36 -17,17 -36,28 -42,31 -7,3 -14,1 -18,-6 -3,-5 -2,-11 2,-15 6,-8 7,-20 9,-33 1,-16 3,-33 12,-50 7,-14 16,-25 26,-35 16,-15 32,-25 38,-28 7,-3 14,-1 18,6 1,3 2,6 1,9zm-42 73c9,-17 12,-35 14,-50 -3,3 -7,6 -10,9 -8,8 -16,17 -21,28 -7,13 -8,27 -9,40 0,2 0,4 -1,6 2,-1 3,-3 5,-4 9,-8 17,-18 23,-29z"></path>
    <path class="fil0" d="M560 1261c-3,1 -6,2 -11,4 -18,7 -42,17 -72,17 -15,0 -30,-4 -44,-8 -22,-8 -40,-19 -46,-23 -6,-4 -7,-13 -3,-18 3,-5 9,-6 14,-5 9,2 21,-2 33,-7 14,-6 29,-12 49,-12 15,0 29,3 42,8 20,7 36,17 41,21 6,4 7,13 3,18 -2,2 -4,4 -7,5zm-83 -5c18,0 35,-5 48,-10 -4,-2 -8,-3 -12,-5 -10,-3 -21,-6 -33,-6 -14,0 -27,5 -39,10 -2,1 -3,1 -5,2 2,1 3,1 5,2 11,4 23,7 35,7z"></path>
    <path class="fil0" d="M590 1290c-4,1 -7,2 -10,4 -3,1 -6,2 -9,1 -7,-2 -12,-9 -10,-16 2,-7 7,-25 18,-43 7,-11 15,-23 27,-33 15,-12 30,-18 45,-23 12,-4 23,-8 29,-16 3,-5 9,-7 14,-6 7,2 12,9 10,16 -2,7 -8,27 -20,47 -7,12 -16,25 -28,35 -23,20 -48,28 -66,34zm6 -30c14,-5 29,-12 43,-24 9,-8 16,-18 22,-28 1,-2 2,-3 3,-5 -2,1 -3,1 -5,2 -12,4 -25,9 -36,18 -9,8 -16,17 -21,26 -2,4 -4,8 -6,11z"></path>
    <path class="fil0" d="M1004 1603c-4,-3 -8,-7 -12,-11 -20,-18 -48,-42 -67,-80 -9,-18 -14,-39 -17,-59 -4,-32 -2,-62 0,-71 1,-7 8,-12 15,-11 6,1 10,5 11,10l0 0c3,16 17,28 32,41 16,14 33,30 45,53 9,18 14,38 17,56 4,30 1,55 0,65 -1,7 -8,12 -15,11 -3,0 -5,-2 -7,-4zm-56 -103c15,30 37,50 54,66 0,-9 0,-20 -2,-32 -2,-16 -6,-32 -14,-48 -10,-19 -25,-33 -39,-45 -5,-5 -11,-10 -16,-15 0,7 1,15 2,22 2,17 6,35 14,51z"></path>
    <path class="fil0" d="M891 1518c5,-1 9,-2 12,-3 3,-1 6,-1 9,0 7,2 11,9 9,16 -2,7 -9,27 -23,47 -8,12 -19,25 -32,35 -17,13 -35,18 -51,22 -14,4 -27,8 -35,16 -3,5 -9,7 -15,5 -7,-2 -11,-9 -9,-16 2,-7 11,-29 25,-51 9,-13 20,-27 33,-37 27,-21 55,-28 76,-33zm-6 29c-17,5 -36,12 -54,26 -11,8 -20,19 -27,30 -2,3 -4,6 -6,9 3,-1 6,-2 9,-3 14,-4 29,-8 42,-18 11,-8 19,-18 26,-28 4,-5 7,-11 9,-16z"></path>
    <path class="fil0" d="M1473 1353c-1,-5 -1,-9 -2,-12l0 0c0,-3 0,-5 1,-8 3,-7 11,-10 18,-6 6,3 23,12 40,26 10,9 20,20 28,34 10,17 12,34 14,49 2,13 3,26 10,33 4,4 5,10 3,15 -3,7 -11,10 -18,6 -6,-3 -25,-14 -43,-29 -11,-10 -22,-22 -29,-35 -15,-27 -18,-54 -21,-73zm28 11c2,15 6,32 16,49 6,10 15,20 24,28 2,1 3,3 5,4 0,-2 -1,-4 -1,-6 -2,-13 -4,-27 -11,-40 -6,-10 -14,-19 -22,-27 -4,-3 -7,-6 -11,-9z"></path>
    <path class="fil0" d="M1494 1262c-2,3 -3,7 -5,11 -7,18 -17,43 -39,65 -11,11 -24,20 -37,26 -21,11 -43,16 -50,17 -7,1 -14,-4 -15,-11 -1,-5 2,-11 6,-13l0 0c9,-5 14,-17 19,-29 6,-14 13,-30 26,-44 11,-11 23,-19 35,-25l0 0 0 0c20,-10 38,-14 45,-15 7,-1 14,4 15,11 0,3 0,5 -1,8l0 0zm-63 58c14,-14 22,-30 28,-43 -4,2 -8,3 -13,6l0 0c-10,5 -20,11 -28,20 -10,10 -16,24 -21,36 -1,2 -2,4 -2,6 2,-1 4,-2 6,-3 11,-5 22,-12 30,-21z"></path>
    <path class="fil0" d="M537 811c3,-2 6,-4 10,-7 16,-12 37,-28 68,-35 15,-4 31,-4 45,-3 24,2 45,9 51,11 7,3 10,10 7,17 -2,5 -7,8 -12,8 -10,0 -20,7 -31,15 -13,9 -26,19 -45,24 -15,4 -30,4 -43,3 -22,-2 -40,-8 -46,-11 -7,-3 -10,-10 -7,-17 1,-3 3,-5 5,-6l0 0zm84 -17c-19,5 -34,14 -47,23 4,1 9,1 14,2 11,1 23,1 35,-2 14,-4 26,-12 36,-20 2,-1 3,-2 5,-4 -2,0 -4,0 -6,-1 -12,-1 -25,-1 -37,2z"></path>
   </g>
   <path class="fil0" d="M1024 240c37,0 68,26 99,51 22,18 43,36 64,41 21,5 49,-2 76,-9 37,-9 74,-19 106,-3 32,16 47,51 62,86 11,26 22,51 38,64 16,13 43,18 71,23 37,7 75,14 96,41 22,27 21,65 19,103 -1,28 -2,56 7,75 9,19 31,35 54,52 31,23 63,46 71,81 8,35 -9,69 -26,104 -13,26 -26,52 -26,75 0,23 13,49 26,75 17,35 35,70 26,104 -8,35 -40,58 -71,81 -22,17 -45,33 -54,52 -9,19 -8,47 -7,75 1,38 2,76 -19,103 -22,27 -59,34 -96,41 -27,5 -55,10 -71,23 -16,13 -27,38 -38,64 -15,35 -30,70 -62,86 -31,15 -68,6 -106,-3 -27,-7 -55,-14 -76,-9 -21,5 -42,23 -64,41 -31,25 -62,51 -99,51 -37,0 -68,-26 -99,-51 -22,-18 -43,-36 -64,-41 -21,-5 -49,2 -76,9 -37,9 -74,19 -106,3 -32,-16 -47,-51 -62,-86 -11,-26 -22,-51 -38,-64 -16,-13 -43,-18 -71,-23 -37,-7 -75,-14 -96,-41 -22,-27 -21,-65 -19,-103 1,-28 2,-56 -7,-75 -9,-19 -31,-35 -54,-52 -31,-23 -63,-46 -71,-81 -8,-35 9,-69 26,-104 13,-26 26,-52 26,-75 0,-23 -13,-49 -26,-75 -17,-35 -35,-70 -26,-104 8,-35 40,-58 71,-81 22,-17 45,-33 54,-52 9,-19 8,-47 7,-75 -1,-38 -2,-76 19,-103 22,-27 59,-34 96,-41 27,-5 55,-10 71,-23 16,-13 27,-38 38,-64 15,-35 30,-70 62,-86 31,-15 68,-6 106,3 27,7 55,14 76,9 21,-5 42,-23 64,-41 31,-25 62,-51 99,-51zm79 76c-26,-22 -53,-44 -79,-44 -26,0 -53,22 -79,44 -25,21 -49,41 -77,47 -29,7 -60,-1 -91,-9 -32,-8 -63,-16 -84,-6 -21,10 -34,40 -47,70 -13,29 -25,58 -47,76 -22,18 -54,24 -85,30 -32,6 -63,12 -77,30 -14,18 -13,50 -12,82 1,32 2,64 -11,90 -13,26 -38,44 -64,63 -26,20 -53,39 -59,63 -6,24 9,53 24,83 15,29 29,59 29,89 0,30 -15,60 -29,89 -15,30 -30,60 -24,83 6,24 32,43 59,63 26,19 51,38 64,63 13,26 12,58 11,90 -1,32 -2,64 12,82 14,18 46,24 77,30 31,6 62,12 85,30 22,18 35,47 47,76 13,30 26,59 47,70 21,10 52,2 84,-6 31,-8 63,-16 91,-9 28,7 52,27 77,47 26,22 53,44 79,44 26,0 53,-22 79,-44 25,-21 49,-41 77,-47 29,-7 60,1 91,9 32,8 63,16 84,6 21,-10 34,-40 47,-70 13,-29 25,-58 47,-76 22,-18 54,-24 85,-30 32,-6 63,-12 77,-30 14,-18 13,-50 12,-82 -1,-32 -2,-64 11,-90 13,-26 38,-44 64,-63 26,-20 53,-39 59,-63 6,-24 -9,-53 -24,-83 -15,-29 -29,-59 -29,-89 0,-30 15,-60 29,-89 15,-30 30,-60 24,-83 -6,-24 -32,-43 -59,-63 -26,-19 -51,-38 -64,-63 -13,-26 -12,-58 -11,-90 1,-32 2,-64 -12,-82 -14,-18 -46,-24 -77,-30 -31,-6 -62,-12 -85,-30 -22,-18 -35,-47 -47,-76 -13,-30 -26,-59 -47,-70 -21,-10 -52,-2 -84,6 -31,8 -63,16 -91,9 -28,-7 -52,-27 -77,-47z"></path>
   <path class="fil0" d="M1024 676c26,0 46,14 67,28 12,8 23,16 33,19 11,4 25,4 39,4 24,1 47,1 66,15 19,14 27,36 34,59 4,13 9,26 16,35 7,9 18,17 29,25 19,14 38,28 46,51 8,23 1,46 -6,69 -4,14 -8,28 -8,41 0,13 4,27 8,41 7,23 13,46 6,69 -8,23 -27,37 -46,51 -11,8 -22,16 -29,25 -7,9 -11,22 -16,35 -8,22 -15,45 -34,59 -19,14 -43,15 -66,15 -14,0 -28,1 -39,4 -10,3 -22,11 -33,19 -20,14 -41,28 -67,28 -26,0 -46,-14 -67,-28 -12,-8 -23,-16 -33,-19 -11,-4 -25,-4 -39,-4 -24,-1 -47,-1 -66,-15 -19,-14 -27,-36 -34,-59 -4,-13 -9,-26 -16,-35 -7,-9 -18,-17 -29,-25 -19,-14 -38,-28 -46,-51 -8,-23 -1,-46 6,-69 4,-14 8,-28 8,-41 0,-13 -4,-27 -8,-41 -7,-23 -13,-46 -6,-69 8,-23 27,-37 46,-51 11,-8 22,-16 29,-25 7,-9 11,-22 16,-35 8,-22 15,-45 34,-59 19,-14 43,-15 66,-15 14,0 28,-1 39,-4 10,-3 22,-11 33,-19 20,-14 41,-28 67,-28zm48 55c-16,-11 -33,-23 -48,-23 -16,0 -32,11 -48,23 -13,9 -26,18 -42,23 -15,5 -32,6 -49,6 -19,0 -37,1 -48,9 -11,8 -17,26 -23,43 -5,16 -11,31 -20,44 -9,13 -22,22 -36,32 -15,11 -30,22 -35,36 -5,14 1,32 6,51 5,16 9,33 9,49 0,17 -5,33 -9,49 -5,19 -11,37 -6,51 4,13 20,25 35,36 13,10 26,19 36,32 9,13 15,29 20,44 6,17 12,35 23,43 11,8 30,9 48,9 16,0 33,1 49,6 15,5 28,14 42,23 16,11 33,23 48,23 16,0 32,-11 48,-23 13,-9 26,-18 42,-23 15,-5 32,-6 49,-6 19,0 37,-1 48,-9 11,-8 17,-26 23,-43 5,-16 11,-31 20,-44 9,-13 22,-22 36,-32 15,-11 30,-22 35,-36 5,-14 -1,-32 -6,-51 -5,-16 -9,-33 -9,-49 0,-17 5,-33 9,-49 5,-19 11,-37 6,-51 -4,-13 -20,-25 -35,-36 -13,-10 -26,-19 -36,-32 -9,-13 -15,-29 -20,-44 -6,-17 -12,-35 -23,-43 -11,-8 -30,-9 -48,-9 -16,0 -33,-1 -49,-6 -15,-5 -28,-14 -42,-23z"></path>
  </g>
 </g>
 <rect class="fil1" width="2048" height="2048"></rect>
</svg>