<svg xmlns="http://www.w3.org/2000/svg" xmlns:xlink="http://www.w3.org/1999/xlink" xml:space="preserve" width="2048px" height="2048px" style="shape-rendering:geometricPrecision; text-rendering:geometricPrecision; image-rendering:optimizeQuality; fill-rule:evenodd; clip-rule:evenodd" viewBox="0 0 2048 2048">
 <defs>
  <style type="text/css">
   <![CDATA[
    .fil1 {fill:none}
    .fil0 {fill:#212121;fill-rule:nonzero}
   ]]>
  </style>
 </defs>
 <g id="Layer_x0020_1">
  <metadata id="CorelCorpID_0Corel-Layer"></metadata>
  <g id="_516218216">
   <g>
    <path class="fil0" d="M695 1544l0 207c0,17 -7,33 -18,44 -11,11 -27,18 -44,18 -17,0 -33,-7 -44,-18 -11,-11 -18,-27 -18,-44l0 -207c0,-13 11,-24 24,-24l77 0c13,0 24,11 24,24zm-48 207l0 -183 -29 0 0 183c0,4 2,7 4,10 3,3 6,4 10,4 4,0 8,-2 10,-4 2,-2 4,-6 4,-10z"></path>
    <path class="fil0" d="M840 1544l0 207c0,17 -7,33 -18,44 -11,11 -27,18 -44,18 -17,0 -33,-7 -44,-18 -11,-11 -18,-27 -18,-44l0 -207c0,-13 11,-24 24,-24l77 0c13,0 24,11 24,24zm-48 207l0 -183 -29 0 0 183c0,4 2,7 4,10 3,3 6,4 10,4 4,0 8,-2 10,-4 2,-2 4,-6 4,-10z"></path>
    <path class="fil0" d="M706 707c31,0 58,12 78,31 20,20 33,47 33,77 0,30 -13,57 -33,77 -20,19 -48,31 -78,31 -31,0 -58,-12 -78,-31 -20,-20 -33,-47 -33,-77 0,-30 13,-57 33,-77 20,-19 48,-31 78,-31zm45 66c-11,-11 -27,-18 -45,-18 -18,0 -34,7 -45,18 -11,11 -18,26 -18,42 0,17 7,32 18,42 11,11 27,18 45,18 18,0 34,-7 45,-18 11,-11 18,-26 18,-42 0,-17 -7,-32 -18,-42z"></path>
    <path class="fil0" d="M1013 1389l0 0 0 0c-1,31 -17,52 -37,62 -8,4 -17,6 -26,5 -9,0 -18,-2 -26,-6 -19,-10 -34,-29 -34,-59 -3,-19 -6,-40 -9,-61 -8,-59 -17,-125 -41,-170l48 380 0 0 0 0c2,13 -8,25 -21,27 -1,0 -2,0 -3,0l0 0 -317 0c-13,0 -24,-11 -24,-24 0,-2 0,-4 1,-5l48 -378c-25,45 -33,111 -41,170 -3,22 -6,43 -9,62 -3,34 -22,56 -43,65 -9,4 -18,5 -27,5 -9,-1 -18,-4 -26,-9 -18,-12 -30,-34 -27,-66 0,-1 0,-2 0,-3 3,-18 7,-45 11,-74 11,-73 23,-162 41,-203 28,-65 79,-111 138,-136 37,-16 77,-23 117,-23 40,0 81,8 117,24 59,25 109,71 137,137 17,41 30,128 40,201 4,30 8,57 12,75 0,2 0,3 0,5l0 0zm-57 18c5,-2 9,-8 9,-17 -4,-21 -7,-47 -11,-74 -10,-70 -22,-154 -37,-189 -23,-53 -64,-90 -112,-111 -31,-13 -65,-20 -99,-20 -34,0 -68,6 -99,20 -48,21 -90,57 -113,111 -15,35 -27,120 -38,191 -4,28 -8,54 -12,76 -1,11 2,18 5,21 1,1 2,1 3,1 2,0 3,0 5,-1 7,-3 12,-11 14,-26 0,-1 0,-2 0,-3 3,-18 6,-39 9,-61 13,-97 28,-210 110,-250l0 0c4,-2 9,-3 13,-2 13,2 22,14 21,27l-53 422 263 0 -53 -421c-1,-5 0,-10 2,-15 6,-12 20,-17 32,-11 83,41 98,154 110,250 3,22 6,42 9,60 0,2 0,3 0,5 0,10 3,16 8,19 1,1 3,1 5,1 2,0 4,0 5,-1z"></path>
    <path class="fil0" d="M1505 1167l0 566c0,36 -18,60 -40,71 -9,5 -19,7 -30,7 -10,0 -20,-2 -30,-7 -23,-11 -40,-35 -40,-71 0,0 0,-1 0,-1l-8 -267c-5,-4 -9,-5 -12,-5 -3,0 -7,2 -11,5l-8 268 0 0c0,36 -18,60 -40,71 -9,5 -19,7 -30,7 -10,0 -20,-2 -30,-7 -23,-11 -40,-35 -40,-71l0 -566c-1,1 -2,3 -3,4 -9,15 -14,33 -14,52l0 162c0,2 0,5 0,7 -2,22 -10,36 -21,46 -12,10 -26,13 -40,13 -2,0 -4,0 -6,0 -14,-1 -29,-5 -41,-15 -12,-11 -20,-26 -20,-51l0 -162c0,-134 80,-220 181,-258 39,-14 81,-22 123,-22 42,0 84,7 123,22 102,38 181,124 181,258l0 162c0,2 0,4 0,6 -1,22 -10,37 -21,47 -12,10 -27,13 -41,13 -1,0 -3,0 -5,0 -14,-1 -29,-4 -41,-15 -12,-11 -20,-26 -20,-51l0 -162c0,-19 -5,-36 -14,-52 -1,-2 -2,-3 -3,-4zm-50 566l0 -627 0 0c0,-5 2,-10 5,-14 8,-11 24,-13 35,-5 22,16 42,36 56,61 13,22 20,47 20,75l0 162c0,9 1,14 3,16 2,2 6,2 11,3 0,0 1,0 2,0 4,0 7,0 9,-2 2,-2 3,-5 4,-13 0,-1 0,-2 0,-4l0 -162c0,-111 -66,-182 -149,-213 -33,-12 -69,-18 -106,-18 -36,0 -72,6 -106,18 -84,31 -149,102 -149,213l0 162c0,9 1,14 3,15 2,2 6,2 11,3 1,0 1,0 3,0 4,0 7,0 9,-2 2,-2 3,-5 4,-12 0,-1 0,-2 0,-4l0 -162c0,-28 8,-53 20,-75 14,-24 33,-44 55,-60 4,-4 10,-6 16,-6 14,0 25,11 25,24l0 627c0,16 6,25 13,29 2,1 5,2 7,2 3,0 5,-1 7,-2 7,-4 13,-13 13,-29l0 0 0 -1 9 -279c0,-6 3,-13 8,-18 18,-16 34,-24 53,-24 18,0 35,8 53,24l0 0c5,4 8,10 8,17l9 277c0,1 0,2 0,3 0,16 6,25 13,29 2,1 5,2 7,2 3,0 5,-1 7,-2 7,-4 13,-13 13,-29z"></path>
    <path class="fil0" d="M1346 707c31,0 59,12 79,32 20,20 33,47 33,77 0,30 -13,57 -33,77 -20,20 -48,32 -79,32 -31,0 -59,-12 -79,-32 -20,-20 -33,-47 -33,-77 0,-30 13,-57 33,-77 20,-20 48,-32 79,-32zm44 66c-11,-11 -27,-18 -44,-18 -17,0 -33,7 -44,18 -11,11 -18,26 -18,43 0,17 7,32 18,43 11,11 27,18 44,18 17,0 33,-7 44,-18 11,-11 18,-26 18,-43 0,-17 -7,-32 -18,-43z"></path>
    <g>
     <g>
      <path class="fil0" d="M606 678c0,13 -11,24 -24,24 -13,0 -24,-11 -24,-24 0,-110 55,-209 145,-280 88,-70 209,-114 342,-114 133,0 254,43 342,114 89,71 145,171 145,280 0,13 -11,24 -24,24 -13,0 -24,-11 -24,-24 0,-95 -48,-181 -126,-243 -80,-64 -190,-103 -312,-103 -122,0 -233,39 -312,103 -78,62 -126,148 -126,243z"></path>
      <path class="fil0" d="M606 678c0,13 -11,24 -24,24 -13,0 -24,-11 -24,-24 0,-33 16,-63 43,-84 25,-20 59,-32 97,-32 37,0 72,12 97,32 27,21 43,51 43,84 0,13 -11,24 -24,24 -13,0 -24,-11 -24,-24 0,-18 -9,-35 -25,-47 -17,-13 -40,-22 -67,-22 -26,0 -50,8 -67,22 -15,12 -25,29 -25,47z"></path>
      <path class="fil0" d="M1068 678c0,13 -11,24 -24,24 -13,0 -24,-11 -24,-24 0,-18 -9,-35 -25,-47 -17,-13 -40,-22 -67,-22 -26,0 -50,8 -67,22 -15,12 -25,29 -25,47 0,13 -11,24 -24,24 -13,0 -24,-11 -24,-24 0,-33 16,-63 43,-84 25,-20 59,-32 97,-32 37,0 72,12 97,32 27,21 43,51 43,84z"></path>
      <path class="fil0" d="M1068 678c0,13 -11,24 -24,24 -13,0 -24,-11 -24,-24 0,-33 16,-63 43,-84 25,-20 59,-32 97,-32 37,0 72,12 97,32 27,21 43,51 43,84 0,13 -11,24 -24,24 -13,0 -24,-11 -24,-24 0,-18 -9,-35 -25,-47 -17,-13 -40,-22 -67,-22 -26,0 -50,8 -67,22 -15,12 -25,29 -25,47z"></path>
      <path class="fil0" d="M1531 678c0,13 -11,24 -24,24 -13,0 -24,-11 -24,-24 0,-18 -9,-35 -25,-47 -17,-13 -40,-22 -67,-22 -26,0 -50,8 -67,22 -15,12 -25,29 -25,47 0,13 -11,24 -24,24 -13,0 -24,-11 -24,-24 0,-33 16,-63 43,-84 25,-20 59,-32 97,-32 37,0 72,12 97,32 27,21 43,51 43,84z"></path>
     </g>
     <path class="fil0" d="M1020 689c0,-13 11,-24 24,-24 13,0 24,11 24,24l0 351c0,13 -11,24 -24,24 -13,0 -24,-11 -24,-24l0 -351z"></path>
    </g>
   </g>
   <path class="fil0" d="M1028 252c0,-9 7,-16 16,-16 9,0 16,7 16,16l0 51c0,9 -7,16 -16,16 -9,0 -16,-7 -16,-16l0 -51z"></path>
  </g>
 </g>
 <rect class="fil1" width="2048" height="2048"></rect>
</svg>