<svg xmlns="http://www.w3.org/2000/svg" xmlns:xlink="http://www.w3.org/1999/xlink" xml:space="preserve" width="2048px" height="2048px" style="shape-rendering:geometricPrecision; text-rendering:geometricPrecision; image-rendering:optimizeQuality; fill-rule:evenodd; clip-rule:evenodd" viewBox="0 0 2048 2048">
 <defs>
  <style type="text/css">
   <![CDATA[
    .fil1 {fill:none}
    .fil0 {fill:#212121;fill-rule:nonzero}
   ]]>
  </style>
 </defs>
 <g id="Layer_x0020_1">
  <metadata id="CorelCorpID_0Corel-Layer"></metadata>
  <path class="fil0" d="M1351 1344c18,0 32,14 32,32 0,18 -14,32 -32,32l-713 0c-18,0 -32,-14 -32,-32 0,-18 14,-32 32,-32l713 0zm-902 0c18,0 32,14 32,32 0,18 -14,32 -32,32l-118 0c-18,0 -32,-14 -32,-32 0,-1 0,-3 0,-4l18 -289c1,-15 12,-27 25,-29l152 -42 223 -264c6,-7 15,-11 24,-11l0 0 905 0c23,0 42,9 57,24 14,14 24,35 25,57l32 558c1,18 -13,33 -30,34 -1,0 -1,0 -2,0l0 0 -187 0c-18,0 -32,-14 -32,-32 0,-18 14,-32 32,-32l153 0 -30 -524c0,-6 -3,-11 -6,-15 -3,-3 -7,-5 -12,-5l-890 0 -219 260c-4,5 -10,9 -17,11l-141 39 -14 235 84 0z"></path>
  <path class="fil0" d="M280 1408c-18,0 -32,-14 -32,-32 0,-18 14,-32 32,-32l130 0c18,0 32,14 32,32 0,18 -14,32 -32,32l-130 0z"></path>
  <path class="fil0" d="M1635 1408c-18,0 -32,-14 -32,-32 0,-18 14,-32 32,-32l130 0c18,0 32,14 32,32 0,18 -14,32 -32,32l-130 0z"></path>
  <path class="fil0" d="M880 768c0,-9 7,-16 16,-16 9,0 16,7 16,16l0 608c0,9 -7,16 -16,16 -9,0 -16,-7 -16,-16l0 -608z"></path>
  <path class="fil0" d="M488 1072c-9,0 -16,-7 -16,-16 0,-9 7,-16 16,-16l408 0c9,0 16,7 16,16 0,9 -7,16 -16,16l-408 0z"></path>
  <path class="fil0" d="M783 1136c-9,0 -16,-7 -16,-16 0,-9 7,-16 16,-16l38 0c9,0 16,7 16,16 0,9 -7,16 -16,16l-38 0z"></path>
  <path class="fil0" d="M544 1276c36,0 69,15 93,39 24,24 39,57 39,93 0,36 -15,69 -39,93 -24,24 -57,39 -93,39 -36,0 -69,-15 -93,-39 -24,-24 -39,-57 -39,-93 0,-36 15,-69 39,-93 24,-24 57,-39 93,-39zm48 84c-12,-12 -29,-20 -48,-20 -19,0 -36,8 -48,20 -12,12 -20,29 -20,48 0,19 8,36 20,48 12,12 29,20 48,20 19,0 36,-8 48,-20 12,-12 20,-29 20,-48 0,-19 -8,-36 -20,-48zm854 -84c36,0 69,15 93,39 24,24 39,57 39,93 0,36 -15,69 -39,93 -24,24 -57,39 -93,39 -36,0 -69,-15 -93,-39 -24,-24 -39,-57 -39,-93 0,-36 15,-69 39,-93 24,-24 57,-39 93,-39zm48 84c-12,-12 -29,-20 -48,-20 -19,0 -36,8 -48,20 -12,12 -20,29 -20,48 0,19 8,36 20,48 12,12 29,20 48,20 19,0 36,-8 48,-20 12,-12 20,-29 20,-48 0,-19 -8,-36 -20,-48z"></path>
  <g id="_516220280">
   <polygon class="fil0" points="1275,1192 1275,890 1323,890 1323,1192 "></polygon>
   <polygon class="fil0" points="1199,948 1400,948 1400,996 1199,996 "></polygon>
  </g>
 </g>
 <rect class="fil1" width="2048" height="2048"></rect>
</svg>