<svg xmlns="http://www.w3.org/2000/svg" xmlns:xlink="http://www.w3.org/1999/xlink" xml:space="preserve" width="2048px" height="2048px" style="shape-rendering:geometricPrecision; text-rendering:geometricPrecision; image-rendering:optimizeQuality; fill-rule:evenodd; clip-rule:evenodd" viewBox="0 0 2048 2048">
 <defs>
  <style type="text/css">
   <![CDATA[
    .fil1 {fill:none}
    .fil0 {fill:#212121;fill-rule:nonzero}
   ]]>
  </style>
 </defs>
 <g id="Layer_x0020_1">
  <metadata id="CorelCorpID_0Corel-Layer"></metadata>
  <path class="fil0" d="M1472 718l0 392c-5,1 -10,2 -15,3 -8,-17 -22,-31 -41,-39 -3,-1 -6,-2 -9,-3l0 -352c0,-28 -2,-55 -7,-79 -3,-20 -8,-38 -14,-56 -45,-12 -84,-38 -114,-72 -29,-34 -48,-77 -52,-124 -60,-32 -129,-49 -198,-49 -69,0 -138,16 -198,49 -4,47 -23,90 -52,124 -29,35 -69,60 -114,72 -6,18 -11,36 -14,56 -4,25 -7,51 -7,79l0 352c-3,1 -6,2 -8,3 -16,7 -28,18 -37,32 -6,-2 -13,-3 -19,-3l0 -384c0,-32 3,-62 8,-90 5,-30 13,-58 23,-84 4,-11 14,-18 24,-20l0 0c38,-7 71,-26 95,-54 23,-28 37,-63 38,-102 0,-12 6,-22 16,-27l0 0c73,-44 159,-66 245,-66 86,0 172,22 245,66 10,6 16,17 16,28 0,39 14,74 38,101 24,28 57,48 95,54 12,2 21,10 25,21 10,26 18,54 23,83 5,29 8,59 8,90zm0 758l0 106c0,18 -14,32 -32,32l-832 0c-18,0 -32,-14 -32,-32l0 -113c5,-1 10,-2 15,-3 9,17 22,31 41,39 3,1 5,2 8,3l0 41 768 0 0 -41c3,-1 6,-2 9,-3 16,-7 28,-18 37,-32 6,2 12,2 19,3z"></path>
  <g id="_516224120">
   <polygon class="fil0" points="1000,782 1000,398 1048,398 1048,782 "></polygon>
   <polygon class="fil0" points="916,479 1132,479 1132,527 916,527 "></polygon>
  </g>
  <path class="fil0" d="M416 1742l1216 0 0 -128 -1216 0 0 128zm1248 64l-1280 0c-18,0 -32,-14 -32,-32l0 -192c0,-18 14,-32 32,-32l1280 0c18,0 32,14 32,32l0 192c0,18 -14,32 -32,32z"></path>
  <g id="_516221240">
   <g>
    <path class="fil0" d="M1087 951l0 0c0,36 -6,70 -15,94 -11,29 -28,47 -48,47l0 0 0 0c-20,0 -37,-18 -48,-47 -9,-24 -15,-57 -15,-94l0 0c0,-32 16,-54 37,-63 8,-4 17,-6 26,-6 9,0 18,2 26,6 21,9 37,30 37,63l0 0zm-32 0l0 0 0 0c0,-18 -8,-29 -18,-34 -4,-2 -8,-3 -13,-3 -4,0 -9,1 -13,3 -10,5 -19,16 -19,34l0 0c0,33 5,62 13,83 6,16 13,26 18,26l0 0 0 0c6,0 12,-10 18,-26 8,-21 13,-50 13,-83z"></path>
    <path class="fil0" d="M1055 1250l0 0c0,-33 -5,-62 -13,-83 -6,-16 -13,-26 -18,-26l0 0 0 0c-6,0 -12,10 -18,26 -8,21 -13,50 -13,83l0 0c0,18 8,29 19,34 4,2 8,3 13,3 4,0 9,-1 13,-3 10,-5 18,-16 18,-34l0 0zm32 0l0 0 0 0c0,33 -16,54 -37,63 -8,4 -17,6 -26,6 -9,0 -18,-2 -26,-6 -21,-10 -37,-31 -37,-63l0 0c0,-36 6,-70 15,-94 11,-29 28,-47 48,-47l0 0 0 0c20,0 37,18 48,47 9,24 15,58 15,94z"></path>
    <path class="fil0" d="M874 1038l0 0c36,0 70,6 94,15 29,11 47,28 47,48l0 0 0 0c0,20 -18,37 -47,48 -24,9 -57,15 -94,15 -32,0 -54,-16 -63,-37 -4,-8 -6,-17 -6,-26 0,-9 2,-18 6,-26 9,-21 30,-37 63,-37l0 0zm0 32l0 0 0 0c-18,0 -29,8 -34,18 -2,4 -3,8 -3,13 0,4 1,9 3,13 5,10 16,19 34,19 33,0 62,-5 83,-13 16,-6 26,-13 26,-18l0 0 0 0c0,-6 -10,-12 -26,-18 -21,-8 -50,-13 -83,-13z"></path>
    <path class="fil0" d="M1174 1070l0 0c-33,0 -62,5 -83,13 -16,6 -26,13 -26,18l0 0 0 0c0,6 10,12 26,18 21,8 50,13 83,13 18,0 29,-8 34,-19 2,-4 3,-8 3,-13 0,-4 -1,-9 -3,-13 -5,-10 -16,-18 -34,-18l0 0zm0 -32l0 0 0 0c33,0 54,16 63,37 4,8 6,17 6,26 0,9 -2,18 -6,26 -9,21 -31,37 -63,37 -36,0 -70,-6 -94,-15 -29,-11 -47,-28 -47,-48l0 0 0 0c0,-20 18,-37 47,-48 24,-9 58,-15 94,-15z"></path>
    <path class="fil0" d="M1176 1044c-5,5 -10,9 -14,13 -5,4 -10,8 -15,12 -2,2 -5,3 -8,3l0 0c-20,2 -37,6 -50,12 -12,5 -20,10 -23,15 -4,6 -12,9 -18,6 -3,-1 -6,-2 -9,-3 -3,-2 -6,-4 -8,-7 -3,-3 -5,-6 -7,-10l0 0c-1,-4 -2,-8 -3,-12 -1,-6 2,-11 6,-14l0 0c4,-3 9,-10 13,-19 5,-10 8,-24 11,-39 0,-3 2,-5 3,-8 5,-7 11,-13 17,-20 6,-7 13,-13 20,-20 24,-22 50,-25 71,-16 8,3 16,9 22,15 6,6 11,14 14,23 7,22 3,48 -21,70zm-35 -12c4,-4 9,-8 13,-12 13,-12 16,-26 13,-36 -1,-4 -4,-8 -7,-11 -3,-3 -7,-6 -11,-7 -11,-4 -24,-3 -38,10 -6,6 -12,12 -18,18 -5,5 -9,10 -13,15 -3,16 -7,31 -12,43 -1,2 -2,5 -3,7 4,-2 8,-4 12,-5 15,-6 33,-10 54,-13 3,-2 7,-5 10,-8z"></path>
    <path class="fil0" d="M935 1225c6,-6 12,-12 18,-18 5,-5 9,-10 13,-15 3,-16 7,-31 12,-43 1,-2 2,-5 3,-7 -4,2 -8,4 -12,5 -15,6 -33,10 -54,13 -3,2 -7,5 -10,8 -4,4 -9,8 -13,12 -13,12 -16,26 -12,37 1,4 4,8 7,11 3,3 7,6 10,7 10,4 24,2 37,-10zm41 4c-6,7 -13,13 -20,20 -24,22 -50,25 -71,16 -8,-3 -16,-9 -22,-15 -6,-6 -11,-14 -13,-23 -7,-22 -3,-48 21,-70 5,-5 10,-9 14,-13 5,-4 9,-7 14,-11 2,-2 5,-3 8,-4 20,-2 37,-6 50,-12 12,-5 20,-10 23,-15l0 0c4,-5 10,-8 17,-7 4,1 7,2 10,4 3,2 6,4 8,7 3,3 5,6 6,9 0,0 0,1 0,1 1,3 2,7 3,11 1,6 -1,12 -6,15 -4,3 -9,10 -13,19 -5,10 -8,24 -11,39l0 0c0,2 -1,5 -3,7 -5,7 -11,14 -17,21z"></path>
    <path class="fil0" d="M968 948c5,5 9,10 13,14 4,5 8,10 12,15 2,2 3,5 3,8l0 0c2,20 6,37 12,50 5,12 10,20 15,23 6,4 9,12 6,18 -1,3 -2,6 -3,9 -2,3 -4,6 -7,8 -3,3 -7,5 -10,7 0,0 -1,0 -1,0 -3,1 -7,2 -11,2 -6,1 -11,-2 -14,-6l0 0c-3,-4 -10,-9 -19,-13 -10,-5 -24,-8 -39,-11 -3,0 -5,-2 -8,-3 -7,-5 -13,-11 -20,-17 -7,-6 -13,-13 -20,-20 -22,-24 -25,-50 -16,-71 3,-8 9,-16 15,-22 6,-6 14,-11 23,-14 22,-7 48,-3 70,21zm-12 35c-4,-4 -8,-9 -12,-13 -12,-13 -26,-16 -36,-13 -4,1 -8,4 -11,7 -3,3 -6,7 -7,11 -4,11 -3,24 10,38 6,6 12,12 18,18 5,5 10,9 15,13 16,3 31,7 43,12 2,1 5,2 7,3 -2,-4 -4,-8 -5,-12 -6,-15 -10,-33 -13,-54 -2,-3 -5,-7 -8,-10z"></path>
    <path class="fil0" d="M1149 1189c-6,-6 -12,-12 -18,-18 -5,-5 -10,-9 -15,-13 -16,-3 -31,-7 -43,-12 -2,-1 -5,-2 -7,-3 2,4 4,8 5,12 6,15 10,33 13,54 2,3 5,7 8,10 4,4 8,9 12,13 12,13 26,16 37,12 4,-1 8,-4 11,-7 3,-3 6,-7 7,-10 4,-10 2,-24 -10,-37zm4 -41c7,6 13,13 20,20 22,24 25,50 16,71 -3,8 -9,16 -15,22 -6,6 -14,11 -23,13 -22,7 -48,3 -70,-21 -5,-5 -9,-10 -13,-14 -4,-5 -7,-9 -11,-14 -2,-2 -3,-5 -4,-8 -2,-20 -6,-37 -12,-50 -5,-12 -10,-20 -15,-23l0 0c-5,-4 -8,-10 -7,-17 1,-4 2,-7 4,-10 2,-3 4,-6 7,-8 3,-3 7,-5 10,-7l0 0 0 0c3,-1 7,-2 11,-3 6,-1 12,1 15,6 3,4 10,9 19,13 10,5 24,8 39,11l0 0c2,0 5,1 7,3 7,5 14,11 21,17z"></path>
    <path class="fil0" d="M1024 1059c11,0 22,5 29,12l0 0 0 0c7,7 12,18 12,29 0,11 -5,22 -12,29l0 0 0 0c-7,7 -18,12 -29,12 -11,0 -22,-5 -29,-12 0,0 -1,-1 -1,-1 -7,-7 -11,-17 -11,-28 0,-11 5,-22 12,-29 7,-7 18,-12 29,-12zm6 35c-2,-2 -4,-3 -6,-3 -2,0 -5,1 -6,3 -2,2 -3,4 -3,6 0,2 1,4 2,6 0,0 0,0 0,0 2,2 4,3 6,3 3,0 5,-1 6,-3 2,-2 3,-4 3,-6 0,-2 -1,-5 -3,-6l0 0z"></path>
   </g>
   <g>
    <g>
     <path class="fil0" d="M723 1158l0 0c0,32 -5,61 -13,82 -10,25 -24,41 -42,41l0 0 0 0c-18,0 -33,-16 -42,-41 -8,-21 -13,-50 -13,-82l0 0c0,-28 14,-47 33,-55 7,-3 15,-5 23,-5 8,0 15,2 23,5 18,8 32,27 32,55l0 0zm-28 0l0 0 0 0c0,-16 -7,-26 -16,-30 -3,-2 -7,-2 -11,-2 -4,0 -7,1 -11,2 -9,4 -16,14 -16,30l0 0c0,29 4,54 11,73 5,14 11,23 16,23l0 0 0 0c5,0 11,-9 16,-23 7,-18 11,-44 11,-73z"></path>
     <path class="fil0" d="M695 1421l0 0c0,-29 -4,-54 -11,-73 -5,-14 -11,-23 -16,-23l0 0 0 0c-5,0 -11,9 -16,23 -7,18 -11,44 -11,73l0 0c0,16 7,26 16,30 4,2 7,2 11,2 4,0 8,-1 11,-2 9,-4 16,-14 16,-30l0 0zm28 0l0 0 0 0c0,29 -14,47 -32,55 -7,3 -15,5 -23,5 -8,0 -16,-2 -23,-5 -18,-8 -33,-27 -33,-55l0 0c0,-32 5,-61 13,-82 10,-26 24,-41 42,-41l0 0 0 0c18,0 33,16 42,41 8,21 13,51 13,82z"></path>
     <path class="fil0" d="M536 1235l0 0c32,0 61,5 82,13 25,10 41,24 41,42l0 0 0 0c0,18 -16,33 -41,42 -21,8 -50,13 -82,13 -28,0 -47,-14 -55,-33 -3,-7 -5,-15 -5,-23 0,-8 2,-15 5,-23 8,-18 27,-32 55,-32l0 0zm0 28l0 0 0 0c-16,0 -26,7 -30,16 -2,3 -2,7 -2,11 0,4 1,7 2,11 4,9 14,16 30,16 29,0 54,-4 73,-11 14,-5 23,-11 23,-16l0 0 0 0c0,-5 -9,-11 -23,-16 -18,-7 -44,-11 -73,-11z"></path>
     <path class="fil0" d="M799 1263l0 0c-29,0 -54,4 -73,11 -14,5 -23,11 -23,16l0 0 0 0c0,5 9,11 23,16 18,7 44,11 73,11 16,0 26,-7 30,-16 2,-4 2,-7 2,-11 0,-4 -1,-8 -2,-11 -4,-9 -14,-16 -30,-16l0 0zm0 -28l0 0 0 0c29,0 47,14 55,32 3,7 5,15 5,23 0,8 -2,16 -5,23 -8,18 -27,33 -55,33 -32,0 -61,-5 -82,-13 -26,-10 -41,-24 -41,-42l0 0 0 0c0,-18 16,-33 41,-42 21,-8 51,-13 82,-13z"></path>
     <path class="fil0" d="M801 1240c-4,4 -8,8 -13,11 -4,3 -9,7 -13,10 -2,2 -4,2 -7,3l0 0c-17,2 -32,5 -44,10 -10,4 -17,9 -20,13 -4,5 -10,8 -16,6 -3,-1 -5,-2 -8,-3 -3,-2 -5,-3 -7,-6 -2,-3 -4,-6 -6,-9l0 0c-1,-3 -2,-7 -2,-10 0,-5 2,-10 5,-12l0 0c4,-3 8,-9 11,-17 4,-9 7,-21 10,-34 0,-3 2,-5 3,-7 4,-6 9,-12 15,-18 5,-6 11,-12 17,-17 21,-19 44,-22 63,-14 7,3 14,8 19,13 5,6 9,12 12,20 6,19 2,42 -18,61zm-31 -10c4,-3 8,-7 11,-10 12,-11 14,-23 11,-32 -1,-4 -3,-7 -6,-10 -3,-3 -6,-5 -9,-6 -9,-4 -21,-2 -33,8 -6,5 -11,10 -16,16 -4,5 -8,9 -11,14 -3,14 -6,27 -11,37 -1,2 -2,4 -3,6 3,-2 7,-3 10,-5 13,-5 29,-9 47,-11 3,-2 6,-4 9,-7z"></path>
     <path class="fil0" d="M590 1399c6,-5 11,-10 16,-16 4,-5 8,-9 11,-14 3,-14 6,-27 11,-37 1,-2 2,-4 3,-6 -3,2 -7,3 -10,5 -13,5 -29,9 -47,11 -3,2 -6,4 -9,7 -4,3 -8,7 -11,10 -12,11 -14,23 -11,32 1,4 3,7 6,10 3,3 6,5 9,6 9,4 21,2 33,-9zm36 3c-5,6 -11,12 -17,17 -21,20 -44,22 -63,14 -7,-3 -14,-8 -19,-13 -5,-6 -9,-12 -12,-20 -6,-19 -3,-42 18,-62 4,-4 8,-8 13,-11 4,-3 8,-7 12,-10 2,-2 5,-3 7,-3 17,-2 32,-5 44,-10 10,-4 17,-9 20,-13l0 0c3,-5 9,-7 15,-6 3,1 6,2 9,3 3,2 5,3 7,6 2,2 4,5 5,8 0,0 0,1 0,1 1,3 2,6 2,9 1,5 -1,10 -5,13 -4,3 -8,9 -11,17 -4,9 -7,21 -10,34l0 0c0,2 -1,4 -3,6 -5,6 -10,12 -15,18z"></path>
     <path class="fil0" d="M618 1156c4,4 8,8 11,13 3,4 7,8 10,13 2,2 2,4 3,7l0 0c2,17 5,32 10,44 4,10 9,17 13,20 5,4 8,10 6,16 -1,3 -2,5 -3,8 -2,3 -3,5 -6,7 -3,2 -6,4 -9,6 0,0 -1,0 -1,0 -3,1 -6,2 -9,2 -5,0 -10,-2 -12,-5l0 0c-3,-4 -9,-8 -17,-11 -9,-4 -21,-7 -34,-10 -3,0 -5,-2 -7,-3 -6,-4 -12,-9 -18,-15 -6,-5 -12,-11 -17,-17 -19,-21 -22,-44 -14,-63 3,-7 8,-14 13,-19 6,-5 12,-9 20,-12 19,-6 42,-2 61,18zm-10 31c-3,-4 -7,-8 -10,-11 -11,-12 -23,-14 -32,-11 -4,1 -7,3 -10,6 -3,3 -5,6 -6,9 -4,9 -2,21 8,33 5,6 10,11 16,16 5,4 9,8 14,11 14,3 27,6 37,11 2,1 4,2 6,3 -2,-3 -3,-7 -5,-10 -5,-13 -9,-29 -11,-47 -2,-3 -4,-6 -7,-9z"></path>
     <path class="fil0" d="M777 1367c-5,-6 -10,-11 -16,-16 -5,-4 -9,-8 -14,-11 -14,-3 -27,-6 -37,-11 -2,-1 -4,-2 -6,-3 2,3 3,7 5,10 5,13 9,29 11,47 2,3 4,6 7,9 3,4 7,8 10,11 11,12 23,14 32,11 4,-1 7,-3 10,-6 3,-3 5,-6 6,-9 4,-9 2,-21 -9,-33zm3 -36c6,5 12,11 17,17 20,21 22,44 14,63 -3,7 -8,14 -13,19 -6,5 -12,9 -20,12 -19,6 -42,3 -62,-18 -4,-4 -8,-8 -11,-13 -3,-4 -7,-8 -10,-12 -2,-2 -3,-5 -3,-7 -2,-17 -5,-32 -10,-44 -4,-10 -9,-17 -13,-20l0 0c-5,-3 -7,-9 -6,-15 1,-3 2,-6 3,-9 2,-3 3,-5 6,-7 3,-2 6,-4 9,-6l0 0 0 0c3,-1 6,-2 9,-2 5,-1 10,1 13,5 3,4 9,8 17,11 9,4 21,7 34,10l0 0c2,0 4,1 6,3 6,5 12,10 18,15z"></path>
     <path class="fil0" d="M667 1254c10,0 19,4 25,11l0 0 0 0c7,7 11,16 11,25 0,10 -4,19 -11,25l0 0 0 0c-7,7 -15,11 -25,11 -10,0 -19,-4 -25,-11 0,0 -1,-1 -1,-1 -6,-6 -10,-15 -10,-24 0,-10 4,-19 11,-25 7,-7 16,-11 25,-11zm6 30c-1,-1 -3,-2 -6,-2 -2,0 -4,1 -6,2 -1,1 -2,3 -2,6 0,2 1,4 2,5 0,0 0,0 0,0 1,1 3,2 6,2 2,0 4,-1 6,-2 1,-1 2,-3 2,-6 0,-2 -1,-4 -2,-6l0 0z"></path>
    </g>
    <g>
     <path class="fil0" d="M1436 1158l0 0c0,32 -5,61 -13,82 -10,25 -24,41 -42,41l0 0 0 0c-18,0 -33,-16 -42,-41 -8,-21 -13,-50 -13,-82l0 0c0,-28 14,-47 33,-55 7,-3 15,-5 23,-5 8,0 15,2 23,5 18,8 32,27 32,55l0 0zm-28 0l0 0 0 0c0,-16 -7,-26 -16,-30 -3,-2 -7,-2 -11,-2 -4,0 -7,1 -11,2 -9,4 -16,14 -16,30l0 0c0,29 4,54 11,73 5,14 11,23 16,23l0 0 0 0c5,0 11,-9 16,-23 7,-18 11,-44 11,-73z"></path>
     <path class="fil0" d="M1408 1421l0 0c0,-29 -4,-54 -11,-73 -5,-14 -11,-23 -16,-23l0 0 0 0c-5,0 -11,9 -16,23 -7,18 -11,44 -11,73l0 0c0,16 7,26 16,30 4,2 7,2 11,2 4,0 8,-1 11,-2 9,-4 16,-14 16,-30l0 0zm28 0l0 0 0 0c0,29 -14,47 -32,55 -7,3 -15,5 -23,5 -8,0 -16,-2 -23,-5 -18,-8 -33,-27 -33,-55l0 0c0,-32 5,-61 13,-82 10,-26 24,-41 42,-41l0 0 0 0c18,0 33,16 42,41 8,21 13,51 13,82z"></path>
     <path class="fil0" d="M1249 1235l0 0c32,0 61,5 82,13 25,10 41,24 41,42l0 0 0 0c0,18 -16,33 -41,42 -21,8 -50,13 -82,13 -28,0 -47,-14 -55,-33 -3,-7 -5,-15 -5,-23 0,-8 2,-15 5,-23 8,-18 27,-32 55,-32l0 0zm0 28l0 0 0 0c-16,0 -26,7 -30,16 -2,3 -2,7 -2,11 0,4 1,7 2,11 4,9 14,16 30,16 29,0 54,-4 73,-11 14,-5 23,-11 23,-16l0 0 0 0c0,-5 -9,-11 -23,-16 -18,-7 -44,-11 -73,-11z"></path>
     <path class="fil0" d="M1512 1263l0 0c-29,0 -54,4 -73,11 -14,5 -23,11 -23,16l0 0 0 0c0,5 9,11 23,16 18,7 44,11 73,11 16,0 26,-7 30,-16 2,-4 2,-7 2,-11 0,-4 -1,-8 -2,-11 -4,-9 -14,-16 -30,-16l0 0zm0 -28l0 0 0 0c29,0 47,14 55,32 3,7 5,15 5,23 0,8 -2,16 -5,23 -8,18 -27,33 -55,33 -32,0 -61,-5 -82,-13 -26,-10 -41,-24 -41,-42l0 0 0 0c0,-18 16,-33 41,-42 21,-8 51,-13 82,-13z"></path>
     <path class="fil0" d="M1514 1240c-4,4 -8,8 -13,11 -4,3 -9,7 -13,10 -2,2 -4,2 -7,3l0 0c-17,2 -32,5 -44,10 -10,4 -17,9 -20,13 -4,5 -10,8 -16,6 -3,-1 -5,-2 -8,-3 -3,-2 -5,-3 -7,-6 -2,-3 -4,-6 -6,-9l0 0c-1,-3 -2,-7 -2,-10 0,-5 2,-10 5,-12l0 0c4,-3 8,-9 11,-17 4,-9 7,-21 10,-34 0,-3 2,-5 3,-7 4,-6 9,-12 15,-18 5,-6 11,-12 17,-17 21,-19 44,-22 63,-14 7,3 14,8 19,13 5,6 9,12 12,20 6,19 2,42 -18,61zm-31 -10c4,-3 8,-7 11,-10 12,-11 14,-23 11,-32 -1,-4 -3,-7 -6,-10 -3,-3 -6,-5 -9,-6 -9,-4 -21,-2 -33,8 -6,5 -11,10 -16,16 -4,5 -8,9 -11,14 -3,14 -6,27 -11,37 -1,2 -2,4 -3,6 3,-2 7,-3 10,-5 13,-5 29,-9 47,-11 3,-2 6,-4 9,-7z"></path>
     <path class="fil0" d="M1303 1399c6,-5 11,-10 16,-16 4,-5 8,-9 11,-14 3,-14 6,-27 11,-37 1,-2 2,-4 3,-6 -3,2 -7,3 -10,5 -13,5 -29,9 -47,11 -3,2 -6,4 -9,7 -4,3 -8,7 -11,10 -12,11 -14,23 -11,32 1,4 3,7 6,10 3,3 6,5 9,6 9,4 21,2 33,-9zm36 3c-5,6 -11,12 -17,17 -21,20 -44,22 -63,14 -7,-3 -14,-8 -19,-13 -5,-6 -9,-12 -12,-20 -6,-19 -3,-42 18,-62 4,-4 8,-8 13,-11 4,-3 8,-7 12,-10 2,-2 5,-3 7,-3 17,-2 32,-5 44,-10 10,-4 17,-9 20,-13l0 0c3,-5 9,-7 15,-6 3,1 6,2 9,3 3,2 5,3 7,6 2,2 4,5 5,8 0,0 0,1 0,1 1,3 2,6 2,9 1,5 -1,10 -5,13 -4,3 -8,9 -11,17 -4,9 -7,21 -10,34l0 0c0,2 -1,4 -3,6 -5,6 -10,12 -15,18z"></path>
     <path class="fil0" d="M1331 1156c4,4 8,8 11,13 3,4 7,8 10,13 2,2 2,4 3,7l0 0c2,17 5,32 10,44 4,10 9,17 13,20 5,4 8,10 6,16 -1,3 -2,5 -3,8 -2,3 -3,5 -6,7 -3,2 -6,4 -9,6 0,0 -1,0 -1,0 -3,1 -6,2 -9,2 -5,0 -10,-2 -12,-5l0 0c-3,-4 -9,-8 -17,-11 -9,-4 -21,-7 -34,-10 -3,0 -5,-2 -7,-3 -6,-4 -12,-9 -18,-15 -6,-5 -12,-11 -17,-17 -19,-21 -22,-44 -14,-63 3,-7 8,-14 13,-19 6,-5 12,-9 20,-12 19,-6 42,-2 61,18zm-10 31c-3,-4 -7,-8 -10,-11 -11,-12 -23,-14 -32,-11 -4,1 -7,3 -10,6 -3,3 -5,6 -6,9 -4,9 -2,21 8,33 5,6 10,11 16,16 5,4 9,8 14,11 14,3 27,6 37,11 2,1 4,2 6,3 -2,-3 -3,-7 -5,-10 -5,-13 -9,-29 -11,-47 -2,-3 -4,-6 -7,-9z"></path>
     <path class="fil0" d="M1490 1367c-5,-6 -10,-11 -16,-16 -5,-4 -9,-8 -14,-11 -14,-3 -27,-6 -37,-11 -2,-1 -4,-2 -6,-3 2,3 3,7 5,10 5,13 9,29 11,47 2,3 4,6 7,9 3,4 7,8 10,11 11,12 23,14 32,11 4,-1 7,-3 10,-6 3,-3 5,-6 6,-9 4,-9 2,-21 -9,-33zm3 -36c6,5 12,11 17,17 20,21 22,44 14,63 -3,7 -8,14 -13,19 -6,5 -12,9 -20,12 -19,6 -42,3 -62,-18 -4,-4 -8,-8 -11,-13 -3,-4 -7,-8 -10,-12 -2,-2 -3,-5 -3,-7 -2,-17 -5,-32 -10,-44 -4,-10 -9,-17 -13,-20l0 0c-5,-3 -7,-9 -6,-15 1,-3 2,-6 3,-9 2,-3 3,-5 6,-7 3,-2 6,-4 9,-6l0 0 0 0c3,-1 6,-2 9,-2 5,-1 10,1 13,5 3,4 9,8 17,11 9,4 21,7 34,10l0 0c2,0 4,1 6,3 6,5 12,10 18,15z"></path>
     <path class="fil0" d="M1381 1254c10,0 19,4 25,11l0 0 0 0c7,7 11,16 11,25 0,10 -4,19 -11,25l0 0 0 0c-7,7 -15,11 -25,11 -10,0 -19,-4 -25,-11 0,0 -1,-1 -1,-1 -6,-6 -10,-15 -10,-24 0,-10 4,-19 11,-25 7,-7 16,-11 25,-11zm6 30c-1,-1 -3,-2 -6,-2 -2,0 -4,1 -6,2 -1,1 -2,3 -2,6 0,2 1,4 2,5 0,0 0,0 0,0 1,1 3,2 6,2 2,0 4,-1 6,-2 1,-1 2,-3 2,-6 0,-2 -1,-4 -2,-6l0 0z"></path>
    </g>
   </g>
  </g>
  <path class="fil0" d="M758 1142c2,-7 7,-13 14,-17 8,-5 16,-9 25,-14 3,-2 6,-3 9,-5 1,6 2,13 5,19 7,15 19,27 36,33 -7,3 -14,6 -21,10 -3,2 -6,3 -9,5 -3,-5 -6,-11 -10,-15 -5,-6 -12,-10 -19,-13 -9,-4 -20,-5 -31,-3z"></path>
  <path class="fil0" d="M1200 1162c-1,-1 -2,-1 -3,-2 19,-7 32,-20 39,-36 3,-6 5,-13 6,-20 4,2 9,4 13,7 9,5 17,10 24,14 4,2 7,6 10,9 -6,0 -12,1 -17,3 -8,3 -16,7 -22,13 -6,6 -11,13 -14,21 -1,3 -2,5 -3,8 -4,-2 -8,-4 -11,-6 -6,-3 -14,-7 -22,-11z"></path>
 </g>
 <rect class="fil1" width="2048" height="2048"></rect>
</svg>