<svg xmlns="http://www.w3.org/2000/svg" xmlns:xlink="http://www.w3.org/1999/xlink" xml:space="preserve" width="2048px" height="2048px" style="shape-rendering:geometricPrecision; text-rendering:geometricPrecision; image-rendering:optimizeQuality; fill-rule:evenodd; clip-rule:evenodd" viewBox="0 0 2048 2048">
 <defs>
  <style type="text/css">
   <![CDATA[
    .fil1 {fill:none}
    .fil0 {fill:#212121;fill-rule:nonzero}
   ]]>
  </style>
 </defs>
 <g id="Layer_x0020_1">
  <metadata id="CorelCorpID_0Corel-Layer"></metadata>
  <g id="_516224216">
   <path class="fil0" d="M1137 1051c1,2 2,4 4,6 7,13 12,27 17,42l149 410c15,42 -14,72 -67,91 -53,19 -135,29 -216,29l0 0c-81,0 -163,-10 -216,-29 -53,-19 -82,-49 -67,-91l149 -410c5,-14 11,-29 17,-42 1,-2 2,-4 4,-6 -10,-7 -17,-15 -21,-26l-50 -143c-17,-49 15,-82 69,-101 33,-11 74,-17 115,-17 41,0 82,6 115,17 54,19 86,52 69,101l-50 143c-4,10 -11,19 -21,26zm-39 29c-4,-8 -9,-14 -14,-18 -6,-3 -10,-9 -11,-16 -3,-13 6,-26 19,-28 7,-1 14,-4 18,-6 2,-1 3,-1 3,-2l50 -143c6,-17 -12,-31 -39,-40 -27,-9 -63,-14 -99,-14 -36,0 -72,5 -99,14 -27,10 -45,23 -39,40l50 143c0,0 1,0 3,2 4,3 10,5 18,6l0 0c6,1 12,5 15,10 7,11 5,26 -6,33 -5,4 -10,10 -15,19 -5,10 -10,23 -15,36l-149 410c-4,10 12,20 38,30 48,17 123,26 199,26l0 0c76,0 152,-9 199,-26 26,-10 42,-20 38,-30l-149 -410c-5,-13 -9,-25 -15,-36z"></path>
   <path class="fil0" d="M951 1065c-13,0 -24,-11 -24,-24 0,-13 11,-24 24,-24l147 0c13,0 24,11 24,24 0,13 -11,24 -24,24l-147 0z"></path>
   <path class="fil0" d="M1024 527c30,0 58,12 78,32 20,20 32,47 32,78 0,30 -12,58 -32,78 -20,20 -47,32 -78,32 -30,0 -58,-12 -78,-32 -20,-20 -32,-47 -32,-78 0,-30 12,-58 32,-78 20,-20 47,-32 78,-32zm44 66c-11,-11 -27,-18 -44,-18 -17,0 -33,7 -44,18 -11,11 -18,27 -18,44 0,17 7,33 18,44 11,11 27,18 44,18 17,0 33,-7 44,-18 11,-11 18,-27 18,-44 0,-17 -7,-33 -18,-44z"></path>
   <g>
    <path class="fil0" d="M925 775c13,0 24,11 24,24 0,13 -11,24 -24,24 -84,0 -141,-19 -182,-51 -38,-29 -62,-68 -80,-112 -1,0 -1,1 -2,1 0,0 0,0 0,0 -27,50 -86,88 -153,116 -54,22 -113,38 -165,46 23,7 48,13 73,17 54,9 109,10 142,-3 12,-5 26,1 31,14 2,6 2,12 0,18 -6,18 -17,34 -31,49 6,-1 12,-2 17,-2 42,-6 84,-16 113,-26 13,-4 26,2 30,15 2,7 1,15 -2,20 -4,8 -9,15 -14,22 20,-3 41,-6 62,-10 37,-7 71,-17 92,-28 12,-6 26,-2 32,10 6,12 2,26 -10,32 -25,13 -64,24 -105,32 -51,10 -107,17 -142,18l0 0c-8,0 -17,-4 -21,-12 -7,-11 -3,-26 9,-33l0 0c-12,2 -25,4 -37,6 -42,6 -85,10 -121,8l0 0c-10,0 -18,-7 -22,-16 -4,-13 3,-26 15,-30 22,-7 42,-18 57,-30 -32,2 -68,-1 -104,-7 -67,-11 -134,-34 -167,-60 -6,-4 -10,-11 -10,-19 0,-13 11,-24 24,-24 54,0 151,-17 234,-52 58,-24 108,-56 130,-94 2,-3 4,-6 6,-9 6,-7 15,-13 25,-16 11,-4 24,-3 37,4 3,2 6,4 9,6 3,3 6,6 7,10 16,40 36,76 69,101 33,25 81,41 153,41z"></path>
    <path class="fil0" d="M1123 823c-13,0 -24,-11 -24,-24 0,-13 11,-24 24,-24 73,0 120,-16 153,-41 33,-25 53,-61 69,-101 2,-4 4,-7 7,-10 3,-2 6,-4 9,-6 13,-7 26,-7 37,-4 10,3 19,10 25,16 2,3 5,6 6,9 21,39 71,70 130,94 83,34 180,52 234,52 13,0 24,11 24,24 0,8 -4,15 -10,19 -33,26 -100,49 -167,60 -35,6 -71,9 -104,7 15,12 35,23 57,30 13,4 19,18 15,30 -3,10 -12,16 -22,16l0 0c-36,2 -79,-2 -121,-8 -13,-2 -25,-4 -37,-6l0 0c11,7 15,21 9,33 -5,8 -13,12 -21,12l0 0c-35,-1 -91,-8 -142,-18 -41,-8 -80,-19 -105,-32 -12,-6 -16,-21 -10,-32 6,-12 21,-16 32,-10 21,11 55,21 92,28 21,4 42,8 62,10 -5,-7 -10,-14 -14,-22 -4,-6 -5,-13 -2,-20 4,-13 18,-19 30,-15 30,10 71,20 113,26 6,1 12,2 17,2 -14,-15 -25,-31 -31,-49 -2,-6 -3,-12 0,-18 5,-12 19,-18 31,-14 33,13 87,12 142,3 26,-4 51,-10 73,-17 -52,-9 -111,-24 -165,-46 -67,-28 -126,-66 -153,-116 0,0 0,0 0,0 0,0 -1,-1 -2,-1 -18,43 -42,82 -80,112 -41,31 -98,51 -182,51zm683 6c-4,3 -9,4 -14,4"></path>
   </g>
   <g>
    <path class="fil0" d="M947 529c-6,6 -16,6 -23,0 -6,-6 -6,-16 0,-23 12,-13 28,-23 45,-29 17,-7 36,-10 55,-10 19,0 38,4 55,11 17,7 33,17 45,30 6,6 6,17 -1,23 -6,6 -17,6 -23,-1 -9,-10 -21,-17 -34,-23 -13,-5 -28,-8 -44,-8 -15,0 -30,3 -43,8 -13,5 -25,13 -34,22z"></path>
    <path class="fil0" d="M902 498c-4,-8 -2,-17 6,-22 8,-4 17,-2 22,6l18 30c4,8 2,17 -6,22 -8,4 -17,2 -22,-6l-18 -30z"></path>
    <path class="fil0" d="M948 475c-4,-8 0,-17 8,-21 8,-4 17,0 21,8l10 22c4,8 0,17 -8,21 -8,4 -17,0 -21,-8l-10 -22z"></path>
    <path class="fil0" d="M1119 482c4,-8 14,-10 22,-6 8,4 10,14 6,22l-18 30c-4,8 -14,10 -22,6 -8,-4 -10,-14 -6,-22l18 -30z"></path>
    <path class="fil0" d="M1071 462c4,-8 13,-12 21,-8 8,4 12,13 8,21l-10 22c-4,8 -13,12 -21,8 -8,-4 -12,-13 -8,-21l10 -22z"></path>
    <path class="fil0" d="M1040 482c0,9 -7,16 -16,16 -9,0 -16,-7 -16,-16l0 -39c0,-9 7,-16 16,-16 9,0 16,7 16,16l0 39z"></path>
   </g>
  </g>
 </g>
 <rect class="fil1" width="2048" height="2048"></rect>
</svg>