<svg xmlns="http://www.w3.org/2000/svg" xmlns:xlink="http://www.w3.org/1999/xlink" xml:space="preserve" width="2048px" height="2048px" style="shape-rendering:geometricPrecision; text-rendering:geometricPrecision; image-rendering:optimizeQuality; fill-rule:evenodd; clip-rule:evenodd" viewBox="0 0 2048 2048">
 <defs>
  <style type="text/css">
   <![CDATA[
    .fil1 {fill:none}
    .fil0 {fill:#212121;fill-rule:nonzero}
   ]]>
  </style>
 </defs>
 <g id="Layer_x0020_1">
  <metadata id="CorelCorpID_0Corel-Layer"></metadata>
  <path class="fil0" d="M525 704l998 0c9,0 17,4 23,10l100 100c6,6 9,14 9,23l0 0 0 316c0,18 -14,32 -32,32l-1198 0c-18,0 -32,-14 -32,-32l0 -316c0,-9 4,-17 10,-23l100 -100c6,-6 14,-9 23,-9l0 0zm985 64l-972 0 -81 81 0 271 1134 0 0 -271 -81 -81z"></path>
  <path class="fil0" d="M342 880c-18,0 -32,-14 -32,-32 0,-18 14,-32 32,-32l1364 0c18,0 32,14 32,32 0,18 -14,32 -32,32l-1364 0z"></path>
  <path class="fil0" d="M288 1120l1472 0c18,0 32,14 32,32l0 160c0,18 -14,32 -32,32l-1472 0c-18,0 -32,-14 -32,-32l0 -160c0,-18 14,-32 32,-32zm1440 64l-1408 0 0 96 1408 0 0 -96z"></path>
  <g id="_516226472">
   <path class="fil0" d="M752 981c0,-9 7,-16 16,-16 9,0 16,7 16,16l0 15c0,12 -5,23 -13,31l0 0 0 0 0 0c-8,8 -19,13 -31,13l-88 0c-12,0 -23,-5 -31,-13l0 0 0 0 0 0c-8,-8 -13,-19 -13,-31l0 -15c0,-9 7,-16 16,-16 9,0 16,7 16,16l0 15c0,3 1,6 3,8l0 0 0 0c2,2 5,3 8,3l88 0c3,0 6,-1 8,-3l0 0 0 0c2,-2 3,-5 3,-8l0 -15z"></path>
   <path class="fil0" d="M1408 981c0,-9 7,-16 16,-16 9,0 16,7 16,16l0 15c0,12 -5,23 -13,31l0 0 0 0 0 0c-8,8 -19,13 -31,13l-88 0c-12,0 -23,-5 -31,-13l0 0 0 0 0 0c-8,-8 -13,-19 -13,-31l0 -15c0,-9 7,-16 16,-16 9,0 16,7 16,16l0 15c0,3 1,6 3,8l0 0 0 0c2,2 5,3 8,3l88 0c3,0 6,-1 8,-3l0 0 0 0c2,-2 3,-5 3,-8l0 -15z"></path>
  </g>
 </g>
 <rect class="fil1" width="2048" height="2048"></rect>
</svg>