<svg xmlns="http://www.w3.org/2000/svg" xmlns:xlink="http://www.w3.org/1999/xlink" xml:space="preserve" width="2048px" height="2048px" style="shape-rendering:geometricPrecision; text-rendering:geometricPrecision; image-rendering:optimizeQuality; fill-rule:evenodd; clip-rule:evenodd" viewBox="0 0 2048 2048">
 <defs>
  <style type="text/css">
   <![CDATA[
    .fil1 {fill:none}
    .fil0 {fill:#212121;fill-rule:nonzero}
   ]]>
  </style>
 </defs>
 <g id="Layer_x0020_1">
  <metadata id="CorelCorpID_0Corel-Layer"></metadata>
  <g id="_516227072">
   <path class="fil0" d="M1344 1522c0,32 0,4 0,12 0,65 1,132 -65,190l0 0 0 0c-23,20 -64,36 -109,48 -48,12 -102,19 -145,19 -42,0 -96,-8 -144,-21 -48,-12 -91,-30 -113,-48l0 0 0 0c-64,-57 -64,-120 -63,-185 0,-2 0,4 0,-16 0,-29 12,-41 38,-41 12,0 24,5 42,13 38,17 112,50 239,50 127,0 201,-33 239,-50 18,-8 30,-13 42,-13 26,0 38,12 38,41zm-107 154c37,-33 42,-76 43,-119 -45,20 -125,52 -256,52 -131,0 -211,-32 -256,-52 0,43 4,85 42,118l0 0c15,12 48,25 87,35 43,11 90,18 128,18 38,0 86,-6 129,-17 37,-9 68,-21 84,-35l0 0z"></path>
   <path class="fil0" d="M760 1397l0 -31 -5 -2c-50,-21 -160,-68 -179,-75 -3,-1 -6,-2 -8,-4l0 0c-1,0 -1,-1 -2,-1 -4,-4 -8,-8 -10,-14 -9,-19 -16,-51 -19,-87 -3,-37 -4,-82 -1,-124 -81,-103 -117,-209 -117,-309 0,-68 17,-133 47,-192 30,-59 74,-112 128,-156 108,-88 258,-143 430,-143 171,0 322,55 430,143 54,44 98,97 128,156 30,59 47,124 47,192 0,100 -36,206 -117,309 3,42 2,87 -1,124 -4,50 -15,91 -30,102 -3,2 -6,4 -10,5 -23,8 -129,54 -178,74l-5 2 0 31 0 0c0,50 -72,79 -165,89 -31,3 -64,5 -98,5 -34,0 -68,-2 -98,-5 -93,-10 -167,-39 -167,-89l0 0zm64 -53l0 53 0 0c0,10 48,19 110,26 29,3 61,5 92,5 31,0 62,-2 92,-5 61,-7 108,-16 108,-26l0 0 0 -53c0,-18 14,-32 32,-32 6,0 1,-3 12,-8 45,-19 141,-60 176,-74 0,-5 1,-25 3,-54 3,-38 3,-84 0,-125 -1,-8 1,-17 7,-24 77,-94 111,-190 111,-279 0,-58 -14,-113 -40,-163 -26,-51 -64,-97 -112,-136 -97,-79 -233,-129 -389,-129 -156,0 -292,49 -389,129 -48,39 -86,85 -112,136 -26,50 -40,105 -40,163 0,89 34,185 111,279l0 0c5,6 8,14 7,23 -4,41 -3,88 0,126 2,29 3,49 3,54 35,13 131,54 176,74 11,5 6,8 12,8 18,0 32,14 32,32zm142 -126c4,17 14,28 27,35 9,5 20,7 31,7 11,0 22,-2 31,-7 13,-7 23,-18 27,-35 -2,-28 -32,-105 -58,-166 -8,18 -16,38 -23,59 -18,46 -33,90 -35,108zm-3 91c-29,-15 -52,-42 -60,-80 -1,-3 -1,-5 -1,-8 0,-25 18,-79 39,-133 19,-50 42,-102 53,-128 3,-8 9,-15 18,-19 16,-7 35,1 42,17 3,8 6,14 8,20 27,64 84,197 84,243l0 0c0,2 0,4 -1,6 -8,39 -31,67 -61,83 -19,10 -40,15 -61,15 -21,0 -42,-5 -61,-15zm-4 -445c0,63 -48,102 -110,118 -21,6 -45,8 -68,8 -23,0 -46,-3 -68,-8 -62,-16 -110,-55 -110,-118 0,-67 51,-113 116,-133 22,-7 46,-10 69,-11 24,0 48,3 69,10 58,18 102,62 102,134zm-126 56c35,-9 62,-28 62,-56 0,-39 -25,-63 -57,-73 -15,-5 -32,-7 -49,-7 -17,0 -35,3 -51,8 -39,12 -70,37 -70,72 0,28 27,47 62,56 16,4 34,6 52,6 18,0 35,-2 52,-6zm319 -56c0,28 27,47 62,56 16,4 34,6 52,6l0 0c18,0 36,-2 52,-6 35,-9 62,-28 62,-56 0,-35 -31,-60 -70,-72 -16,-5 -34,-8 -51,-8 -17,0 -34,2 -49,7 -33,10 -58,34 -58,73l0 0zm46 118c-62,-16 -110,-55 -110,-118l0 0c0,-73 44,-116 102,-134 22,-7 45,-10 69,-10 24,0 47,4 69,11 64,20 116,66 116,133 0,63 -48,102 -110,118 -22,6 -45,9 -68,9l0 0c-23,0 -46,-3 -68,-8z"></path>
  </g>
 </g>
 <rect class="fil1" width="2048" height="2048"></rect>
</svg>