<svg xmlns="http://www.w3.org/2000/svg" xmlns:xlink="http://www.w3.org/1999/xlink" xml:space="preserve" width="2048px" height="2048px" style="shape-rendering:geometricPrecision; text-rendering:geometricPrecision; image-rendering:optimizeQuality; fill-rule:evenodd; clip-rule:evenodd" viewBox="0 0 2048 2048">
 <defs>
  <style type="text/css">
   <![CDATA[
    .fil1 {fill:none}
    .fil0 {fill:#212121;fill-rule:nonzero}
   ]]>
  </style>
 </defs>
 <g id="Layer_x0020_1">
  <metadata id="CorelCorpID_0Corel-Layer"></metadata>
  <g id="_516226856">
   <path class="fil0" d="M591 568l237 -299c6,-8 16,-12 25,-12l0 0 342 0c11,0 21,6 27,15l236 299c7,9 9,20 5,30l0 0 -106 301 -71 862c-1,17 -15,29 -32,29l0 0 -460 0c-17,0 -31,-13 -32,-30l-71 -861 -106 -301c-4,-12 -1,-24 7,-32zm277 -247l-218 275 101 286c1,3 2,6 2,10l69 836 401 0 69 -836 0 0c0,-3 1,-5 2,-8l102 -288 -218 -275 -311 0z"></path>
   <g>
    <polygon class="fil0" points="992,1056 992,474 1056,474 1056,1056 "></polygon>
    <polygon class="fil0" points="860,600 1188,600 1188,664 860,664 "></polygon>
   </g>
  </g>
 </g>
 <rect class="fil1" width="2048" height="2048"></rect>
</svg>