<svg xmlns="http://www.w3.org/2000/svg" xmlns:xlink="http://www.w3.org/1999/xlink" xml:space="preserve" width="2048px" height="2048px" style="shape-rendering:geometricPrecision; text-rendering:geometricPrecision; image-rendering:optimizeQuality; fill-rule:evenodd; clip-rule:evenodd" viewBox="0 0 2048 2048">
 <defs>
  <style type="text/css">
   <![CDATA[
    .fil1 {fill:none}
    .fil0 {fill:#212121;fill-rule:nonzero}
   ]]>
  </style>
 </defs>
 <g id="Layer_x0020_1">
  <metadata id="CorelCorpID_0Corel-Layer"></metadata>
  <g id="_516228368">
   <g>
    <g>
     <path class="fil0" d="M1024 586c74,0 141,9 193,43 54,35 87,95 87,193 0,94 -31,186 -81,253 -50,68 -120,112 -198,112 -78,0 -148,-44 -198,-112 -50,-67 -81,-159 -81,-253 0,-99 33,-158 87,-193 51,-34 119,-43 193,-43zm157 96c-38,-25 -95,-32 -157,-32 -63,0 -119,7 -157,32 -36,24 -58,66 -58,140 0,81 26,159 68,215 39,52 91,86 147,86 56,0 108,-34 147,-86 42,-57 68,-135 68,-215 0,-74 -22,-117 -58,-140z"></path>
     <path class="fil0" d="M810 687c-8,-16 -2,-35 14,-43 16,-8 35,-2 43,14 3,7 5,10 7,13 13,26 29,60 65,76 1,0 3,1 5,2 7,3 15,7 24,9 51,15 70,8 100,-1 16,-5 33,-11 57,-16 94,-20 130,40 161,92 3,5 5,9 7,11 9,15 4,35 -11,44 -15,9 -35,4 -44,-11 -3,-5 -5,-9 -7,-12 -20,-34 -43,-73 -93,-62 -21,4 -36,10 -50,14 -41,13 -67,22 -137,2 -14,-4 -24,-9 -33,-13 -1,0 -2,-1 -4,-2 -57,-26 -79,-71 -96,-107 -3,-6 -5,-11 -6,-12z"></path>
     <path class="fil0" d="M877 779c-6,-17 3,-35 20,-41 17,-6 35,3 41,20 24,70 -16,86 -64,104 -16,6 -34,13 -44,24 -4,4 -6,8 -7,13 -2,5 -2,11 -1,16 3,17 -10,34 -27,36 -17,3 -34,-10 -36,-27 -2,-14 -1,-29 4,-44 4,-13 11,-27 22,-38 20,-21 45,-31 68,-39 16,-6 30,-12 26,-23z"></path>
    </g>
    <path class="fil0" d="M1443 1600c0,-2 1,-3 1,-5 1,-10 2,-21 2,-32 0,-72 -29,-143 -79,-202 -47,-56 -112,-102 -188,-129l-132 132c-12,12 -33,12 -45,0l-132 -132c-76,27 -141,73 -188,129 -50,59 -79,130 -79,202 0,12 1,22 2,32 0,2 1,3 1,5l837 0zm64 4c-2,12 -4,24 -8,35 -3,14 -16,25 -31,25l-887 0 0 0c-14,0 -26,-9 -30,-23 -4,-12 -6,-25 -8,-38 -2,-13 -3,-27 -3,-41 0,-88 35,-172 94,-243 58,-69 139,-124 234,-154 12,-5 25,-2 35,7l123 123 123 -123 0 0c8,-8 20,-12 32,-8 96,30 178,85 237,155 59,70 94,155 94,243 0,14 -1,28 -3,41z"></path>
   </g>
   <path class="fil0" d="M450 256l1148 0 32 0 0 32 0 1472 0 32 -32 0 -1148 0 -32 0 0 -32 0 -1472 0 -32 32 0zm1116 64l-1084 0 0 1408 1084 0 0 -1408z"></path>
   <path class="fil0" d="M553 368l943 0 16 0 0 16 0 1280 0 16 -16 0 -943 0 -16 0 0 -16 0 -1280 0 -16 16 0zm927 32l-911 0 0 1248 911 0 0 -1248z"></path>
  </g>
 </g>
 <rect class="fil1" width="2048" height="2048"></rect>
</svg>