<svg xmlns="http://www.w3.org/2000/svg" xmlns:xlink="http://www.w3.org/1999/xlink" xml:space="preserve" width="2048px" height="2048px" style="shape-rendering:geometricPrecision; text-rendering:geometricPrecision; image-rendering:optimizeQuality; fill-rule:evenodd; clip-rule:evenodd" viewBox="0 0 2048 2048">
 <defs>
  <style type="text/css">
   <![CDATA[
    .fil1 {fill:none}
    .fil0 {fill:#212121;fill-rule:nonzero}
   ]]>
  </style>
 </defs>
 <g id="Layer_x0020_1">
  <metadata id="CorelCorpID_0Corel-Layer"></metadata>
  <path class="fil0" d="M1230 823c0,-18 14,-32 32,-32 18,0 32,14 32,32 0,94 -30,186 -78,253 -49,68 -116,113 -192,113 -76,0 -143,-44 -192,-113 -48,-67 -78,-159 -78,-253 0,-18 14,-32 32,-32 18,0 32,14 32,32 0,81 25,159 66,216 37,52 86,86 140,86 53,0 103,-34 140,-86 41,-57 66,-135 66,-216z"></path>
  <path class="fil0" d="M1443 1600c0,-2 1,-3 1,-5 1,-10 2,-21 2,-32 0,-72 -29,-143 -79,-202 -47,-56 -112,-102 -188,-129 -1,1 -2,2 -3,3 -44,41 -98,60 -152,60 -54,0 -107,-20 -151,-60 -1,-1 -2,-2 -3,-3 -76,27 -141,73 -188,129 -50,59 -79,130 -79,202 0,12 1,22 2,32 0,2 1,3 1,5l837 0zm64 4c-2,12 -4,24 -8,35 -3,14 -16,25 -31,25l-887 0 0 0c-14,0 -26,-9 -30,-23 -4,-12 -6,-25 -8,-38 -2,-13 -3,-27 -3,-41 0,-88 35,-172 94,-243 58,-70 141,-125 237,-155l0 0c11,-3 24,0 33,9 4,4 8,9 14,13 32,29 71,44 109,44 38,0 77,-14 109,-44 4,-4 8,-8 13,-13l0 0c8,-9 21,-13 33,-9 96,30 178,85 237,155 59,70 94,155 94,243 0,14 -1,28 -3,41z"></path>
  <path class="fil0" d="M450 256l1148 0 32 0 0 32 0 1472 0 32 -32 0 -1148 0 -32 0 0 -32 0 -1472 0 -32 32 0zm1116 64l-1084 0 0 1408 1084 0 0 -1408z"></path>
  <path class="fil0" d="M553 368l943 0 16 0 0 16 0 1280 0 16 -16 0 -943 0 -16 0 0 -16 0 -1280 0 -16 16 0zm927 32l-911 0 0 1248 911 0 0 -1248z"></path>
  <path class="fil0" d="M1119 524c0,-18 15,-32 33,-31 18,0 32,15 31,33 -1,32 -6,61 -12,86 -7,25 -15,47 -23,66 -47,115 -134,120 -221,126 -47,3 -94,6 -127,30 -16,12 -35,30 -45,55 -10,26 -12,62 7,109 6,16 -2,35 -18,41 -16,6 -35,-2 -41,-18 -25,-64 -22,-115 -7,-155 15,-40 43,-67 67,-84 49,-35 105,-38 161,-42 68,-4 134,-8 166,-86 7,-16 14,-36 20,-59 6,-22 10,-46 10,-71z"></path>
  <path class="fil0" d="M1097 688c-6,-16 2,-35 19,-41 16,-6 35,2 41,19 30,81 70,86 106,90l0 0 0 0c52,6 98,11 123,104 4,17 -6,34 -23,39 -17,4 -34,-6 -39,-23 -13,-51 -39,-54 -68,-57l0 0c-54,-6 -114,-13 -158,-131z"></path>
  <path class="fil0" d="M758 1275c-3,17 -20,29 -37,26 -17,-3 -29,-20 -26,-37 3,-17 6,-29 10,-42 7,-28 14,-55 11,-112 -3,-60 -14,-88 -24,-113 -11,-29 -21,-54 -20,-106 1,-73 25,-119 46,-161 14,-27 27,-52 30,-81 9,-88 69,-146 146,-176 42,-16 90,-24 138,-24 48,0 96,9 138,25 81,31 143,90 152,175 3,29 14,50 25,73 18,37 37,76 38,149 1,52 -12,82 -25,115 -12,30 -26,64 -29,123 -3,52 8,79 21,111 7,18 15,38 22,63 4,17 -6,34 -23,39 -17,4 -34,-6 -39,-23 -6,-21 -13,-39 -19,-55 -15,-39 -29,-73 -25,-138 4,-71 20,-110 34,-144 11,-27 21,-52 21,-90 -1,-58 -17,-91 -32,-122 -14,-28 -26,-54 -31,-94 -6,-58 -52,-100 -112,-122 -36,-14 -76,-21 -116,-21 -40,0 -80,6 -115,20 -57,22 -100,63 -106,123 -4,40 -20,71 -36,103 -19,36 -39,76 -40,133 -1,39 7,59 16,82 11,30 24,63 28,133 4,67 -5,98 -13,131 -3,12 -6,24 -9,37z"></path>
 </g>
 <rect class="fil1" width="2048" height="2048"></rect>
</svg>