<svg xmlns="http://www.w3.org/2000/svg" xmlns:xlink="http://www.w3.org/1999/xlink" xml:space="preserve" width="2048px" height="2048px" style="shape-rendering:geometricPrecision; text-rendering:geometricPrecision; image-rendering:optimizeQuality; fill-rule:evenodd; clip-rule:evenodd" viewBox="0 0 2048 2048">
 <defs>
  <style type="text/css">
   <![CDATA[
    .fil1 {fill:none}
    .fil0 {fill:#212121;fill-rule:nonzero}
   ]]>
  </style>
 </defs>
 <g id="Layer_x0020_1">
  <metadata id="CorelCorpID_0Corel-Layer"></metadata>
  <path class="fil0" d="M644 256l814 0c18,0 32,14 32,32l0 1164c0,18 -14,32 -32,32l-814 0c-32,0 -61,12 -84,31 -23,20 -39,47 -43,78 -3,17 -19,30 -36,27 -17,-2 -28,-17 -27,-34l-2 -1138 0 0c0,-53 22,-101 57,-136 35,-35 83,-57 136,-57zm782 64l-782 0c-35,0 -67,14 -91,38 -23,23 -38,55 -38,91l0 0 2 1020c1,0 1,-1 2,-1 34,-29 78,-47 125,-47l782 0 0 -1100z"></path>
  <path class="fil0" d="M452 1600c0,-18 14,-32 32,-32 18,0 32,14 32,32 0,35 14,67 38,91 23,23 55,38 91,38l888 0 0 -1286 -66 0c-18,0 -32,-14 -32,-32 0,-18 14,-32 32,-32l98 0c18,0 32,14 32,32l0 1350c0,18 -14,32 -32,32l-920 0c-53,0 -101,-22 -136,-57 -35,-35 -57,-83 -57,-136z"></path>
  <path class="fil0" d="M640 316c0,-18 14,-32 32,-32 18,0 32,14 32,32l0 1101c0,18 -14,32 -32,32 -18,0 -32,-14 -32,-32l0 -1101z"></path>
  <path class="fil0" d="M1350 1457c-3,-17 9,-34 26,-37 17,-3 34,9 37,26l54 308c3,17 -9,34 -26,37 -17,3 -34,-9 -37,-26l-54 -308z"></path>
  <polygon class="fil0" points="946,1057 1185,1057 1185,1105 946,1105 "></polygon>
  <polygon class="fil0" points="858,1148 1273,1148 1273,1196 858,1196 "></polygon>
  <polygon class="fil0" points="1041,983 1041,567 1089,567 1089,983 "></polygon>
  <polygon class="fil0" points="946,639 1185,639 1185,687 946,687 "></polygon>
 </g>
 <rect class="fil1" width="2048" height="2048"></rect>
</svg>