<svg xmlns="http://www.w3.org/2000/svg" xmlns:xlink="http://www.w3.org/1999/xlink" xml:space="preserve" width="2048px" height="2048px" style="shape-rendering:geometricPrecision; text-rendering:geometricPrecision; image-rendering:optimizeQuality; fill-rule:evenodd; clip-rule:evenodd" viewBox="0 0 2048 2048">
 <defs>
  <style type="text/css">
   <![CDATA[
    .fil1 {fill:none}
    .fil0 {fill:#212121;fill-rule:nonzero}
   ]]>
  </style>
 </defs>
 <g id="Layer_x0020_1">
  <metadata id="CorelCorpID_0Corel-Layer"></metadata>
  <g id="_516207728">
   <path class="fil0" d="M1069 727c-12,-6 -16,-21 -10,-32 6,-12 21,-16 32,-10 17,9 32,19 47,31 15,12 28,25 40,39 8,10 7,25 -3,34 -10,8 -25,7 -34,-3 -10,-12 -21,-23 -34,-33 -12,-10 -25,-18 -39,-26zm111 122c-5,-12 1,-26 13,-31 12,-5 26,1 31,13 7,17 12,35 16,53 4,18 5,37 5,56 0,76 0,-20 0,22 0,170 0,337 126,628 4,10 1,21 -6,28l0 0c-126,107 -272,167 -417,167 -136,0 -272,-52 -391,-168 -7,-7 -9,-18 -5,-27 22,-54 41,-105 56,-152 15,-47 27,-90 36,-130 3,-13 16,-21 29,-18 13,3 21,16 18,29 -10,42 -22,86 -37,135 -14,43 -31,90 -52,141 107,99 226,143 346,143 129,0 258,-52 373,-144 -123,-290 -123,-458 -122,-630 0,13 0,41 0,-23 0,-16 -2,-31 -4,-46 -3,-16 -8,-30 -13,-44zm-466 340c-2,13 -14,23 -27,21 -13,-2 -23,-14 -21,-27 5,-44 8,-85 10,-124 1,-38 1,-78 1,-119 0,-54 15,-105 42,-149 27,-45 67,-82 113,-106 12,-6 26,-2 32,10 6,12 2,26 -10,32 -39,20 -72,51 -94,88 -22,36 -35,79 -35,124 0,39 0,77 -1,120 -1,42 -4,84 -10,129z"></path>
   <path class="fil0" d="M961 264c53,0 101,40 137,92 46,66 75,154 75,203 0,48 -26,100 -68,139 -38,35 -88,59 -144,59 -56,0 -106,-24 -144,-59 -42,-39 -68,-91 -68,-139 0,-49 29,-137 75,-203 36,-52 83,-92 137,-92zm97 119c-28,-40 -62,-71 -97,-71 -35,0 -69,31 -97,71 -41,58 -66,135 -66,176 0,35 20,74 53,104 29,27 69,46 111,46 43,0 82,-19 111,-46 32,-30 53,-69 53,-104 0,-41 -26,-118 -66,-176z"></path>
   <path class="fil0" d="M961 410c34,0 65,15 87,39 22,23 35,56 35,91 0,36 -14,68 -35,91 -22,24 -53,39 -87,39 -34,0 -65,-15 -87,-39 -22,-23 -35,-56 -35,-91 0,-36 14,-68 35,-91 22,-24 53,-39 87,-39zm63 60c-16,-17 -39,-28 -63,-28 -25,0 -47,11 -63,28 -17,18 -27,42 -27,70 0,27 10,52 27,70 16,17 39,28 63,28 25,0 47,-11 63,-28 17,-18 27,-42 27,-70 0,-27 -10,-52 -27,-70z"></path>
   <path class="fil0" d="M1593 383l54 59c9,10 8,25 -2,34l-39 36c-9,8 -23,8 -32,0l0 0c-10,-8 -20,-17 -30,-24 -11,-8 -21,-15 -32,-22 -11,-7 -15,-22 -8,-33 1,-2 3,-4 5,-6l51 -46c10,-9 25,-8 34,2zm2 74l-22 -24 -11 10c3,2 6,4 9,7 6,4 11,9 17,13l6 -5zm-91 147l-1147 1014c-10,9 -25,8 -34,-2l0 0 -53 -59c-9,-10 -8,-25 2,-34l0 0 0 0 1136 -1004c8,-7 20,-8 29,-2 12,7 24,15 35,23 12,9 23,17 34,26 10,8 11,24 3,34 -1,1 -2,3 -4,4zm-1161 963l1110 -981c-3,-2 -6,-4 -9,-7 -6,-4 -12,-8 -18,-12l-1104 976 22 24z"></path>
   <path class="fil0" d="M1473 391c132,58 228,165 276,290 48,125 49,268 -9,400 -8,18 -17,35 -27,52 -10,17 -21,33 -32,49 -8,11 -23,13 -33,5 -8,-6 -12,-17 -9,-26l0 0c36,-117 30,-239 -13,-347 -42,-108 -120,-202 -226,-263 -11,-6 -15,-20 -10,-31l51 -116c5,-12 19,-18 32,-12zm231 307c-41,-106 -120,-198 -229,-253l-33 75c106,66 185,164 229,276 28,72 42,150 39,229 38,-110 34,-225 -6,-327z"></path>
   <path class="fil0" d="M836 1185c-9,-10 -8,-25 2,-34 10,-9 25,-8 34,2l101 111c9,10 8,25 -2,34 -10,9 -25,8 -34,-2l-101 -111z"></path>
  </g>
 </g>
 <rect class="fil1" width="2048" height="2048"></rect>
</svg>