<svg xmlns="http://www.w3.org/2000/svg" xmlns:xlink="http://www.w3.org/1999/xlink" xml:space="preserve" width="2048px" height="2048px" style="shape-rendering:geometricPrecision; text-rendering:geometricPrecision; image-rendering:optimizeQuality; fill-rule:evenodd; clip-rule:evenodd" viewBox="0 0 2048 2048">
 <defs>
  <style type="text/css">
   <![CDATA[
    .fil1 {fill:none}
    .fil0 {fill:#212121;fill-rule:nonzero}
   ]]>
  </style>
 </defs>
 <g id="Layer_x0020_1">
  <metadata id="CorelCorpID_0Corel-Layer"></metadata>
  <g id="_514949856">
   <g>
    <g>
     <path class="fil0" d="M1300 434c14,-11 34,-8 45,6 11,14 8,34 -6,45 -21,16 -37,33 -48,51 -10,16 -15,33 -15,51 0,18 6,36 16,52 11,18 28,36 50,51 92,55 169,133 222,226 51,90 81,195 81,306 0,117 -33,227 -90,321 -59,97 -143,176 -244,229 -4,2 -7,3 -11,3l0 0c-86,10 -174,16 -266,16 -92,1 -187,-4 -285,-16 -5,-1 -10,-2 -13,-5 -99,-53 -183,-131 -241,-227 -57,-94 -90,-203 -90,-321 0,-111 29,-216 81,-306 53,-93 130,-171 222,-226 22,-16 39,-33 50,-51 10,-17 16,-34 16,-52 0,-18 -5,-35 -15,-51 -11,-18 -27,-35 -48,-51 -14,-10 -17,-30 -7,-45 10,-14 30,-17 45,-7 28,21 50,44 65,69 16,26 24,54 24,83 0,30 -9,59 -25,86 -16,26 -39,49 -67,70 -1,1 -2,2 -4,2 -83,49 -152,120 -200,203 -46,81 -72,175 -72,275 0,105 29,204 80,288 52,85 125,155 213,202 95,11 185,16 272,15 86,-1 171,-6 253,-15 88,-47 162,-117 213,-202 51,-84 80,-182 80,-288 0,-100 -26,-194 -72,-275 -48,-84 -117,-154 -200,-203l0 0c-1,0 -2,-1 -2,-1 -29,-21 -52,-45 -69,-71 -17,-27 -25,-56 -25,-86 0,-29 8,-57 24,-83 15,-25 37,-49 65,-69z"></path>
     <path class="fil0" d="M1024 355c86,0 163,7 220,18 71,14 115,39 115,73 0,34 -44,59 -115,73 -57,11 -135,18 -220,18 -86,0 -163,-7 -220,-18 -71,-14 -115,-39 -115,-73 0,-34 44,-59 115,-73 57,-11 135,-18 220,-18zm208 81c-53,-10 -126,-17 -208,-17 -82,0 -155,6 -208,17 -39,8 -63,9 -63,10 0,1 24,3 63,10 53,10 126,17 208,17 82,0 155,-6 208,-17 39,-8 63,-9 63,-10 0,-1 -24,-3 -63,-10z"></path>
    </g>
    <path class="fil0" d="M1035 428c0,13 -11,24 -24,24 -13,0 -24,-11 -24,-24l0 -124c0,-13 11,-24 24,-24 13,0 24,11 24,24l0 124z"></path>
    <path class="fil0" d="M987 320c-18,0 -32,-14 -32,-32 0,-18 14,-32 32,-32l48 0c18,0 32,14 32,32 0,18 -14,32 -32,32l-48 0z"></path>
   </g>
   <path class="fil0" d="M797 1040l453 0c9,0 16,7 16,16l0 69c28,12 48,27 61,43 11,14 17,29 17,44 0,15 -6,30 -18,44 -13,14 -32,27 -59,38l0 69c0,9 -7,16 -16,16l-453 0c-9,0 -16,-7 -16,-16l0 -69c-27,-11 -46,-24 -59,-38 -12,-14 -18,-28 -18,-44 0,-15 5,-30 17,-44 13,-16 33,-31 61,-43l0 -69c0,-9 7,-16 16,-16zm437 32l-421 0 0 64 0 0c0,6 -4,12 -10,15 -27,11 -47,24 -58,38 -7,8 -10,16 -10,24 0,8 4,15 10,23 11,12 29,23 55,33 7,2 12,8 12,15l0 64 421 0 0 -64 0 0c0,-7 4,-13 11,-15 27,-9 45,-21 56,-33 7,-8 10,-16 10,-23 0,-8 -3,-16 -10,-24 -11,-13 -30,-26 -57,-37 -6,-2 -11,-8 -11,-15l0 -64z"></path>
  </g>
 </g>
 <rect class="fil1" width="2048" height="2048"></rect>
</svg>