<svg xmlns="http://www.w3.org/2000/svg" xmlns:xlink="http://www.w3.org/1999/xlink" xml:space="preserve" width="2048px" height="2048px" style="shape-rendering:geometricPrecision; text-rendering:geometricPrecision; image-rendering:optimizeQuality; fill-rule:evenodd; clip-rule:evenodd" viewBox="0 0 2048 2048">
 <defs>
  <style type="text/css">
   <![CDATA[
    .fil1 {fill:none}
    .fil0 {fill:#212121;fill-rule:nonzero}
   ]]>
  </style>
 </defs>
 <g id="Layer_x0020_1">
  <metadata id="CorelCorpID_0Corel-Layer"></metadata>
  <g id="_514952928">
   <path class="fil0" d="M1035 311c6,12 1,26 -10,32 -12,6 -26,1 -32,-10 -7,-14 -16,-22 -27,-27 -14,-6 -30,-5 -48,0 -20,6 -40,18 -57,34 -30,27 -53,64 -59,104 -11,74 -64,95 -121,118l0 0 0 0c-15,6 -30,12 -44,19 -71,35 -98,72 -100,101 -1,9 1,18 5,25 4,7 9,13 15,16 10,6 22,7 31,0 11,-8 26,-6 33,5 8,11 6,26 -5,33 -26,19 -59,18 -85,2 -13,-8 -25,-20 -33,-35 -8,-15 -12,-32 -10,-51 4,-43 38,-95 127,-139 16,-8 32,-14 48,-21l0 0c44,-17 84,-33 91,-80 7,-51 37,-99 74,-133 23,-21 49,-36 75,-45 28,-9 56,-9 81,1 20,9 38,25 50,49z"></path>
   <path class="fil0" d="M1030 453c0,13 -10,24 -23,25 -13,0 -24,-10 -25,-23 0,-5 0,-32 0,-54 0,-16 1,-29 1,-34 4,-33 18,-70 41,-96 20,-23 48,-38 83,-38 96,0 126,53 160,115 26,47 55,100 129,128 48,19 113,45 164,84 55,42 92,98 76,173 -2,12 -8,22 -17,31 -8,8 -20,15 -32,19 -12,4 -26,4 -40,1 -17,-4 -34,-12 -50,-28 -9,-9 -9,-25 0,-34 9,-9 25,-9 34,0 9,9 18,14 26,15 6,1 12,1 17,-1 5,-1 9,-4 12,-7 2,-2 4,-4 4,-7 11,-53 -17,-94 -59,-126 -45,-35 -106,-60 -152,-77 -89,-35 -123,-95 -153,-149 -27,-48 -50,-90 -118,-90 -20,0 -36,9 -48,22 -17,19 -26,45 -30,70 0,3 -1,15 -1,28 0,22 0,47 0,52z"></path>
   <path class="fil0" d="M1402 703c-13,-1 -23,-13 -22,-26 1,-13 13,-23 26,-22 64,6 109,37 132,76 11,18 17,38 18,57 1,20 -3,40 -13,58 -18,32 -53,58 -109,64 -60,7 -78,39 -97,73 -25,44 -52,91 -141,110 -20,4 -41,5 -60,2 -30,-4 -57,-17 -79,-36 -22,-20 -37,-46 -44,-78 -4,-19 -5,-41 -2,-64 2,-13 14,-22 27,-20 13,2 22,14 20,27 -2,17 -2,33 1,47 5,22 15,39 29,52 14,13 33,21 53,24 14,2 28,1 43,-2 68,-15 89,-52 109,-87 25,-45 49,-87 133,-97 38,-5 61,-20 72,-40 5,-10 8,-21 7,-32 -1,-12 -4,-24 -11,-35 -16,-27 -49,-49 -96,-53z"></path>
   <path class="fil0" d="M659 705c13,2 22,14 20,27 -2,13 -14,22 -27,20 -4,-1 -8,-1 -12,0 -11,1 -21,6 -29,13 -8,8 -14,19 -16,31 -1,5 -1,10 -1,16 4,50 55,74 112,101 15,7 30,14 44,21 50,26 81,62 108,93 22,25 40,47 61,49 23,3 49,-3 70,-17 17,-11 31,-28 36,-51 3,-13 16,-21 29,-18 13,3 21,16 18,29 -8,36 -30,63 -57,81 -31,20 -69,28 -102,24 -39,-5 -63,-32 -92,-65 -24,-27 -51,-59 -94,-81 -15,-8 -29,-14 -42,-21 -71,-34 -133,-63 -139,-141 -1,-9 0,-18 1,-27 4,-23 14,-43 29,-58 16,-15 36,-25 58,-27 7,-1 15,0 23,1z"></path>
   <path class="fil0" d="M1007 886c-2,-13 -1,-25 0,-38 3,-19 9,-38 18,-56 -54,-42 -140,-82 -220,-102 -60,-15 -115,-18 -148,-2 25,50 73,95 133,129 64,37 141,62 216,69zm48 -32c-1,11 -1,21 1,32 54,-8 130,-48 199,-100 62,-47 117,-103 143,-156 -32,0 -67,7 -103,19 -57,18 -115,49 -160,86 -43,36 -74,77 -79,119zm-4 -103c15,-19 32,-37 52,-53 50,-41 113,-75 176,-95 55,-17 109,-25 155,-19 13,2 22,14 21,27 0,2 -1,3 -1,5 -21,71 -91,148 -171,208 -88,67 -190,114 -254,111 -91,-4 -185,-33 -262,-77 -75,-43 -135,-102 -161,-170 -4,-9 -1,-20 6,-26l0 0c42,-38 121,-39 205,-18 84,21 175,63 234,108z"></path>
   <path class="fil0" d="M1203 668c-4,13 -17,20 -30,16 -13,-4 -20,-17 -16,-30 13,-40 9,-60 3,-98 -2,-11 -4,-23 -6,-38 -2,-13 7,-25 21,-27 13,-2 25,7 27,21 2,14 4,26 6,37 8,46 11,69 -5,120z"></path>
   <path class="fil0" d="M858 651c5,12 0,26 -12,32 -12,5 -26,0 -32,-12 -22,-50 -22,-69 -20,-113 0,-11 1,-23 1,-37 0,-13 11,-24 24,-24 13,0 24,11 24,24 0,16 -1,28 -1,38 -1,36 -2,51 16,92z"></path>
   <path class="fil0" d="M899 495c21,2 43,5 66,8 69,9 144,18 174,7 -47,-23 -104,-35 -160,-32 -28,2 -55,7 -80,17zm60 55c-59,-8 -114,-14 -130,-6l0 0c-9,4 -20,3 -27,-4 -10,-9 -10,-24 -1,-34 46,-50 110,-73 177,-76 74,-4 152,16 210,51 10,5 15,16 13,26 -16,71 -134,56 -240,42z"></path>
  </g>
  <path class="fil0" d="M1014 1196c2,-13 15,-22 28,-19 13,2 22,15 19,28 -7,35 -15,70 -24,104 -9,37 -18,73 -23,106 -10,61 -22,125 -37,189 -15,65 -34,131 -58,196 -5,12 -18,19 -31,14 -12,-5 -19,-18 -14,-31 23,-62 42,-126 57,-190 15,-64 27,-127 36,-186 6,-35 15,-72 24,-110 8,-34 17,-69 23,-102z"></path>
  <path class="fil0" d="M982 1578c-6,12 -21,16 -32,10 -12,-6 -16,-21 -10,-32 14,-26 37,-51 64,-73 28,-23 61,-43 93,-56 60,-24 153,-29 235,-13 74,15 141,46 173,97 7,11 4,26 -8,33 -11,7 -26,4 -33,-8 -24,-39 -80,-64 -141,-76 -74,-15 -157,-11 -208,10 -28,11 -57,28 -81,48 -22,18 -41,39 -52,59z"></path>
  <path class="fil0" d="M1216 1390c25,24 9,47 -9,74 -12,17 -26,37 -15,49 9,10 46,2 89,-7 64,-14 137,-29 193,6 -4,-10 -9,-21 -15,-33 -16,-32 -42,-57 -73,-76 -35,-21 -75,-34 -113,-36 -35,-2 -66,-2 -79,4 -1,0 7,5 23,19zm-49 47c6,-9 21,-8 16,-12 -53,-50 -48,-79 -12,-97 22,-11 62,-11 103,-9 45,3 93,17 135,43 38,23 71,55 91,96 11,22 19,40 24,59 6,19 9,38 9,61 1,9 -3,18 -12,23 -11,7 -26,3 -33,-9 -11,-19 -21,-26 -40,-39l0 0c-39,-26 -104,-13 -160,-1 -57,12 -107,23 -134,-8 -35,-40 -10,-77 11,-108z"></path>
  <path class="fil0" d="M1003 1411c6,12 2,26 -10,32 -12,6 -26,2 -32,-10 -11,-20 -30,-41 -52,-59 -25,-20 -53,-37 -81,-48 -52,-21 -134,-25 -208,-10 -62,12 -117,37 -141,76 -7,11 -22,15 -33,8 -11,-7 -15,-22 -8,-33 32,-51 99,-83 173,-97 83,-16 176,-11 235,13 32,13 65,33 93,56 27,22 50,47 64,73z"></path>
  <path class="fil0" d="M759 1281c-5,4 10,3 16,12 21,31 47,68 11,108 -27,31 -77,20 -134,8 -56,-12 -121,-26 -159,1l0 0 0 0c0,0 -1,1 -1,1 -19,13 -28,20 -39,38 -7,11 -21,15 -33,9 -9,-5 -13,-14 -12,-23 1,-23 4,-42 9,-61 6,-19 14,-38 24,-59 20,-40 53,-73 91,-96 42,-25 90,-40 135,-43 42,-2 81,-2 103,9 36,18 41,48 -12,97zm-24 39c-19,-27 -34,-50 -9,-74 16,-15 24,-19 23,-19 -13,-6 -45,-6 -79,-4 -37,2 -78,15 -113,36 -31,19 -58,45 -73,76 -6,12 -11,22 -15,33 56,-35 129,-19 193,-6 43,9 80,17 89,7 10,-12 -4,-32 -15,-49z"></path>
  <path class="fil0" d="M1101 1075c-1,-13 9,-25 22,-26 13,-1 25,9 26,22 4,46 -4,80 -20,104 -19,29 -49,43 -86,46 -39,4 -63,-11 -77,-35 -12,-21 -15,-48 -15,-75 0,-13 11,-24 24,-24 13,0 24,11 24,24 0,20 2,39 9,51 5,8 14,13 31,12 22,-2 40,-10 50,-26 10,-15 15,-39 12,-73z"></path>
 </g>
 <rect class="fil1" width="2048" height="2048"></rect>
</svg>