<svg xmlns="http://www.w3.org/2000/svg" xmlns:xlink="http://www.w3.org/1999/xlink" xml:space="preserve" width="2048px" height="2048px" style="shape-rendering:geometricPrecision; text-rendering:geometricPrecision; image-rendering:optimizeQuality; fill-rule:evenodd; clip-rule:evenodd" viewBox="0 0 2048 2048">
 <defs>
  <style type="text/css">
   <![CDATA[
    .fil1 {fill:none}
    .fil0 {fill:#212121;fill-rule:nonzero}
   ]]>
  </style>
 </defs>
 <g id="Layer_x0020_1">
  <metadata id="CorelCorpID_0Corel-Layer"></metadata>
  <path class="fil0" d="M1190 756l0 171 0 0c0,13 -11,24 -24,24l-284 0c-13,0 -24,-11 -24,-24l0 -1 0 -171c-2,4 -5,7 -7,11 -9,17 -15,36 -15,58l0 102 0 1c0,13 -11,24 -24,24l-83 0c-13,0 -24,-11 -24,-24l0 -1 0 -102c0,-145 83,-238 190,-279 41,-16 85,-23 129,-23 44,0 88,8 129,23 107,41 190,134 190,279l0 103 0 0c0,13 -11,24 -24,24l-83 0c-13,0 -24,-11 -24,-24l0 0 0 -103c0,-21 -6,-40 -15,-58 -2,-4 -4,-8 -7,-11zm-48 148l0 -206 0 0c0,-5 2,-10 5,-14 8,-11 23,-13 33,-5 23,17 44,39 59,66 13,24 21,51 21,81l0 79 35 0 0 -79c0,-122 -70,-200 -159,-234 -35,-13 -74,-20 -112,-20 -38,0 -77,7 -112,20 -89,34 -159,112 -159,234l0 79 35 0 0 -79c0,-30 8,-57 21,-81 14,-26 35,-48 57,-65 4,-4 10,-6 16,-6 13,0 24,11 24,24l0 206 236 0z"></path>
  <path class="fil0" d="M1024 264c32,0 61,13 82,34 21,21 34,50 34,82 0,32 -13,61 -34,82 -21,21 -50,34 -82,34 -32,0 -61,-13 -82,-34 -21,-21 -34,-50 -34,-82 0,-32 13,-61 34,-82 21,-21 50,-34 82,-34zm48 68c-12,-12 -29,-20 -48,-20 -19,0 -36,8 -48,20 -12,12 -20,29 -20,48 0,19 8,36 20,48 12,12 29,20 48,20 19,0 36,-8 48,-20 12,-12 20,-29 20,-48 0,-19 -8,-36 -20,-48z"></path>
  <polygon class="fil0" points="569,896 1479,896 1479,960 569,960 "></polygon>
  <path class="fil0" d="M696 896l655 0c18,0 32,14 32,32l0 128c0,18 -14,32 -32,32l-655 0c-18,0 -32,-14 -32,-32l0 -128c0,-18 14,-32 32,-32zm623 64l-591 0 0 64 591 0 0 -64z"></path>
  <path class="fil0" d="M696 1024l655 0c18,0 32,14 32,32 0,2 0,5 -1,7l-96 701c-2,16 -16,28 -32,28l0 0 -463 0c-17,0 -31,-13 -32,-30l-96 -702c-2,-17 10,-34 27,-36 1,0 3,0 4,0l0 0zm619 64l-582 0 87 640 408 0 87 -640z"></path>
  <g id="_514921368">
   <polygon class="fil0" points="1000,1481 1000,1225 1048,1225 1048,1481 "></polygon>
   <polygon class="fil0" points="932,1272 1116,1272 1116,1320 932,1320 "></polygon>
  </g>
  <polygon class="fil0" points="1008,726 1008,547 1040,547 1040,726 "></polygon>
 </g>
 <rect class="fil1" width="2048" height="2048"></rect>
</svg>