<svg xmlns="http://www.w3.org/2000/svg" xmlns:xlink="http://www.w3.org/1999/xlink" xml:space="preserve" width="2048px" height="2048px" style="shape-rendering:geometricPrecision; text-rendering:geometricPrecision; image-rendering:optimizeQuality; fill-rule:evenodd; clip-rule:evenodd" viewBox="0 0 2048 2048">
 <defs>
  <style type="text/css">
   <![CDATA[
    .fil1 {fill:none}
    .fil0 {fill:#212121;fill-rule:nonzero}
   ]]>
  </style>
 </defs>
 <g id="Layer_x0020_1">
  <metadata id="CorelCorpID_0Corel-Layer"></metadata>
  <g id="_514921560">
   <path class="fil0" d="M435 555l1177 0c9,0 17,4 23,10l83 83c6,6 9,14 9,23l0 0 0 103c0,18 -14,32 -32,32l-1344 0c-18,0 -32,-14 -32,-32l0 -103c0,-9 4,-17 10,-23l83 -83c6,-6 14,-9 23,-9l0 0zm1164 64l-1151 0 -65 65 0 58 1280 0 0 -58 -65 -65z"></path>
   <path class="fil0" d="M288 1284l1472 0c18,0 32,14 32,32l0 145c0,18 -14,32 -32,32l-1472 0c-18,0 -32,-14 -32,-32l0 -145c0,-18 14,-32 32,-32zm1440 64l-1408 0 0 81 1408 0 0 -81z"></path>
   <path class="fil0" d="M443 742l1162 0c18,0 32,14 32,32l0 542c0,18 -14,32 -32,32l-1162 0c-18,0 -32,-14 -32,-32l0 -542c0,-18 14,-32 32,-32zm1130 64l-1098 0 0 478 1098 0 0 -478z"></path>
   <g>
    <path class="fil0" d="M358 1061c-18,0 -32,-14 -32,-32 0,-18 14,-32 32,-32l72 0c18,0 32,14 32,32 0,18 -14,32 -32,32l-72 0z"></path>
    <path class="fil0" d="M1617 1061c-18,0 -32,-14 -32,-32 0,-18 14,-32 32,-32l72 0c18,0 32,14 32,32 0,18 -14,32 -32,32l-72 0z"></path>
   </g>
   <g>
    <polygon class="fil0" points="1000,1205 1000,885 1048,885 1048,1205 "></polygon>
    <polygon class="fil0" points="910,950 1138,950 1138,998 910,998 "></polygon>
   </g>
  </g>
 </g>
 <rect class="fil1" width="2048" height="2048"></rect>
</svg>