<svg xmlns="http://www.w3.org/2000/svg" xmlns:xlink="http://www.w3.org/1999/xlink" xml:space="preserve" width="2048px" height="2048px" style="shape-rendering:geometricPrecision; text-rendering:geometricPrecision; image-rendering:optimizeQuality; fill-rule:evenodd; clip-rule:evenodd" viewBox="0 0 2048 2048">
 <defs>
  <style type="text/css">
   <![CDATA[
    .fil1 {fill:none}
    .fil0 {fill:#212121;fill-rule:nonzero}
   ]]>
  </style>
 </defs>
 <g id="Layer_x0020_1">
  <metadata id="CorelCorpID_0Corel-Layer"></metadata>
  <path class="fil0" d="M388 1231l11 6c88,46 210,111 324,128 39,6 92,4 143,-5 46,-8 90,-22 118,-40 9,-6 19,-17 25,-28 1,-3 2,-5 3,-8 0,0 -1,0 -1,0 -2,-1 -33,7 -72,17 -68,17 -156,39 -216,23 -36,-9 -60,-26 -73,-44l0 0 0 0c-9,-13 -13,-26 -13,-40 0,-14 4,-27 12,-38 11,-16 28,-27 49,-32 11,-2 34,-9 64,-17 103,-28 287,-79 379,-82 191,-5 239,20 350,80 25,13 52,28 82,43 11,6 18,17 18,29l0 0 0 321c0,18 -14,32 -32,32 -4,0 -8,-1 -12,-2l0 0c-122,-51 -245,-27 -370,-3 -22,4 -44,9 -63,12 -81,14 -171,28 -243,36 -67,7 -120,10 -142,5 -46,-10 -126,-47 -205,-89 -95,-50 -189,-109 -219,-136l0 0 0 0c-35,-33 -49,-68 -47,-98 1,-16 6,-31 14,-43 8,-12 20,-22 34,-29 24,-11 54,-12 85,4zm-19 62l-11 -6c-11,-6 -21,-6 -28,-3 -3,1 -6,4 -8,6 -2,3 -3,7 -3,11 -1,13 7,29 27,48l0 0c26,24 115,78 206,126 75,40 150,75 189,83 14,3 61,0 121,-7 70,-8 159,-21 239,-35 23,-4 43,-8 62,-12 120,-23 239,-46 362,-9l0 -256c-26,-13 -47,-25 -66,-35 -101,-54 -144,-77 -318,-72 -84,2 -263,52 -364,80 -33,9 -57,16 -68,18 -5,1 -8,3 -10,6 0,1 -1,1 -1,2 0,1 1,2 2,4l0 0c5,7 17,14 37,19 45,12 124,-8 185,-23 51,-13 93,-23 115,-12 13,6 22,14 28,24 8,12 10,24 9,37 -1,11 -4,22 -9,32 -11,22 -30,43 -48,54 -36,23 -88,40 -142,49 -57,10 -118,13 -164,6 -125,-19 -252,-86 -344,-134z"></path>
  <path class="fil0" d="M1557 1121l201 -6c18,-1 32,13 33,31 0,1 0,1 0,2l1 450c0,18 -14,32 -32,32l0 0 0 0 0 0 -201 0c-18,0 -32,-14 -32,-32l0 -444c0,-17 14,-31 31,-32l0 0zm170 58l-137 4 0 381 138 0 -1 -386z"></path>
  <path class="fil0" d="M614 1359c0,18 -14,32 -32,32 -18,0 -32,-14 -32,-32l0 -349c0,-15 10,-27 24,-31l290 -111c16,-6 35,2 41,18 1,4 2,8 2,11l0 0 0 257c0,18 -14,32 -32,32 -18,0 -32,-14 -32,-32l0 -210 -229 88 0 327z"></path>
  <path class="fil0" d="M727 516c-13,14 -25,31 -35,49 -29,49 -46,102 -46,129 0,5 0,0 0,3l0 0c1,29 10,48 24,58 15,12 36,16 57,16 5,0 0,0 3,0 26,0 46,-8 60,-20 13,-11 20,-27 20,-45 0,-27 -16,-54 -34,-83 -20,-32 -41,-66 -49,-108zm-90 16c27,-45 63,-87 105,-110l0 0c6,-3 12,-4 19,-3 17,3 30,19 27,36 -8,55 18,96 41,135 23,37 44,72 44,117 0,37 -15,70 -42,93 -25,21 -59,34 -100,35 -6,0 -1,0 -4,0 -34,0 -69,-8 -97,-30 -28,-22 -47,-56 -48,-107l0 0c0,-5 0,-1 0,-4 0,-36 20,-103 55,-161z"></path>
  <path class="fil0" d="M696 803c0,-18 14,-32 32,-32 18,0 32,14 32,32l0 151c0,18 -14,32 -32,32 -18,0 -32,-14 -32,-32l0 -151z"></path>
 </g>
 <rect class="fil1" width="2048" height="2048"></rect>
</svg>