<svg xmlns="http://www.w3.org/2000/svg" xmlns:xlink="http://www.w3.org/1999/xlink" xml:space="preserve" width="2048px" height="2048px" style="shape-rendering:geometricPrecision; text-rendering:geometricPrecision; image-rendering:optimizeQuality; fill-rule:evenodd; clip-rule:evenodd" viewBox="0 0 2048 2048">
 <defs>
  <style type="text/css">
   <![CDATA[
    .fil1 {fill:none}
    .fil0 {fill:#212121;fill-rule:nonzero}
   ]]>
  </style>
 </defs>
 <g id="Layer_x0020_1">
  <metadata id="CorelCorpID_0Corel-Layer"></metadata>
  <path class="fil0" d="M1024 248c102,0 195,40 262,106 68,65 109,156 109,255l0 25 56 0c18,0 32,14 32,32l0 50c35,10 60,34 73,63 8,17 12,35 12,53 0,18 -4,36 -12,53 -13,29 -38,52 -73,63l0 50c0,18 -14,32 -32,32l-56 0 0 572 162 0c18,0 32,14 32,32l0 136c0,18 -14,32 -32,32l-1067 0c-18,0 -32,-14 -32,-32l0 -136c0,-18 14,-32 32,-32l162 0 0 -572 -56 0c-18,0 -32,-14 -32,-32l0 -50c-35,-10 -60,-34 -73,-63 -8,-17 -12,-35 -12,-53 0,-18 4,-36 12,-53 13,-29 38,-52 73,-63l0 -50c0,-18 14,-32 32,-32l56 0 0 -25c0,-99 42,-190 109,-255 67,-65 160,-106 262,-106zm217 151c-56,-54 -133,-87 -217,-87 -85,0 -162,33 -217,87 -56,54 -90,128 -90,209l0 57c0,18 -14,32 -32,32l-56 0 0 44 0 0c0,17 -13,31 -30,32 -25,2 -42,15 -50,31 -4,8 -6,17 -6,26 0,9 2,18 6,26 8,16 24,29 48,31 17,0 31,15 31,32l0 44 56 0c18,0 32,14 32,32l0 636c0,18 -14,32 -32,32l-162 0 0 72 1003 0 0 -72 -162 0c-18,0 -32,-14 -32,-32l0 -636c0,-18 14,-32 32,-32l56 0 0 -44 0 0c0,-17 13,-31 30,-32 25,-2 42,-15 50,-31 4,-8 6,-17 6,-26 0,-9 -2,-18 -6,-26 -8,-16 -24,-29 -48,-31 -17,0 -31,-15 -31,-32l0 -44 -56 0c-18,0 -32,-14 -32,-32l0 -57c0,-81 -34,-155 -90,-209z"></path>
  <polygon class="fil0" points="856,1096 1192,1096 1192,1144 856,1144 "></polygon>
  <polygon class="fil0" points="768,1192 1280,1192 1280,1240 768,1240 "></polygon>
  <polygon class="fil0" points="768,1290 1280,1290 1280,1338 768,1338 "></polygon>
  <path class="fil0" d="M1232 817c-19,35 -48,64 -82,84 -33,20 -72,31 -113,31 -62,0 -118,-25 -158,-66 -41,-41 -66,-97 -66,-158 0,-59 23,-113 60,-153 38,-40 90,-67 148,-71 13,-1 25,9 26,22 1,9 -4,18 -12,22l0 0c-23,14 -41,33 -54,56 -12,22 -19,47 -19,75 0,42 17,80 45,107 28,28 65,45 107,45 16,0 30,-2 44,-6 14,-4 28,-11 40,-19 11,-7 26,-4 33,7 5,8 5,17 1,25l0 0zm-107 43c1,0 1,-1 2,-1 -5,0 -9,1 -14,1 -55,0 -105,-22 -141,-59 -36,-36 -59,-86 -59,-141 0,-35 9,-69 26,-98 -11,8 -22,17 -31,27 -29,31 -47,74 -47,120 0,49 20,93 52,124 32,32 76,52 124,52 33,0 63,-9 89,-24z"></path>
 </g>
 <rect class="fil1" width="2048" height="2048"></rect>
</svg>