<svg xmlns="http://www.w3.org/2000/svg" xmlns:xlink="http://www.w3.org/1999/xlink" xml:space="preserve" width="2048px" height="2048px" style="shape-rendering:geometricPrecision; text-rendering:geometricPrecision; image-rendering:optimizeQuality; fill-rule:evenodd; clip-rule:evenodd" viewBox="0 0 2048 2048">
 <defs>
  <style type="text/css">
   <![CDATA[
    .fil1 {fill:none}
    .fil0 {fill:#212121;fill-rule:nonzero}
   ]]>
  </style>
 </defs>
 <g id="Layer_x0020_1">
  <metadata id="CorelCorpID_0Corel-Layer"></metadata>
  <g id="_514924440">
   <g>
    <path class="fil0" d="M960 777c151,0 293,30 417,82 129,55 237,134 314,229 10,12 9,29 0,41 -77,95 -185,174 -313,229 -123,52 -266,82 -417,82 -181,0 -292,-87 -388,-162 -65,-50 -121,-95 -184,-95 -18,0 -32,-14 -32,-32 0,-8 3,-16 9,-22l2 -2c148,-184 282,-350 594,-350zm392 141c-116,-49 -249,-77 -392,-77 -260,0 -386,132 -513,287 58,17 108,56 164,100 88,68 189,148 349,148 143,0 276,-28 392,-77 110,-47 203,-112 272,-190 -69,-78 -162,-144 -272,-190z"></path>
    <path class="fil0" d="M813 848c-13,4 -26,-3 -30,-15 -4,-13 3,-26 15,-30 32,-11 57,-43 74,-86 21,-53 29,-120 26,-185 -1,-13 9,-24 23,-25 13,-1 24,9 25,23 4,72 -6,146 -29,205 -22,56 -57,99 -104,114z"></path>
    <path class="fil0" d="M946 832c-13,4 -26,-4 -29,-17 -4,-13 4,-26 17,-29 32,-9 57,-36 74,-71 20,-43 28,-99 25,-152 -1,-13 9,-25 22,-26 13,-1 25,9 26,22 4,61 -6,125 -29,176 -22,48 -57,84 -104,97z"></path>
    <path class="fil0" d="M1084 838c-13,3 -26,-5 -29,-18 -3,-13 5,-26 18,-29 34,-7 60,-29 79,-58 22,-34 34,-77 33,-119 0,-13 11,-24 24,-24 13,0 24,11 24,24 0,51 -14,104 -41,145 -25,39 -62,68 -109,78z"></path>
    <path class="fil0" d="M1219 858c-13,3 -26,-6 -28,-19 -3,-13 6,-26 19,-28 36,-7 65,-27 87,-54 26,-31 41,-70 45,-108 1,-13 13,-23 26,-21 13,1 23,13 21,26 -5,47 -24,95 -56,133 -29,35 -68,61 -115,70z"></path>
    <path class="fil0" d="M1320 895c-13,-1 -23,-13 -22,-26 1,-13 13,-23 26,-22 33,3 63,-9 87,-30 28,-25 48,-62 57,-101 3,-13 16,-21 29,-18 13,3 21,16 18,29 -11,49 -36,95 -72,127 -33,29 -75,46 -123,42z"></path>
    <path class="fil0" d="M1447 949c-13,-3 -21,-16 -18,-29 3,-13 16,-21 29,-18 0,0 1,0 2,0 34,8 64,-1 87,-19 25,-20 42,-50 51,-85 0,-1 0,-2 1,-3 3,-13 16,-21 29,-18 13,3 21,16 18,29 0,1 0,2 -1,3 -11,44 -34,84 -67,110 -34,27 -78,40 -128,29 -1,0 -1,0 -2,-1z"></path>
   </g>
   <path class="fil0" d="M319 328c183,18 348,-8 508,-34 297,-48 575,-93 924,142 15,10 19,30 9,44 -8,12 -24,17 -37,12l0 0c-273,-96 -532,-45 -766,2 -81,16 -159,32 -235,41 -121,14 -212,12 -281,-12 -74,-26 -122,-74 -154,-150 -7,-16 1,-35 17,-42 5,-2 10,-3 15,-2l0 0zm518 29c-147,24 -298,48 -465,39 22,31 51,52 89,65 59,21 141,22 252,9 73,-9 150,-24 230,-40 176,-35 365,-72 566,-51 -239,-93 -450,-58 -673,-23z"></path>
   <path class="fil0" d="M995 781c76,0 145,31 195,81 50,50 81,119 81,195 0,76 -31,145 -81,195 -50,50 -119,81 -195,81 -76,0 -145,-31 -195,-81 -50,-50 -81,-119 -81,-195 0,-76 31,-145 81,-195 50,-50 119,-81 195,-81zm150 126c-38,-38 -91,-62 -150,-62 -59,0 -112,24 -150,62 -38,38 -62,91 -62,150 0,59 24,112 62,150 38,38 91,62 150,62 59,0 112,-24 150,-62 38,-38 62,-91 62,-150 0,-59 -24,-112 -62,-150z"></path>
   <path class="fil0" d="M445 1334c-11,13 -22,28 -31,44 -27,47 -44,97 -44,122 0,5 0,-1 0,3l0 0c1,27 9,44 22,54 14,11 33,15 54,15 5,0 0,0 3,0l0 0c24,0 43,-7 56,-18 12,-10 19,-25 19,-42 0,-25 -16,-50 -32,-78 -18,-30 -38,-61 -46,-100zm-86 11c26,-43 60,-83 101,-105l0 0c6,-3 12,-4 19,-3 17,3 30,19 27,36 -8,51 17,91 39,127 22,35 42,69 42,112 0,36 -15,67 -41,89 -24,20 -56,33 -96,34l0 0c-5,0 -1,0 -4,0 -33,0 -67,-8 -93,-28 -27,-21 -46,-54 -47,-103l0 0c0,-5 0,-1 0,-4 0,-34 19,-98 53,-154z"></path>
   <path class="fil0" d="M663 1616c-2,3 -3,5 -5,8 -16,28 -26,57 -26,71 0,5 0,-2 0,2 0,13 4,21 9,25 7,5 16,7 27,7l0 0c5,0 -2,0 2,0l0 0c12,0 22,-3 28,-9 5,-4 8,-10 8,-18 0,-12 -9,-27 -19,-43 -8,-14 -17,-28 -24,-44zm-60 -25c17,-29 40,-56 68,-71l0 0c6,-3 12,-4 19,-3 17,3 30,19 27,36 -4,28 10,51 23,72 15,24 29,46 28,77 0,26 -11,49 -30,65 -17,15 -40,23 -68,24l0 0c-5,0 0,0 -3,0l0 0c-23,0 -47,-6 -66,-20 -20,-15 -33,-39 -34,-75 0,-5 0,1 0,-3 0,-23 13,-66 35,-103z"></path>
  </g>
 </g>
 <rect class="fil1" width="2048" height="2048"></rect>
</svg>