<svg xmlns="http://www.w3.org/2000/svg" xmlns:xlink="http://www.w3.org/1999/xlink" xml:space="preserve" width="2048px" height="2048px" style="shape-rendering:geometricPrecision; text-rendering:geometricPrecision; image-rendering:optimizeQuality; fill-rule:evenodd; clip-rule:evenodd" viewBox="0 0 2048 2048">
 <defs>
  <style type="text/css">
   <![CDATA[
    .fil1 {fill:none}
    .fil0 {fill:#212121;fill-rule:nonzero}
   ]]>
  </style>
 </defs>
 <g id="Layer_x0020_1">
  <metadata id="CorelCorpID_0Corel-Layer"></metadata>
  <g id="_514925880">
   <path class="fil0" d="M598 256l1148 0 32 0 0 32 0 1472 0 32 -32 0 -1148 0 -32 0 0 -32 0 -1472 0 -32 32 0zm1116 64l-1084 0 0 1408 1084 0 0 -1408z"></path>
   <path class="fil0" d="M701 360l943 0 24 0 0 24 0 1280 0 24 -24 0 -943 0 -24 0 0 -24 0 -1280 0 -24 24 0zm919 48l-895 0 0 1232 895 0 0 -1232z"></path>
   <path class="fil0" d="M1441 870c-11,84 -45,163 -93,219 -47,55 -108,90 -176,90 -65,0 -124,-32 -170,-84 -47,-53 -81,-127 -95,-207 -1,-7 -3,-16 -5,-25 -5,-26 -11,-56 -13,-86 -4,-70 12,-136 97,-148 28,-52 80,-82 141,-92 38,-6 80,-3 120,9 40,12 78,32 110,62 60,56 99,143 83,262zm-130 188c42,-50 72,-120 82,-195 13,-101 -18,-174 -68,-220 -27,-24 -58,-42 -91,-51 -33,-10 -67,-12 -99,-7 -49,8 -92,33 -110,76 -3,8 -11,14 -21,15 -59,4 -70,49 -67,98 2,27 7,56 12,80 2,9 3,18 5,26 12,71 42,137 83,183 37,42 84,68 134,68 53,0 101,-28 139,-74z"></path>
   <path class="fil0" d="M981 655c0,-13 10,-24 24,-24 13,0 24,10 24,24 0,26 4,47 12,64 8,15 21,28 43,37 1,0 3,1 5,2 7,3 15,7 25,10 54,15 74,9 104,-2 15,-5 33,-11 56,-16 89,-19 123,39 152,89 3,4 5,9 7,11 7,11 3,26 -8,33 -11,7 -26,3 -33,-8 -3,-5 -5,-9 -7,-12 -21,-36 -46,-78 -101,-66 -21,5 -37,10 -51,14 -39,13 -65,21 -132,2 -13,-4 -23,-8 -32,-12 -1,-1 -2,-1 -4,-2 -32,-14 -53,-34 -66,-59 -12,-24 -17,-52 -17,-85z"></path>
   <path class="fil0" d="M1033 777c-4,-12 2,-26 15,-30 12,-4 26,2 30,15 22,63 -15,77 -59,94 -17,7 -36,14 -47,26 -5,5 -8,10 -9,16 -2,7 -2,13 -2,19 2,13 -7,25 -20,27 -13,2 -25,-7 -27,-20 -2,-13 -1,-27 3,-41 4,-12 10,-24 21,-35 19,-20 43,-29 65,-37 20,-8 37,-14 31,-33z"></path>
   <path class="fil0" d="M1668 1562c0,13 -11,24 -24,24 -13,0 -24,-11 -24,-24 0,-74 -31,-146 -84,-207 -51,-59 -123,-106 -206,-133l-1 1c0,0 -1,1 -1,1 -46,41 -102,62 -158,62 -56,0 -112,-22 -156,-64 -83,27 -154,75 -205,133 -53,60 -84,133 -84,207 0,13 -11,24 -24,24 -13,0 -24,-11 -24,-24 0,-86 36,-169 96,-238 60,-68 144,-123 241,-152l0 0c9,-2 18,0 24,7 2,3 5,6 9,9 35,34 78,51 123,51 44,0 89,-17 126,-50 0,0 1,-1 1,-1 3,-3 7,-6 9,-9 6,-6 15,-9 24,-7 98,29 182,84 241,152 60,69 96,152 96,238z"></path>
   <path class="fil0" d="M1121 1242l103 0 24 0 0 24 0 284 0 24 -24 0 -103 0 -24 0 0 -24 0 -284 0 -24 24 0zm79 48l-55 0 0 236 55 0 0 -236z"></path>
  </g>
  <polygon class="fil0" points="587,1509 302,1509 258,1509 271,1467 568,534 629,554 345,1445 587,1445 "></polygon>
 </g>
 <rect class="fil1" width="2048" height="2048"></rect>
</svg>