<svg xmlns="http://www.w3.org/2000/svg" xmlns:xlink="http://www.w3.org/1999/xlink" xml:space="preserve" width="2048px" height="2048px" style="shape-rendering:geometricPrecision; text-rendering:geometricPrecision; image-rendering:optimizeQuality; fill-rule:evenodd; clip-rule:evenodd" viewBox="0 0 2048 2048">
 <defs>
  <style type="text/css">
   <![CDATA[
    .fil1 {fill:none}
    .fil0 {fill:#212121;fill-rule:nonzero}
   ]]>
  </style>
 </defs>
 <g id="Layer_x0020_1">
  <metadata id="CorelCorpID_0Corel-Layer"></metadata>
  <path class="fil0" d="M783 1164c-123,38 -228,74 -302,116 -71,40 -113,84 -115,140l-16 326 1350 0 -16 -326c-3,-56 -45,-100 -115,-140 -74,-42 -179,-78 -302,-116 -63,54 -152,82 -241,82 -89,0 -178,-27 -241,-82zm-334 60c82,-46 196,-85 330,-126 11,-5 25,-2 34,7l0 0c51,51 130,76 210,76 80,0 159,-25 210,-76l0 0 0 0c8,-8 20,-12 32,-8 135,42 250,80 333,127 90,51 144,111 148,193l17 357c0,1 0,3 0,4 0,18 -14,32 -32,32l-1417 0 0 0c0,0 -1,0 -2,0 -18,-1 -31,-16 -30,-33l18 -359c4,-82 58,-142 148,-193z"></path>
  <g id="_514927920">
   <path class="fil0" d="M499 1220c0,-18 14,-32 32,-32 18,0 32,14 32,32l0 558c0,18 -14,32 -32,32 -18,0 -32,-14 -32,-32l0 -558zm192 558c0,18 -14,32 -32,32 -18,0 -32,-14 -32,-32l0 -607c0,-18 14,-32 32,-32 18,0 32,14 32,32l0 607z"></path>
   <path class="fil0" d="M1549 1778c0,18 -14,32 -32,32 -18,0 -32,-14 -32,-32l0 -558c0,-18 14,-32 32,-32 18,0 32,14 32,32l0 558zm-192 -607c0,-18 14,-32 32,-32 18,0 32,14 32,32l0 607c0,18 -14,32 -32,32 -18,0 -32,-14 -32,-32l0 -607z"></path>
  </g>
  <g id="_514927608">
   <path class="fil0" d="M1024 275c37,0 74,2 109,5 30,3 59,8 86,16 25,-19 73,-44 155,49 25,28 43,62 56,104 12,40 18,87 19,142 1,47 -4,101 -13,152 -8,48 -21,95 -36,131 -35,79 -86,137 -147,176 -66,42 -144,62 -227,62 -83,0 -160,-19 -226,-61 -62,-39 -113,-98 -147,-177 -16,-36 -28,-82 -36,-129 -9,-52 -14,-106 -14,-152 0,-56 8,-104 21,-145 14,-42 34,-76 58,-104 80,-92 136,-66 162,-49 26,-6 53,-11 81,-14 33,-3 67,-5 102,-5zm102 69c-32,-4 -66,-5 -102,-5 -34,0 -66,1 -95,4 -30,3 -58,8 -84,15 -15,4 -23,-1 -33,-8 -9,-7 -34,-23 -84,34 -19,22 -35,49 -46,82 -11,34 -18,75 -18,125 0,43 5,93 13,141 8,43 18,84 32,115 29,67 72,116 123,149 55,35 121,52 192,51 71,0 138,-17 193,-53 51,-33 94,-81 123,-148 14,-31 24,-72 32,-116 8,-48 12,-98 12,-141 -1,-48 -6,-90 -16,-124 -10,-33 -24,-59 -42,-80 -49,-56 -66,-42 -73,-36 -12,9 -20,16 -38,10 -27,-8 -57,-14 -89,-18z"></path>
   <path class="fil0" d="M793 343c-10,-15 -6,-35 9,-44 15,-10 35,-6 44,9 84,125 3,202 -80,258 -11,7 -24,16 -37,24 -17,11 -33,21 -44,29 -8,6 -12,13 -15,20 -3,7 -3,14 -2,21 3,17 -8,34 -25,37 -17,3 -34,-8 -37,-25 -3,-18 -2,-37 6,-56 7,-16 18,-32 34,-45 14,-11 31,-22 50,-34 10,-7 22,-14 35,-23 58,-39 115,-92 63,-170z"></path>
   <path class="fil0" d="M1211 314c10,-15 30,-18 44,-9 15,10 18,30 9,44 -52,77 0,127 55,163 13,9 24,16 34,22 19,12 36,23 50,34 17,13 28,29 34,45 8,19 9,39 6,56 -3,17 -20,29 -37,25 -17,-3 -29,-20 -25,-37 1,-6 1,-14 -2,-21 -3,-7 -8,-14 -15,-20 -11,-9 -26,-18 -43,-29 -12,-8 -25,-16 -36,-23 -80,-54 -156,-128 -72,-252z"></path>
   <g>
    <path class="fil0" d="M1051 758c10,15 5,35 -10,44 -15,9 -34,5 -44,-9l0 1c0,1 0,2 0,2 -8,-1 -15,1 -20,3 -13,7 -29,23 -44,38 -25,25 -48,49 -78,50 -18,1 -33,-13 -33,-30 -1,-18 13,-33 30,-33 5,0 19,-15 35,-31 19,-19 39,-39 62,-51 13,-6 35,-11 53,-9 19,2 37,9 48,26zm-54 35l0 0c-1,-1 0,0 0,1l0 -1z"></path>
    <path class="fil0" d="M1051 793l0 0 0 1c0,-1 1,-3 0,-1zm0 0c-10,15 -29,19 -44,9 -15,-10 -19,-29 -10,-44 11,-17 29,-24 48,-26 19,-2 40,2 53,9 23,11 43,32 62,51 16,16 30,31 35,31 18,1 31,16 30,33 -1,18 -16,31 -33,30 -30,-2 -53,-25 -78,-50 -15,-15 -31,-31 -44,-38 -4,-2 -12,-3 -20,-3 0,0 0,-1 0,-2l0 -1z"></path>
   </g>
  </g>
  <g id="_514927344">
   <polygon class="fil0" points="1008,1601 1008,1345 1040,1345 1040,1601 "></polygon>
   <polygon class="fil0" points="932,1400 1116,1400 1116,1432 932,1432 "></polygon>
  </g>
 </g>
 <rect class="fil1" width="2048" height="2048"></rect>
</svg>