<svg xmlns="http://www.w3.org/2000/svg" xmlns:xlink="http://www.w3.org/1999/xlink" xml:space="preserve" width="2048px" height="2048px" style="shape-rendering:geometricPrecision; text-rendering:geometricPrecision; image-rendering:optimizeQuality; fill-rule:evenodd; clip-rule:evenodd" viewBox="0 0 2048 2048">
 <defs>
  <style type="text/css">
   <![CDATA[
    .fil1 {fill:none}
    .fil0 {fill:#212121;fill-rule:nonzero}
   ]]>
  </style>
 </defs>
 <g id="Layer_x0020_1">
  <metadata id="CorelCorpID_0Corel-Layer"></metadata>
  <g id="_514928856">
   <g>
    <g>
     <path class="fil0" d="M1040 487c-9,2 -17,-3 -19,-12 -2,-9 3,-17 12,-19 14,-3 30,-3 45,-1 16,2 33,8 48,15 27,13 57,43 77,76 18,30 28,63 20,90 -2,8 -11,13 -20,11 -8,-2 -13,-11 -11,-20 5,-18 -3,-42 -17,-65 -17,-28 -42,-53 -63,-63 -11,-5 -25,-10 -39,-12 -12,-2 -24,-2 -33,0z"></path>
     <path class="fil0" d="M1176 503c0,20 -15,22 -32,24 -7,1 -16,2 -16,5 0,3 12,12 27,22 20,15 44,31 54,54l1 -1c5,-14 6,-29 3,-44 -3,-17 -11,-33 -21,-46 -9,-11 -18,-21 -23,-23 -5,-2 8,4 8,9zm-36 -7c2,0 4,14 4,7 1,-38 15,-46 36,-38 11,4 24,18 36,33 13,16 23,37 27,59 4,20 3,42 -4,62 -4,10 -8,19 -13,27 -5,8 -11,15 -19,23l0 0c-4,4 -10,6 -16,4 -8,-3 -13,-12 -10,-20 3,-8 2,-13 0,-23l0 0c-3,-18 -26,-35 -45,-49 -23,-16 -42,-30 -40,-51 3,-28 25,-31 43,-33z"></path>
    </g>
    <g>
     <path class="fil0" d="M1419 662c-7,-5 -10,-15 -5,-22 5,-7 15,-10 22,-5 12,7 23,19 32,32 10,14 18,29 23,44 9,28 9,71 -1,108 -9,34 -26,64 -51,77 -8,4 -17,1 -22,-6 -4,-8 -1,-17 6,-22 16,-9 28,-32 35,-57 8,-32 9,-67 1,-90 -4,-12 -11,-25 -18,-36 -7,-10 -15,-18 -23,-23z"></path>
     <path class="fil0" d="M1503 771c-15,14 -26,5 -39,-6 -6,-4 -13,-10 -15,-8 -2,2 0,17 3,35 4,25 8,53 -2,76l1 -1c14,-6 25,-16 34,-29 10,-14 16,-31 18,-47 2,-15 3,-28 1,-33 -2,-5 2,9 -1,12zm-20 -31c2,1 -7,13 -2,8 28,-26 43,-21 52,-1 5,11 4,30 2,49 -3,21 -11,42 -24,61 -12,17 -28,31 -47,40 -10,4 -19,7 -28,9 -9,2 -19,3 -30,3l0 0c-6,0 -11,-3 -14,-9 -4,-8 -1,-17 7,-21 8,-4 10,-8 17,-15l0 0c11,-15 7,-43 4,-67 -4,-27 -8,-51 9,-64 22,-17 39,-3 54,8z"></path>
    </g>
    <g>
     <path class="fil0" d="M1557 1057c-2,-9 4,-17 12,-19 9,-2 17,4 19,12 3,14 2,30 -1,45 -3,16 -9,33 -16,47 -14,26 -45,56 -78,74 -30,17 -64,26 -91,17 -8,-3 -13,-12 -10,-20 3,-8 12,-13 20,-10 18,6 42,-1 66,-14 29,-16 55,-40 66,-61 6,-11 11,-25 13,-38 2,-12 3,-24 1,-33z"></path>
     <path class="fil0" d="M1537 1192c-20,-1 -21,-16 -23,-33 -1,-7 -2,-16 -4,-16 -3,0 -12,12 -23,26 -15,20 -33,42 -56,52l1 1c14,6 29,7 44,4 17,-3 34,-10 46,-19 12,-9 22,-17 24,-22 2,-5 -5,8 -9,7zm9 -36c0,2 -14,4 -7,4 38,2 46,16 37,37 -5,11 -19,23 -34,35 -17,12 -38,22 -60,25 -21,3 -42,2 -61,-7 -10,-4 -18,-8 -26,-14 -8,-5 -14,-11 -22,-19 -4,-4 -6,-11 -4,-17 3,-8 12,-13 20,-10 8,3 12,2 22,1 0,0 0,0 1,0l0 0 0 0 0 0 0 0c19,-2 36,-24 51,-44 17,-22 32,-41 53,-38 28,4 30,26 32,45z"></path>
    </g>
    <g>
     <path class="fil0" d="M1368 1430c5,-7 15,-9 22,-4 7,5 9,15 4,22 -8,11 -20,22 -33,31l0 0 0 0c-14,9 -30,16 -45,21 -28,8 -71,6 -108,-5 -33,-10 -63,-28 -75,-54 -4,-8 -1,-17 7,-21 8,-4 17,-1 21,7 8,17 30,29 56,37 31,10 67,12 90,5 12,-4 25,-10 37,-17l0 0c10,-7 19,-14 24,-22z"></path>
     <path class="fil0" d="M1256 1509c-13,-15 -4,-26 7,-39 5,-6 10,-12 9,-14 -2,-2 -17,-1 -35,1 -25,3 -53,6 -76,-4l0 1c5,14 15,25 27,35 14,10 30,17 46,20 15,2 28,4 33,2 5,-2 -9,2 -12,-1zm32 -19c-1,2 -13,-8 -8,-2 25,29 20,44 -1,52 -11,4 -30,3 -49,0 -21,-3 -42,-12 -60,-26 -17,-13 -30,-29 -38,-49 -4,-10 -7,-19 -8,-28 -2,-9 -2,-19 -1,-30l0 0c0,-6 4,-11 9,-14 8,-4 17,0 21,8 3,8 7,11 15,17l0 0c14,12 42,9 67,6 28,-3 52,-6 64,12 16,22 2,40 -10,54z"></path>
    </g>
    <g>
     <path class="fil0" d="M997 1555c9,-2 17,3 19,12 2,9 -3,17 -12,19 -14,3 -30,3 -45,0 -16,-3 -33,-8 -47,-15 -26,-13 -56,-44 -75,-77 -17,-30 -27,-63 -19,-90 3,-8 11,-13 20,-11 8,3 13,11 11,20 -5,18 2,42 16,66 16,28 41,54 62,65 11,6 25,10 38,12 12,2 24,2 33,0z"></path>
     <path class="fil0" d="M861 1537c1,-20 15,-22 32,-24 7,-1 16,-2 16,-5 0,-3 -12,-12 -26,-23 -20,-15 -43,-32 -53,-55l-1 1c-6,14 -6,29 -4,44 3,17 10,33 20,46 9,12 18,22 22,24 5,2 -8,-5 -8,-9zm36 8c-2,0 -4,-14 -4,-7 -1,38 -16,46 -36,37 -11,-5 -24,-18 -36,-34 -13,-16 -22,-38 -26,-60 -4,-20 -2,-42 6,-61 4,-10 8,-19 13,-26 5,-8 11,-15 19,-23l0 0c4,-4 10,-5 16,-3 8,3 13,12 10,20 -3,8 -2,13 -1,23l0 0c2,19 25,35 44,50 22,17 42,31 39,52 -3,28 -26,30 -44,32z"></path>
    </g>
    <g>
     <path class="fil0" d="M631 1383c7,5 10,14 5,22 -5,7 -14,10 -22,5 -12,-7 -23,-19 -33,-32 -10,-14 -18,-29 -23,-44 -10,-28 -9,-71 0,-108 9,-34 25,-64 50,-78 8,-4 17,-1 22,6 4,8 1,17 -6,22 -16,9 -28,32 -35,58 -8,32 -9,67 -1,90 4,12 11,25 19,36 7,10 15,18 23,23z"></path>
     <path class="fil0" d="M546 1275c14,-14 26,-5 40,6 6,4 13,10 15,8 2,-2 0,-17 -3,-35 -4,-25 -8,-53 1,-76l-1 1c-14,6 -25,16 -34,29 -10,14 -16,31 -18,47 -2,15 -3,28 -1,33 2,5 -2,-9 1,-12zm20 31c-2,-1 7,-13 2,-8 -27,26 -43,22 -52,1 -5,-11 -4,-30 -2,-49 2,-21 11,-43 23,-61 12,-17 28,-32 47,-40 10,-4 19,-7 28,-10 9,-2 18,-3 28,-3 6,0 12,3 15,9 4,8 1,18 -7,21 -8,4 -11,8 -16,15l0 0 0 0c-11,15 -7,43 -3,67 4,27 8,51 -9,64 -22,17 -39,4 -54,-8z"></path>
    </g>
    <g>
     <path class="fil0" d="M490 1004c2,9 -3,17 -12,19 -9,2 -17,-3 -19,-12 -3,-14 -3,-30 -1,-45 2,-16 8,-33 15,-48 13,-27 43,-57 76,-77 30,-18 63,-28 90,-20 8,2 13,11 11,20 -2,8 -11,13 -20,11 -18,-5 -42,3 -65,17 -28,17 -53,42 -63,63 -6,11 -10,25 -12,39 -2,12 -2,24 0,33z"></path>
     <path class="fil0" d="M505 868c20,0 22,15 24,32 1,7 2,16 5,16 3,0 12,-12 22,-27 15,-20 31,-43 54,-54l-1 -1c-14,-5 -29,-6 -44,-3 -17,3 -33,11 -45,21 -11,9 -21,18 -23,23 -2,5 4,-8 8,-8zm-7 36c0,-2 14,-4 7,-4 -38,-1 -46,-15 -38,-36 4,-11 18,-24 33,-36 16,-13 37,-23 59,-27 20,-4 42,-3 62,4 10,4 19,8 27,13 8,5 15,11 23,19l0 0c4,4 6,10 4,16 -3,8 -12,13 -20,10 -8,-3 -13,-2 -23,-1l0 0c-18,3 -35,26 -49,45 -16,23 -30,42 -51,40 -28,-3 -31,-25 -33,-43zm134 -42l0 0"></path>
    </g>
    <g>
     <path class="fil0" d="M665 625c-5,7 -15,10 -22,5 -7,-5 -10,-15 -5,-22 7,-12 19,-23 32,-32 14,-10 29,-18 44,-23 28,-9 71,-9 108,1 34,9 64,26 77,51 4,8 1,17 -6,22 -8,4 -17,1 -22,-6 -9,-16 -31,-28 -57,-35 -32,-8 -67,-9 -90,-2 -12,4 -25,11 -36,18 -10,7 -18,15 -23,23z"></path>
     <path class="fil0" d="M774 542c14,15 5,26 -6,39 -4,6 -10,13 -8,15 2,2 17,0 35,-3 25,-4 53,-8 76,2l-1 -1c-6,-14 -16,-25 -29,-34 -14,-10 -31,-16 -47,-18 -15,-2 -28,-3 -33,-1 -5,2 9,-2 11,1zm-31 20c1,-2 13,7 8,2 -26,-28 -21,-43 -1,-52 11,-5 30,-4 49,-1 21,3 42,11 61,24 17,12 31,28 40,47 4,10 7,19 9,28 2,9 3,19 3,30l0 0c0,6 -3,11 -9,14 -8,4 -17,1 -21,-7 -4,-7 -8,-10 -15,-17l0 0c-15,-11 -43,-7 -67,-4 -27,4 -51,8 -64,-9 -17,-22 -3,-39 8,-54z"></path>
    </g>
    <path class="fil0" d="M1261 403c54,21 82,74 109,126 16,30 32,60 51,79 20,20 52,34 84,48 51,23 102,47 124,96 22,49 5,102 -12,156 -11,33 -21,67 -20,94 1,27 13,59 25,91 20,55 41,111 20,165 -21,54 -74,82 -126,109 -30,16 -60,32 -79,51 -20,20 -34,52 -48,84 -23,51 -47,102 -96,124 -49,22 -102,5 -156,-12 -33,-11 -67,-21 -94,-20 -27,1 -59,13 -91,25 -55,20 -111,41 -165,20 -54,-21 -82,-74 -109,-126 -16,-30 -32,-60 -51,-79 -20,-20 -52,-34 -84,-48 -51,-23 -102,-47 -124,-96 -22,-49 -5,-102 12,-156 11,-33 21,-67 20,-94 -1,-27 -13,-59 -25,-91 -20,-55 -41,-111 -20,-165 21,-54 74,-82 126,-109 30,-16 60,-32 79,-51 20,-20 34,-52 48,-84 23,-51 47,-102 96,-124 49,-22 102,-5 156,12 33,11 67,21 94,20 27,-1 59,-13 91,-25 55,-20 111,-41 165,-20zm67 148c-23,-44 -46,-89 -84,-103 -37,-14 -85,3 -131,21 -36,13 -71,27 -106,28 -36,1 -73,-10 -110,-22 -45,-14 -90,-28 -122,-14 -32,14 -52,57 -71,100 -16,35 -32,71 -57,97 -24,25 -58,43 -92,60 -44,23 -89,46 -103,84 -14,37 3,85 21,131 13,36 27,71 28,106 1,36 -10,73 -22,110 -14,45 -28,90 -14,122 14,32 57,52 100,71 35,16 71,32 97,57 25,24 43,58 60,92 23,44 46,89 84,103 37,14 85,-3 131,-21 36,-13 71,-27 106,-28 36,-1 73,10 110,22 45,14 90,28 122,14 32,-14 52,-57 71,-100 16,-35 32,-71 57,-97 24,-25 58,-43 92,-60 44,-23 89,-46 103,-84 14,-37 -3,-85 -21,-131 -13,-36 -27,-71 -28,-106 -1,-36 10,-73 22,-110 14,-45 28,-90 14,-122 -14,-32 -57,-52 -100,-71 -35,-16 -71,-32 -97,-57 -25,-24 -43,-58 -60,-92z"></path>
    <g>
     <path class="fil0" d="M522 712c-8,4 -17,1 -22,-6 -4,-8 -1,-17 6,-22 8,-5 17,-12 25,-22 9,-11 16,-23 21,-35 9,-22 11,-57 5,-90 -5,-26 -15,-50 -31,-60 -7,-5 -10,-15 -5,-22 5,-7 15,-10 22,-5 24,15 39,46 45,81 7,38 5,80 -6,108 -6,15 -15,30 -26,43 -10,12 -22,23 -34,30z"></path>
     <path class="fil0" d="M574 603c-5,-5 3,7 1,8 -15,10 -34,23 -55,4 -16,-14 -11,-38 -5,-65 5,-24 11,-51 1,-67l0 0 0 0 0 0 0 0c0,0 0,0 0,-1 -5,-8 -8,-12 -15,-16 -8,-4 -10,-14 -6,-22 3,-5 9,-8 14,-8l0 0c11,0 20,2 29,5 9,3 17,6 27,11 19,10 34,25 45,43 12,19 18,42 20,63 1,19 1,38 -5,49 -10,20 -26,24 -52,-4zm-16 -19c14,-10 26,-18 40,-3 3,3 -2,16 0,12 2,-5 2,-18 1,-33 -1,-16 -6,-33 -15,-48 -8,-13 -19,-24 -32,-31l-1 -1c8,24 2,52 -4,76 -4,17 -7,33 -5,34 2,2 9,-3 15,-7z"></path>
    </g>
    <g>
     <path class="fil0" d="M883 450c-8,-2 -13,-11 -11,-20 2,-8 11,-13 20,-11 9,3 21,3 33,2 14,-2 27,-5 39,-10 22,-9 48,-33 66,-61 15,-22 24,-46 19,-65 -2,-9 3,-17 12,-19 9,-2 17,3 19,12 7,28 -5,60 -24,89 -21,32 -53,61 -80,73 -15,6 -32,11 -48,13 -16,2 -32,1 -45,-3z"></path>
     <path class="fil0" d="M996 408c0,-7 -2,7 -4,7 -18,-3 -40,-7 -42,-35 -1,-21 19,-34 42,-50 20,-13 44,-29 47,-47l0 0 0 0c0,0 0,-1 0,-1 2,-9 2,-14 0,-22 -2,-8 3,-17 11,-20 6,-2 12,0 16,5 7,8 13,15 17,23 5,8 8,17 12,27 7,20 7,41 2,62 -5,22 -16,43 -30,58 -13,15 -26,28 -37,32 -21,7 -35,-1 -34,-39l0 0zm1 -25c17,3 31,6 31,25l0 0c0,4 -13,10 -8,8 5,-2 14,-11 24,-22 10,-12 19,-28 23,-45 3,-15 4,-30 -1,-44l0 -1c-11,23 -35,38 -56,52 -15,10 -28,18 -28,21 0,3 9,4 16,5z"></path>
    </g>
    <g>
     <path class="fil0" d="M1323 515c-4,-8 -2,-17 6,-22 8,-4 17,-2 22,6 5,8 13,17 22,24 11,8 23,15 35,20 22,8 58,9 90,2 26,-6 49,-17 59,-33 5,-8 14,-10 22,-6 8,5 10,14 6,22 -15,24 -45,40 -79,47 -38,8 -80,7 -108,-4 -15,-6 -30,-14 -43,-25 -13,-10 -24,-21 -31,-34z"></path>
     <path class="fil0" d="M1434 564c5,-5 -7,4 -8,2 -11,-15 -24,-33 -6,-54 14,-16 38,-12 65,-6 24,5 52,10 67,-1l0 0 0 0 0 0 0 0 0 0c8,-6 12,-8 16,-16 4,-8 14,-11 22,-6 5,3 9,9 8,15 0,11 -1,20 -4,29 -2,9 -6,17 -11,27 -9,19 -24,34 -42,46 -19,12 -41,19 -62,21 -19,2 -38,2 -49,-4 -20,-10 -24,-25 3,-52zm18 -17c10,14 18,26 4,40 -3,3 -16,-2 -12,0 5,2 18,2 33,1 16,-1 33,-7 47,-16 13,-8 24,-19 30,-32l1 -1c-24,8 -52,3 -76,-2 -18,-3 -33,-6 -35,-4 -2,2 3,9 8,15z"></path>
    </g>
    <g>
     <path class="fil0" d="M1594 868c2,-9 11,-14 19,-11 9,2 14,11 11,19 -2,9 -3,21 -1,33 2,13 6,27 11,39 10,22 35,47 62,64 23,14 47,22 65,18 9,-2 17,3 20,11 2,9 -3,17 -11,20 -27,7 -60,-3 -90,-21 -33,-20 -62,-51 -75,-78 -7,-14 -12,-31 -14,-48 -2,-16 -2,-32 2,-45z"></path>
     <path class="fil0" d="M1638 981c7,0 -7,-2 -7,-4 3,-18 6,-40 34,-43 21,-2 35,18 51,41 14,20 30,43 48,46l0 0 0 0 0 0 0 0c0,0 1,0 1,0 9,1 14,2 22,0 8,-3 17,2 20,11 2,6 0,12 -4,16 -8,8 -15,13 -23,18 -8,5 -16,8 -27,12 -20,7 -41,8 -62,4 -22,-5 -43,-15 -59,-28 -15,-12 -28,-25 -32,-37 -8,-21 0,-35 38,-35zm25 1c-3,17 -5,31 -25,31 -4,0 -10,-13 -8,-8 2,5 12,14 23,23 12,10 28,18 45,21 15,3 30,3 44,-2l1 0c-23,-11 -39,-34 -53,-54 -10,-15 -19,-27 -22,-27 -3,0 -4,9 -5,16z"></path>
    </g>
    <g>
     <path class="fil0" d="M1540 1311c8,-5 17,-2 22,5 5,8 2,17 -5,22 -8,5 -16,13 -24,23 -8,11 -15,23 -19,36 -8,22 -8,58 0,90 6,26 18,49 34,58 8,4 10,14 6,22 -4,8 -14,10 -22,6 -25,-14 -41,-44 -49,-78 -9,-37 -9,-80 1,-108 5,-15 14,-31 24,-44 10,-13 21,-24 33,-31z"></path>
     <path class="fil0" d="M1494 1422c5,5 -4,-6 -2,-8 15,-11 33,-25 54,-7 17,13 13,37 8,65 -4,24 -9,52 2,67l0 0 0 0c0,0 0,1 1,1 6,7 9,11 16,15 8,4 11,14 7,21 -3,5 -8,9 -14,9l0 0c-11,0 -20,-1 -30,-3 -9,-2 -18,-5 -28,-10 -19,-9 -35,-23 -47,-41 -13,-19 -20,-41 -23,-61 -2,-19 -3,-38 2,-49 9,-21 25,-25 52,2zm17 18c-14,10 -25,19 -40,5 -3,-3 2,-16 -1,-12 -2,5 -1,18 0,33 2,16 8,33 17,47 8,13 20,23 33,29l1 1c-9,-24 -4,-52 0,-76 3,-18 5,-33 3,-35 -2,-2 -9,3 -15,8z"></path>
    </g>
    <g>
     <path class="fil0" d="M1193 1590c9,2 14,11 12,19 -2,9 -11,14 -19,12 -9,-2 -21,-2 -33,0 -13,2 -27,7 -39,12 -21,11 -46,36 -63,64 -14,23 -21,47 -16,65 2,8 -2,17 -11,20 -8,2 -17,-2 -20,-11 -8,-27 2,-60 19,-90 20,-33 50,-63 76,-77 14,-7 31,-12 48,-15 16,-3 32,-3 45,0z"></path>
     <path class="fil0" d="M1082 1637c0,7 2,-7 4,-7 19,2 41,5 44,33 2,21 -17,35 -39,52 -20,14 -42,31 -45,50l0 0 0 0 0 0 0 0 0 0c-1,9 -2,14 1,22 3,8 -2,17 -10,20 -6,2 -12,0 -16,-4l0 0c-8,-8 -14,-15 -19,-23 -5,-8 -9,-16 -13,-26 -8,-20 -9,-41 -5,-62 4,-22 14,-43 27,-60 12,-15 25,-29 36,-33 21,-8 35,0 36,37zm0 25c-17,-2 -31,-4 -32,-24 0,-4 12,-10 8,-9 -5,2 -14,12 -23,23 -10,12 -17,29 -20,46 -3,15 -2,30 3,44l1 1c10,-23 33,-40 53,-55 14,-11 27,-20 26,-22 0,-3 -9,-4 -16,-5z"></path>
    </g>
    <g>
     <path class="fil0" d="M750 1547c5,7 3,17 -5,22 -7,5 -17,3 -22,-5 -5,-8 -14,-16 -24,-23 -11,-8 -24,-14 -36,-18 -23,-7 -58,-7 -90,2 -26,7 -48,19 -57,35 -4,8 -14,11 -22,7 -8,-4 -11,-14 -7,-22 13,-25 43,-42 77,-51 37,-10 80,-11 108,-2 15,5 31,13 45,22 13,9 25,20 32,32z"></path>
     <path class="fil0" d="M637 1503c-5,5 6,-4 8,-2 12,15 25,32 8,54 -13,17 -37,14 -64,10 -24,-3 -52,-7 -67,4l0 0c-8,6 -12,9 -15,17 -4,8 -13,11 -21,7 -6,-3 -9,-9 -9,-15 0,-11 0,-20 2,-29 2,-9 5,-18 9,-28 8,-19 22,-36 39,-48 18,-13 40,-21 61,-24 19,-2 38,-4 49,1 21,9 25,24 0,52zm-17 18c-11,-13 -20,-25 -6,-40 3,-3 16,1 12,-1 -5,-2 -18,-1 -33,1 -16,2 -32,8 -47,18 -12,9 -23,20 -28,34l-1 1c23,-10 51,-6 76,-2 18,3 33,5 35,2 2,-2 -4,-9 -8,-15z"></path>
    </g>
    <g>
     <path class="fil0" d="M462 1207c-2,9 -10,14 -19,12 -9,-2 -14,-10 -12,-19 2,-9 1,-21 -1,-33 -3,-13 -7,-27 -13,-38 -11,-21 -37,-45 -66,-61 -23,-13 -48,-20 -66,-14 -8,3 -17,-2 -20,-10 -3,-8 2,-17 10,-20 27,-9 60,0 91,17 34,19 65,48 78,74 7,14 13,31 16,47 3,16 3,32 1,45z"></path>
     <path class="fil0" d="M412 1097c-7,0 7,2 7,4 -2,19 -4,41 -32,45 -21,3 -36,-16 -53,-38 -15,-19 -32,-42 -51,-44l0 0 0 0c-10,-1 -15,-2 -23,1 -8,3 -17,-1 -20,-10 -2,-6 -1,-12 3,-16l0 0c7,-8 14,-14 22,-20 8,-5 16,-9 26,-14 19,-8 41,-10 61,-7 22,4 44,13 60,25 15,12 29,24 34,35 9,21 1,35 -37,37zm-25 1c2,-17 3,-32 23,-33 4,0 11,12 9,7 -2,-5 -12,-13 -24,-22 -13,-10 -29,-17 -46,-19 -15,-2 -30,-1 -44,4l-1 1c23,9 41,32 56,52 11,14 20,26 23,26 3,0 4,-9 4,-16z"></path>
    </g>
   </g>
   <path class="fil0" d="M1024 630c37,0 67,20 96,39 15,10 29,19 43,25 15,6 32,10 50,14 33,7 66,14 90,38 24,24 31,57 38,90 4,17 7,35 14,50 6,14 15,28 25,43 19,29 39,60 39,96 0,37 -20,67 -39,96 -10,15 -19,29 -25,43 -6,15 -10,32 -14,50 -7,33 -14,66 -38,90 -24,24 -57,31 -90,38 -17,4 -35,7 -50,14 -14,6 -28,15 -43,25 -29,19 -60,39 -96,39 -37,0 -67,-20 -96,-39 -15,-10 -29,-19 -43,-25 -15,-6 -32,-10 -50,-14 -33,-7 -66,-14 -90,-38 -24,-24 -31,-57 -38,-90 -4,-17 -7,-35 -14,-50 -6,-14 -15,-28 -25,-43 -19,-29 -39,-60 -39,-96 0,-37 20,-67 39,-96 10,-15 19,-29 25,-43 6,-15 10,-32 14,-50 7,-33 14,-66 38,-90 24,-24 57,-31 90,-38 17,-4 35,-7 50,-14 14,-6 28,-15 43,-25 29,-19 60,-39 96,-39zm79 66c-25,-17 -51,-34 -79,-34 -27,0 -53,17 -79,34 -16,10 -31,21 -48,28 -18,7 -37,11 -55,15 -28,6 -56,12 -73,29 -17,17 -23,45 -29,73 -4,19 -8,38 -15,55 -7,17 -17,32 -28,48 -17,25 -34,51 -34,79 0,27 17,53 34,79 10,16 21,31 28,48 7,18 11,37 15,55 6,28 12,56 29,73 17,17 45,23 73,29 19,4 38,8 55,15 17,7 32,17 48,28 25,17 51,34 79,34 27,0 53,-17 79,-34 16,-10 31,-21 48,-28 18,-7 37,-11 55,-15 28,-6 56,-12 73,-29 17,-17 23,-45 29,-73 4,-19 8,-38 15,-55 7,-17 17,-32 28,-48 17,-25 34,-51 34,-79 0,-27 -17,-53 -34,-79 -10,-16 -21,-31 -28,-48 -7,-18 -11,-37 -15,-55 -6,-28 -12,-56 -29,-73 -17,-17 -45,-23 -73,-29 -19,-4 -38,-8 -55,-15 -17,-7 -32,-17 -48,-28z"></path>
  </g>
 </g>
 <rect class="fil1" width="2048" height="2048"></rect>
</svg>