<svg xmlns="http://www.w3.org/2000/svg" xmlns:xlink="http://www.w3.org/1999/xlink" xml:space="preserve" width="2048px" height="2048px" style="shape-rendering:geometricPrecision; text-rendering:geometricPrecision; image-rendering:optimizeQuality; fill-rule:evenodd; clip-rule:evenodd" viewBox="0 0 2048 2048">
 <defs>
  <style type="text/css">
   <![CDATA[
    .fil1 {fill:none}
    .fil0 {fill:#212121;fill-rule:nonzero}
   ]]>
  </style>
 </defs>
 <g id="Layer_x0020_1">
  <metadata id="CorelCorpID_0Corel-Layer"></metadata>
  <g id="_514932912">
   <path class="fil0" d="M770 1235c16,7 23,26 16,42 -7,16 -26,23 -42,16 -123,-55 -209,-122 -261,-209 -52,-88 -70,-195 -58,-332 0,-4 -7,-5 -14,-14l0 0c-1,-1 -2,-3 -3,-4l0 0 -35 -63 -114 7c-18,1 -33,-12 -34,-30 -1,-13 6,-24 16,-30 26,-17 43,-31 56,-48 12,-16 21,-36 30,-62 8,-28 39,-85 91,-125 35,-27 79,-48 133,-48 11,0 21,1 32,2 11,2 21,4 33,7 110,32 160,107 205,173l0 0c42,62 87,98 143,142 11,9 23,18 40,32l0 0 1 0 0 0 0 0c108,87 237,192 332,296 27,29 58,54 91,74 36,21 75,38 114,49 17,5 27,22 22,39 -2,7 -6,13 -12,17l0 0c-5,4 -14,8 -25,12 18,11 37,21 56,32 79,45 158,90 231,152 13,11 15,32 4,45 -4,5 -10,9 -17,10l-126 35c-6,2 -12,1 -17,0l0 0c-29,-8 -70,-21 -115,-36 -98,-32 -217,-71 -272,-71 -38,0 -74,1 -112,2 -83,2 -174,4 -238,0 -18,-1 -31,-16 -30,-34 1,-18 16,-31 34,-30 62,4 151,2 232,0 44,-1 86,-2 113,-2 65,0 189,41 292,75 39,13 75,25 104,33l57 -16c-55,-40 -114,-74 -172,-107 -36,-21 -72,-41 -110,-65 -3,-2 3,2 -3,-2l0 0 0 0 -2 -1c-8,-4 -14,-11 -17,-20 -5,-16 4,-33 19,-39 -15,-7 -30,-15 -44,-24 -39,-23 -75,-52 -106,-86 -91,-100 -219,-203 -325,-290l0 0 -1 0 0 0 0 0c-11,-9 -25,-20 -40,-31 -60,-47 -109,-85 -156,-156l0 0 0 0 0 0 0 0c-38,-57 -82,-122 -170,-148 -8,-2 -16,-4 -24,-5 -8,-1 -16,-2 -23,-2 -37,0 -68,14 -93,34 -39,31 -63,72 -68,92 0,1 0,2 -1,3 -11,32 -22,57 -39,80l40 -3c12,-1 25,5 31,16l44 79c15,19 28,36 26,57 -11,123 4,218 49,294 45,76 121,134 232,184z"></path>
   <path class="fil0" d="M892 1193c-3,-17 9,-34 26,-37 17,-3 34,9 37,26 3,18 5,40 5,64 0,42 -5,91 -17,130 -14,47 -39,84 -78,90 -4,1 -8,1 -12,1 -5,0 -11,-1 -16,-2 -36,-8 -60,-43 -74,-88 -11,-38 -17,-85 -17,-128 0,-33 3,-65 9,-90 4,-17 21,-28 38,-24 17,4 28,21 24,38 -5,20 -7,46 -7,75 0,38 4,78 14,110 7,24 16,42 27,44 0,0 1,0 2,0 1,0 1,0 1,0 10,-2 19,-20 27,-46 10,-33 14,-75 14,-112 0,-20 -1,-39 -4,-53z"></path>
   <path class="fil0" d="M817 1428c11,-14 31,-17 45,-6 14,11 17,31 6,45l-129 172c-5,7 -13,11 -21,12l-134 30c-17,4 -34,-7 -38,-24 -4,-17 7,-34 24,-38l124 -28 122 -163z"></path>
   <path class="fil0" d="M720 1582c15,9 20,28 11,44 -9,15 -28,20 -44,11l-58 -34c-15,-9 -20,-28 -11,-44 9,-15 28,-20 44,-11l58 34z"></path>
   <path class="fil0" d="M682 1611c8,-16 27,-23 43,-15 16,8 23,27 15,43l-27 56c-8,16 -27,23 -43,15 -16,-8 -23,-27 -15,-43l27 -56z"></path>
   <path class="fil0" d="M572 514c12,0 24,5 32,13l0 0c8,8 13,20 13,32 0,12 -5,24 -13,32l0 0 0 0c-8,8 -20,13 -32,13 -13,0 -24,-5 -32,-13 0,0 -1,-1 -1,-1 -8,-8 -12,-19 -12,-31 0,-12 5,-24 13,-32l0 0 0 0 0 0c8,-8 20,-13 32,-13zm9 36c-2,-2 -6,-4 -9,-4 -4,0 -7,1 -9,4l0 0 0 0c-2,2 -4,6 -4,9 0,3 1,7 3,9 0,0 0,0 1,1 2,2 6,4 9,4 4,0 7,-1 9,-4l0 0c2,-2 4,-6 4,-9 0,-4 -1,-7 -4,-9l0 0 0 0z"></path>
  </g>
 </g>
 <rect class="fil1" width="2048" height="2048"></rect>
</svg>