<svg xmlns="http://www.w3.org/2000/svg" xmlns:xlink="http://www.w3.org/1999/xlink" xml:space="preserve" width="2048px" height="2048px" style="shape-rendering:geometricPrecision; text-rendering:geometricPrecision; image-rendering:optimizeQuality; fill-rule:evenodd; clip-rule:evenodd" viewBox="0 0 2048 2048">
 <defs>
  <style type="text/css">
   <![CDATA[
    .fil1 {fill:none}
    .fil0 {fill:#212121;fill-rule:nonzero}
   ]]>
  </style>
 </defs>
 <g id="Layer_x0020_1">
  <metadata id="CorelCorpID_0Corel-Layer"></metadata>
  <g id="_514933128">
   <path class="fil0" d="M1174 1300c4,-1 7,-2 11,-2 18,0 32,14 32,32l0 1 0 0 0 1c0,18 -14,32 -31,32l0 0 0 0 -639 0c-18,0 -32,-14 -32,-32 0,-1 0,-2 0,-3 1,-17 15,-31 32,-31 4,0 8,1 11,2l616 0zm-826 0c4,-1 7,-2 11,-2 18,0 32,14 32,32l0 1 0 0 0 1c0,18 -14,32 -31,32l0 0 0 0 -79 0c-18,0 -32,-14 -32,-32l0 -67c0,-14 9,-26 21,-30l0 -89c0,-100 14,-106 110,-146l18 -8 39 -150 0 0 0 0c9,-34 19,-52 46,-63 21,-9 46,-9 89,-9l904 0c18,0 32,14 32,32l0 417c17,1 30,15 30,32l0 80c0,18 -14,32 -32,32l-30 0 -104 0c-18,0 -32,-14 -32,-32 0,-1 0,-2 0,-3 1,-17 15,-31 32,-31 4,0 8,1 11,2l90 0 0 -16c-17,-1 -30,-15 -30,-32l0 -417 -872 0c-36,0 -56,0 -65,4 -3,1 -5,8 -9,21l0 0 -43 165 0 0c-2,9 -9,17 -18,21 -23,10 -29,12 -33,14 -62,26 -71,30 -71,87l0 119c0,14 -9,26 -21,30l0 4 35 0z"></path>
   <path class="fil0" d="M453 1204c35,0 66,14 89,37 23,23 37,54 37,89 0,35 -14,66 -37,89 -23,23 -54,37 -89,37 -35,0 -66,-14 -89,-37 -23,-23 -37,-54 -37,-89 0,-35 14,-66 37,-89 23,-23 54,-37 89,-37zm43 82c-11,-11 -26,-18 -43,-18 -17,0 -32,7 -43,18 -11,11 -18,26 -18,43 0,17 7,32 18,43 11,11 26,18 43,18 17,0 32,-7 43,-18 11,-11 18,-26 18,-43 0,-17 -7,-32 -18,-43z"></path>
   <path class="fil0" d="M1279 1204c35,0 66,14 89,37 23,23 37,54 37,89 0,35 -14,66 -37,89 -23,23 -54,37 -89,37 -35,0 -66,-14 -89,-37 -23,-23 -37,-54 -37,-89 0,-35 14,-66 37,-89 23,-23 54,-37 89,-37zm43 82c-11,-11 -26,-18 -43,-18 -17,0 -32,7 -43,18 -11,11 -18,26 -18,43 0,17 7,32 18,43 11,11 26,18 43,18 17,0 32,-7 43,-18 11,-11 18,-26 18,-43 0,-17 -7,-32 -18,-43z"></path>
   <path class="fil0" d="M433 1046c-18,0 -32,-14 -32,-32 0,-18 14,-32 32,-32l193 0c18,0 32,14 32,32 0,18 -14,32 -32,32l-193 0z"></path>
   <path class="fil0" d="M621 803c0,-18 14,-32 32,-32 18,0 32,14 32,32l0 529c0,18 -14,32 -32,32 -18,0 -32,-14 -32,-32l0 -529z"></path>
   <path class="fil0" d="M733 853l668 0c9,0 16,7 16,16l0 145c0,9 -7,16 -16,16l-668 0c-9,0 -16,-7 -16,-16l0 -145c0,-9 7,-16 16,-16zm652 32l-636 0 0 113 636 0 0 -113z"></path>
   <g>
    <path class="fil0" d="M1052 879c0,-9 7,-16 16,-16 9,0 16,7 16,16l0 125c0,9 -7,16 -16,16 -9,0 -16,-7 -16,-16l0 -125z"></path>
    <path class="fil0" d="M1207 879c0,-9 7,-16 16,-16 9,0 16,7 16,16l0 125c0,9 -7,16 -16,16 -9,0 -16,-7 -16,-16l0 -125z"></path>
    <path class="fil0" d="M896 879c0,-9 7,-16 16,-16 9,0 16,7 16,16l0 125c0,9 -7,16 -16,16 -9,0 -16,-7 -16,-16l0 -125z"></path>
   </g>
   <polygon class="fil0" points="794,1257 794,1076 826,1076 826,1257 "></polygon>
   <polygon class="fil0" points="733,1110 886,1110 886,1142 733,1142 "></polygon>
   <polygon class="fil0" points="913,1110 1247,1110 1247,1142 913,1142 "></polygon>
   <polygon class="fil0" points="913,1166 1160,1166 1160,1198 913,1198 "></polygon>
   <path class="fil0" d="M1761 775l0 273 22 0c9,0 16,7 16,16l0 87c0,9 -7,16 -16,16l-243 0 0 -32 227 0 0 -55 -22 0c-9,0 -16,-7 -16,-16l0 -289c0,-56 -40,-92 -92,-108 -21,-7 -44,-10 -67,-10 -23,0 -46,3 -67,10 -40,12 -72,36 -86,72l-34 0c14,-52 57,-86 110,-103 24,-8 50,-11 76,-11 26,0 52,4 76,11 64,20 114,66 114,139z"></path>
   <g>
    <polygon class="fil0" points="1541,963 1653,963 1653,987 1541,987 "></polygon>
    <polygon class="fil0" points="1541,1006 1691,1006 1691,1030 1541,1030 "></polygon>
    <polygon class="fil0" points="1541,1049 1691,1049 1691,1073 1541,1073 "></polygon>
   </g>
   <polygon class="fil0" points="1557,909 1557,728 1589,728 1589,909 "></polygon>
   <path class="fil0" d="M1526 762l124 0 0 32 -110 0c-2,-12 -7,-23 -14,-32z"></path>
  </g>
 </g>
 <rect class="fil1" width="2048" height="2048"></rect>
</svg>