<svg xmlns="http://www.w3.org/2000/svg" xmlns:xlink="http://www.w3.org/1999/xlink" xml:space="preserve" width="2048px" height="2048px" style="shape-rendering:geometricPrecision; text-rendering:geometricPrecision; image-rendering:optimizeQuality; fill-rule:evenodd; clip-rule:evenodd" viewBox="0 0 2048 2048">
 <defs>
  <style type="text/css">
   <![CDATA[
    .fil1 {fill:none}
    .fil0 {fill:#212121;fill-rule:nonzero}
   ]]>
  </style>
 </defs>
 <g id="Layer_x0020_1">
  <metadata id="CorelCorpID_0Corel-Layer"></metadata>
  <path class="fil0" d="M1389 1226c18,0 32,14 32,32 0,18 -14,32 -32,32l-774 0c-18,0 -32,-14 -32,-32 0,-18 14,-32 32,-32l774 0zm-970 0c18,0 32,14 32,32 0,18 -14,32 -32,32l-110 0c-18,0 -32,-14 -32,-32 0,-211 0,-301 132,-335l64 -29 60 -241c4,-15 17,-24 31,-24l0 0 1216 0c18,0 32,14 32,32l0 597c0,18 -14,32 -32,32l-195 0c-18,0 -32,-14 -32,-32 0,-18 14,-32 32,-32l163 0 0 -533 -1159 0 -58 232 0 0c-2,9 -9,17 -18,21l-79 35c-2,1 -5,2 -7,3 -81,20 -86,87 -86,242l78 0z"></path>
  <path class="fil0" d="M520 693c-18,0 -32,-14 -32,-32 0,-18 14,-32 32,-32l69 0c18,0 32,14 32,32 0,18 -14,32 -32,32l-69 0z"></path>
  <path class="fil0" d="M267 1290c-18,0 -32,-14 -32,-32 0,-18 14,-32 32,-32l69 0c18,0 32,14 32,32 0,18 -14,32 -32,32l-69 0z"></path>
  <path class="fil0" d="M498 946c-18,0 -32,-14 -32,-32 0,-18 14,-32 32,-32l195 0c18,0 32,14 32,32 0,18 -14,32 -32,32l-195 0z"></path>
  <path class="fil0" d="M923 946c-18,0 -32,-14 -32,-32 0,-18 14,-32 32,-32l858 0c18,0 32,14 32,32 0,18 -14,32 -32,32l-858 0z"></path>
  <path class="fil0" d="M661 693c0,-18 14,-32 32,-32 18,0 32,14 32,32l0 565c0,18 -14,32 -32,32 -18,0 -32,-14 -32,-32l0 -565z"></path>
  <path class="fil0" d="M885 693c0,-18 14,-32 32,-32 18,0 32,14 32,32l0 565c0,18 -14,32 -32,32 -18,0 -32,-14 -32,-32l0 -565z"></path>
  <path class="fil0" d="M1077 693c0,-18 14,-32 32,-32 18,0 32,14 32,32l0 221c0,18 -14,32 -32,32 -18,0 -32,-14 -32,-32l0 -221z"></path>
  <path class="fil0" d="M1301 693c0,-18 14,-32 32,-32 18,0 32,14 32,32l0 221c0,18 -14,32 -32,32 -18,0 -32,-14 -32,-32l0 -221z"></path>
  <path class="fil0" d="M1525 693c0,-18 14,-32 32,-32 18,0 32,14 32,32l0 221c0,18 -14,32 -32,32 -18,0 -32,-14 -32,-32l0 -221z"></path>
  <path class="fil0" d="M517 1151c37,0 70,15 95,39 24,24 39,58 39,95 0,37 -15,70 -39,95 -24,24 -58,39 -95,39 -37,0 -70,-15 -95,-39 -24,-24 -39,-58 -39,-95 0,-37 15,-70 39,-95 24,-24 58,-39 95,-39zm49 84c-13,-13 -30,-20 -49,-20 -19,0 -37,8 -49,20 -13,13 -20,30 -20,49 0,19 8,37 20,49 13,13 30,20 49,20 19,0 37,-8 49,-20 13,-13 20,-30 20,-49 0,-19 -8,-37 -20,-49z"></path>
  <path class="fil0" d="M1487 1151c37,0 70,15 95,39 24,24 39,58 39,95 0,37 -15,70 -39,95 -24,24 -58,39 -95,39 -37,0 -70,-15 -95,-39 -24,-24 -39,-58 -39,-95 0,-37 15,-70 39,-95 24,-24 58,-39 95,-39zm49 84c-13,-13 -30,-20 -49,-20 -19,0 -37,8 -49,20 -13,13 -20,30 -20,49 0,19 8,37 20,49 13,13 30,20 49,20 19,0 37,-8 49,-20 13,-13 20,-30 20,-49 0,-19 -8,-37 -20,-49z"></path>
  <polygon class="fil0" points="1144,1173 1144,992 1176,992 1176,1173 "></polygon>
  <polygon class="fil0" points="1084,1027 1237,1027 1237,1059 1084,1059 "></polygon>
  <polygon class="fil0" points="1263,1027 1597,1027 1597,1059 1263,1059 "></polygon>
  <polygon class="fil0" points="1263,1082 1511,1082 1511,1114 1263,1114 "></polygon>
  <path class="fil0" d="M693 820c-18,0 -32,-14 -32,-32 0,-18 14,-32 32,-32l195 0c18,0 32,14 32,32 0,18 -14,32 -32,32l-195 0z"></path>
 </g>
 <rect class="fil1" width="2048" height="2048"></rect>
</svg>