<svg xmlns="http://www.w3.org/2000/svg" xmlns:xlink="http://www.w3.org/1999/xlink" xml:space="preserve" width="2048px" height="2048px" style="shape-rendering:geometricPrecision; text-rendering:geometricPrecision; image-rendering:optimizeQuality; fill-rule:evenodd; clip-rule:evenodd" viewBox="0 0 2048 2048">
 <defs>
  <style type="text/css">
   <![CDATA[
    .fil1 {fill:none}
    .fil0 {fill:#212121;fill-rule:nonzero}
   ]]>
  </style>
 </defs>
 <g id="Layer_x0020_1">
  <metadata id="CorelCorpID_0Corel-Layer"></metadata>
  <g id="_514937256">
   <path class="fil0" d="M1024 691l-240 0c-18,0 -32,-14 -32,-32 0,-75 30,-143 80,-192 49,-49 117,-80 192,-80 75,0 143,30 192,80 49,49 80,117 80,192 0,18 -14,32 -32,32l-240 0zm-206 -64l206 0 206 0c-7,-45 -28,-85 -58,-115 -38,-38 -90,-61 -147,-61 -57,0 -109,23 -147,61 -31,31 -52,70 -58,115z"></path>
   <path class="fil0" d="M744 691c-18,0 -32,-14 -32,-32 0,-18 14,-32 32,-32l561 0c18,0 32,14 32,32 0,18 -14,32 -32,32l-561 0z"></path>
   <path class="fil0" d="M1008 338c0,-9 7,-16 16,-16 9,0 16,7 16,16l0 67c0,9 -7,16 -16,16 -9,0 -16,-7 -16,-16l0 -67z"></path>
   <path class="fil0" d="M1025 269c-9,-1 -15,-9 -14,-17 1,-9 9,-15 17,-14 14,1 27,8 36,18 9,10 14,23 14,37 0,15 -6,29 -16,39 -10,10 -24,16 -39,16 -11,0 -22,-3 -31,-9 -9,-6 -16,-15 -20,-25 -3,-8 1,-17 9,-21 8,-3 17,1 21,9 2,4 5,8 9,11 4,3 8,4 13,4 6,0 12,-3 17,-7 4,-4 7,-10 7,-17 0,-6 -2,-12 -6,-16 -4,-4 -9,-7 -15,-8z"></path>
   <path class="fil0" d="M848 627l352 0c18,0 32,14 32,32l0 432c0,18 -14,32 -32,32l-352 0c-18,0 -32,-14 -32,-32l0 -432c0,-18 14,-32 32,-32zm320 64l-288 0 0 368 288 0 0 -368z"></path>
   <path class="fil0" d="M720 1182l608 0 0 -59 -608 0 0 59zm640 64l-672 0c-18,0 -32,-14 -32,-32l0 -124c0,-18 14,-32 32,-32l672 0c18,0 32,14 32,32l0 124c0,18 -14,32 -32,32z"></path>
   <path class="fil0" d="M816 1763l416 0 0 -516 -416 0 0 516zm448 64l-480 0c-18,0 -32,-14 -32,-32l0 -581c0,-18 14,-32 32,-32l480 0c18,0 32,14 32,32l0 581c0,18 -14,32 -32,32z"></path>
   <path class="fil0" d="M1024 1344l0 0c27,0 52,11 69,29 18,18 29,42 29,69l0 206c0,9 -7,16 -16,16l-165 0c-9,0 -16,-7 -16,-16l0 -206c0,-27 11,-52 29,-69 18,-18 42,-29 69,-29zm0 32l0 0c-18,0 -35,7 -47,19 -12,12 -19,29 -19,47l0 190 133 0 0 -190c0,-18 -7,-35 -19,-47 -12,-12 -29,-19 -47,-19z"></path>
   <path class="fil0" d="M1024 773l0 0c18,0 34,7 46,19 12,12 19,28 19,46l0 123c0,9 -7,16 -16,16l-98 0c-9,0 -16,-7 -16,-16l0 -123c0,-18 7,-34 19,-46 12,-12 28,-19 46,-19zm0 32l0 0c-9,0 -17,4 -23,10 -6,6 -10,14 -10,23l0 107 66 0 0 -107c0,-9 -4,-17 -10,-23 -6,-6 -14,-10 -23,-10z"></path>
  </g>
 </g>
 <rect class="fil1" width="2048" height="2048"></rect>
</svg>