<svg xmlns="http://www.w3.org/2000/svg" xmlns:xlink="http://www.w3.org/1999/xlink" xml:space="preserve" width="2048px" height="2048px" style="shape-rendering:geometricPrecision; text-rendering:geometricPrecision; image-rendering:optimizeQuality; fill-rule:evenodd; clip-rule:evenodd" viewBox="0 0 2048 2048">
 <defs>
  <style type="text/css">
   <![CDATA[
    .fil1 {fill:none}
    .fil0 {fill:#212121;fill-rule:nonzero}
   ]]>
  </style>
 </defs>
 <g id="Layer_x0020_1">
  <metadata id="CorelCorpID_0Corel-Layer"></metadata>
  <g id="_514939080">
   <path class="fil0" d="M1367 759c0,-18 14,-32 32,-32 18,0 32,14 32,32 0,147 -47,299 -122,412 -73,110 -173,183 -285,183 -112,0 -213,-70 -286,-177 -74,-108 -121,-254 -121,-400 0,-18 14,-32 32,-32 18,0 32,14 32,32 0,133 42,266 109,364 62,90 144,149 234,149 88,0 170,-62 232,-155 69,-103 111,-242 111,-377z"></path>
   <path class="fil0" d="M1646 1760c-10,-65 -50,-124 -103,-175 -80,-76 -189,-133 -280,-164 -4,4 -8,8 -12,11 -66,61 -146,91 -227,90 -80,0 -160,-30 -227,-90 -4,-4 -8,-8 -13,-12 -91,31 -199,88 -279,164 -53,51 -93,110 -104,176l1243 0zm-59 -222c73,69 124,154 126,250 0,1 0,2 0,3 0,18 -14,32 -32,32l-1313 0 0 0 0 0c-18,0 -32,-15 -32,-32 1,-98 53,-183 126,-254 93,-89 221,-153 323,-184l0 0c11,-3 24,0 33,9 7,7 14,15 23,22 54,49 119,73 184,74 65,0 130,-24 184,-74 7,-6 14,-14 22,-22l0 0c8,-9 21,-13 33,-9 101,31 230,96 323,185z"></path>
   <path class="fil0" d="M1193 305c0,-18 15,-32 33,-31 18,0 32,15 31,33 -1,43 -7,86 -16,127 -11,50 -25,95 -39,128 -70,170 -201,178 -333,187 -76,5 -153,9 -211,51 -28,20 -60,51 -77,96 -17,45 -20,105 10,185 6,16 -2,35 -18,41 -16,6 -35,-2 -41,-18 -37,-97 -33,-172 -10,-231 23,-59 64,-99 100,-125 73,-52 159,-57 244,-63 112,-7 224,-14 278,-147 12,-29 25,-71 35,-118 8,-37 13,-77 14,-115z"></path>
   <path class="fil0" d="M1143 572c-6,-16 2,-35 19,-41 16,-6 35,2 41,19 52,139 124,149 190,157 78,10 148,19 183,153 4,17 -6,34 -23,39 -17,4 -34,-6 -39,-23 -24,-93 -74,-99 -130,-106 -83,-11 -176,-23 -241,-198z"></path>
   <path class="fil0" d="M586 1506c-3,17 -20,29 -37,26 -17,-3 -29,-20 -26,-37 5,-25 10,-45 15,-65 12,-46 23,-89 18,-183 -5,-97 -23,-144 -39,-184 -17,-44 -32,-82 -30,-160 2,-111 38,-181 71,-246 23,-44 44,-86 49,-134 14,-131 103,-217 219,-262 65,-25 138,-37 211,-37 73,0 147,13 212,38 121,46 215,134 229,261 5,48 22,84 41,121 27,56 57,117 58,227 1,78 -18,124 -39,175 -20,49 -42,103 -48,201 -5,91 15,144 38,204 6,16 12,33 18,50 6,17 -3,35 -20,41 -17,6 -35,-3 -41,-20 -6,-17 -12,-33 -18,-48 -25,-67 -48,-125 -42,-230 6,-108 30,-168 52,-221 18,-45 35,-85 34,-150 -2,-96 -28,-150 -52,-200 -21,-43 -40,-83 -47,-142 -11,-100 -88,-170 -188,-208 -58,-22 -124,-34 -189,-34 -65,0 -131,10 -188,33 -95,37 -168,106 -179,210 -6,60 -30,106 -55,156 -30,59 -63,123 -64,218 -1,65 12,98 26,136 18,45 37,97 43,204 6,103 -7,151 -20,202 -5,19 -10,38 -14,60z"></path>
  </g>
  <g id="_514938120">
   <g>
    <path class="fil0" d="M1185 795c26,0 51,5 72,14 22,10 41,23 55,40 4,5 3,11 0,15 -13,17 -32,30 -55,40 -21,9 -46,14 -72,14 -32,0 -52,-15 -69,-28 -10,-8 -18,-14 -27,-14 -7,0 -12,-5 -12,-12 0,-3 1,-6 3,-8 26,-32 49,-61 104,-61zm63 36c-18,-8 -40,-12 -63,-12 -36,0 -56,17 -74,38 7,4 13,9 20,14 14,11 30,23 54,23 23,0 44,-4 63,-12 15,-6 28,-15 39,-26 -10,-10 -24,-19 -39,-26z"></path>
    <path class="fil0" d="M1191 796c15,0 28,6 37,15 10,10 15,23 15,37 0,15 -6,28 -15,37 -10,10 -23,15 -37,15 -15,0 -28,-6 -37,-15 -10,-10 -15,-23 -15,-37 0,-15 6,-28 15,-37 10,-10 23,-15 37,-15zm20 32c-5,-5 -12,-8 -20,-8 -8,0 -15,3 -20,8 -5,5 -8,12 -8,20 0,8 3,15 8,20 5,5 12,8 20,8 8,0 15,-3 20,-8 5,-5 8,-12 8,-20 0,-8 -3,-15 -8,-20z"></path>
    <path class="fil0" d="M1079 893c5,-8 11,-16 19,-20l0 0c2,-1 5,-2 7,-1 7,1 11,7 10,14 -1,6 2,12 6,17 4,7 8,13 8,22 0,8 -3,15 -9,20 -5,4 -12,7 -20,7 0,0 -1,0 -1,0 -7,0 -14,-2 -20,-6 -6,-5 -10,-12 -10,-22 0,0 0,-1 0,-1 0,-7 4,-19 10,-29zm19 16c-3,5 -4,11 -4,13 0,0 0,1 0,1 0,2 1,3 1,3 1,1 3,1 5,1 0,0 1,0 1,0 2,0 4,-1 5,-1 1,0 1,-1 1,-2 0,-2 -2,-6 -4,-9 -1,-2 -2,-4 -3,-6z"></path>
    <path class="fil0" d="M1122 994c3,-6 8,-11 14,-14l0 0c2,-1 5,-2 7,-1 7,1 11,7 10,14 0,2 1,5 3,8 3,5 6,9 6,16 0,6 -3,12 -7,16 -4,3 -9,5 -15,6 0,0 -1,0 -1,0 -5,0 -11,-1 -15,-5 -5,-4 -8,-9 -8,-17 0,0 0,-1 0,-1 0,-5 2,-13 7,-21z"></path>
   </g>
   <g>
    <path class="fil0" d="M863 819c-23,0 -44,4 -63,12 -15,6 -28,15 -39,26 10,10 24,19 39,26 18,8 40,12 63,12 24,0 40,-12 54,-23 7,-5 13,-11 20,-14 -18,-21 -38,-38 -74,-38zm-72 -10c21,-9 46,-14 72,-14 55,0 78,29 104,61 2,2 3,5 3,8 0,7 -5,12 -12,12 -8,0 -17,7 -27,14 -17,13 -36,28 -69,28 -26,0 -51,-5 -72,-14 -22,-9 -41,-23 -55,-40 -4,-4 -4,-11 0,-15 13,-17 32,-31 55,-40z"></path>
    <path class="fil0" d="M857 820c-8,0 -15,3 -20,8 -5,5 -8,12 -8,20 0,8 3,15 8,20 5,5 12,8 20,8 8,0 15,-3 20,-8 5,-5 8,-12 8,-20 0,-8 -3,-15 -8,-20 -5,-5 -12,-8 -20,-8zm-37 -9c10,-10 23,-15 37,-15 15,0 28,6 37,15 10,10 15,23 15,37 0,15 -6,28 -15,37 -10,10 -23,15 -37,15 -15,0 -28,-6 -37,-15 -10,-10 -15,-23 -15,-37 0,-15 6,-28 15,-37z"></path>
    <path class="fil0" d="M950 895c8,4 15,12 19,20 6,10 10,22 10,29 0,0 0,1 0,1 0,10 -4,17 -10,22 -6,4 -13,6 -20,6 0,0 -1,0 -1,0 -8,0 -15,-3 -20,-7 -6,-5 -9,-12 -9,-20 0,-9 4,-15 8,-22 3,-5 6,-10 6,-17 -1,-7 4,-13 10,-14 3,0 5,0 7,1l0 0zm5 49c0,-3 -2,-8 -4,-13 -1,2 -2,4 -3,6 -2,4 -4,7 -4,9 0,1 0,2 1,2 1,1 2,1 5,1 0,0 1,0 1,0 2,0 4,0 5,-1 1,0 1,-2 1,-3 0,0 0,-1 0,-1z"></path>
    <path class="fil0" d="M905 960c6,3 11,8 14,14 4,7 7,16 7,21 0,0 0,1 0,1 0,8 -4,13 -8,17 -4,3 -10,5 -15,5 0,0 -1,0 -1,0 -6,0 -11,-2 -15,-6 -5,-4 -7,-9 -7,-16 0,-7 3,-12 6,-16 2,-3 3,-5 3,-8 -1,-7 4,-13 10,-14 3,0 5,0 7,1l0 0z"></path>
   </g>
  </g>
  <path class="fil0" d="M931 1141c-8,4 -17,1 -21,-7 -4,-8 -1,-17 7,-21 33,-17 68,-26 104,-26 36,0 72,8 110,25 8,4 12,13 8,21 -4,8 -13,12 -21,8 -34,-15 -66,-23 -97,-23 -31,0 -60,8 -89,22z"></path>
 </g>
 <rect class="fil1" width="2048" height="2048"></rect>
</svg>