<svg xmlns="http://www.w3.org/2000/svg" xmlns:xlink="http://www.w3.org/1999/xlink" xml:space="preserve" width="2048px" height="2048px" style="shape-rendering:geometricPrecision; text-rendering:geometricPrecision; image-rendering:optimizeQuality; fill-rule:evenodd; clip-rule:evenodd" viewBox="0 0 2048 2048">
 <defs>
  <style type="text/css">
   <![CDATA[
    .fil1 {fill:none}
    .fil0 {fill:#212121;fill-rule:nonzero}
   ]]>
  </style>
 </defs>
 <g id="Layer_x0020_1">
  <metadata id="CorelCorpID_0Corel-Layer"></metadata>
  <g id="_514939896">
   <g>
    <g>
     <path class="fil0" d="M561 1001c49,0 94,20 127,51 33,32 53,75 53,123l0 12 26 0c9,0 16,7 16,16l0 24c17,5 29,17 35,30 4,8 6,17 6,26 0,9 -2,18 -6,26 -6,14 -18,25 -35,30l0 24c0,9 -7,16 -16,16l-26 0 0 275 78 0c9,0 16,7 16,16l0 66c0,9 -7,16 -16,16l-515 0c-9,0 -16,-7 -16,-16l0 -66c0,-9 7,-16 16,-16l78 0 0 -275 -26 0c-9,0 -16,-7 -16,-16l0 -24c-17,-5 -29,-17 -35,-30 -4,-8 -6,-17 -6,-26 0,-9 2,-18 6,-26 6,-14 18,-25 35,-30l0 -24c0,-9 7,-16 16,-16l26 0 0 -12c0,-48 20,-92 53,-123 33,-32 77,-51 127,-51zm105 74c-27,-26 -64,-42 -105,-42 -41,0 -78,16 -105,42 -27,26 -43,61 -43,101l0 28c0,9 -7,16 -16,16l-26 0 0 21 0 0c0,8 -6,15 -15,16 -12,1 -20,7 -23,15 -2,4 -3,8 -3,12 0,4 1,9 3,12 4,8 11,14 23,15 9,0 16,7 16,16l0 21 26 0c9,0 16,7 16,16l0 307c0,9 -7,16 -16,16l-78 0 0 34 483 0 0 -34 -78 0c-9,0 -16,-7 -16,-16l0 -307c0,-9 7,-16 16,-16l26 0 0 -21 0 0c0,-8 6,-15 15,-16 12,-1 20,-7 23,-15 2,-4 3,-8 3,-12 0,-4 -1,-9 -3,-12 -4,-8 -11,-14 -23,-15 -9,0 -16,-7 -16,-16l0 -21 -26 0c-9,0 -16,-7 -16,-16l0 -28c0,-39 -17,-75 -43,-101z"></path>
     <polygon class="fil0" points="481,1406 642,1406 642,1438 481,1438 "></polygon>
     <polygon class="fil0" points="438,1453 685,1453 685,1485 438,1485 "></polygon>
     <polygon class="fil0" points="438,1500 685,1500 685,1532 438,1532 "></polygon>
     <path class="fil0" d="M666 1278c-10,17 -24,32 -41,42 -17,10 -36,15 -57,15 -31,0 -59,-13 -80,-33 -20,-20 -33,-48 -33,-80 0,-30 11,-57 30,-77 19,-20 45,-34 74,-36 9,-1 16,6 17,15 0,6 -3,12 -8,15l0 0c-10,6 -19,15 -25,25 -6,10 -9,21 -9,34 0,19 8,36 20,49 12,12 30,20 49,20 7,0 14,-1 20,-3 7,-2 13,-5 18,-9 7,-5 17,-3 22,4 3,5 4,12 1,17l0 0zm-98 26c9,0 17,-1 25,-4 -23,-3 -44,-13 -59,-29 -18,-18 -30,-43 -30,-71 0,-11 2,-22 5,-32l0 0c-13,14 -22,34 -22,55 0,22 9,42 24,57 15,15 35,24 57,24z"></path>
    </g>
    <g>
     <path class="fil0" d="M1487 1001c49,0 94,20 127,51 33,32 53,75 53,123l0 12 26 0c9,0 16,7 16,16l0 24c17,5 29,17 35,30 4,8 6,17 6,26 0,9 -2,18 -6,26 -6,14 -18,25 -35,30l0 24c0,9 -7,16 -16,16l-26 0 0 275 78 0c9,0 16,7 16,16l0 66c0,9 -7,16 -16,16l-515 0c-9,0 -16,-7 -16,-16l0 -66c0,-9 7,-16 16,-16l78 0 0 -275 -26 0c-9,0 -16,-7 -16,-16l0 -24c-17,-5 -29,-17 -35,-30 -4,-8 -6,-17 -6,-26 0,-9 2,-18 6,-26 6,-14 18,-25 35,-30l0 -24c0,-9 7,-16 16,-16l26 0 0 -12c0,-48 20,-92 53,-123 33,-32 77,-51 127,-51zm105 74c-27,-26 -64,-42 -105,-42 -41,0 -78,16 -105,42 -27,26 -43,61 -43,101l0 28c0,9 -7,16 -16,16l-26 0 0 21 0 0c0,8 -6,15 -15,16 -12,1 -20,7 -23,15 -2,4 -3,8 -3,12 0,4 1,9 3,12 4,8 11,14 23,15 9,0 16,7 16,16l0 21 26 0c9,0 16,7 16,16l0 307c0,9 -7,16 -16,16l-78 0 0 34 483 0 0 -34 -78 0c-9,0 -16,-7 -16,-16l0 -307c0,-9 7,-16 16,-16l26 0 0 -21 0 0c0,-8 6,-15 15,-16 12,-1 20,-7 23,-15 2,-4 3,-8 3,-12 0,-4 -1,-9 -3,-12 -4,-8 -11,-14 -23,-15 -9,0 -16,-7 -16,-16l0 -21 -26 0c-9,0 -16,-7 -16,-16l0 -28c0,-39 -17,-75 -43,-101z"></path>
     <polygon class="fil0" points="1406,1406 1567,1406 1567,1438 1406,1438 "></polygon>
     <polygon class="fil0" points="1363,1453 1610,1453 1610,1485 1363,1485 "></polygon>
     <polygon class="fil0" points="1363,1500 1610,1500 1610,1532 1363,1532 "></polygon>
     <path class="fil0" d="M1591 1278c-10,17 -24,32 -41,42 -17,10 -36,15 -57,15 -31,0 -59,-13 -80,-33 -20,-20 -33,-48 -33,-80 0,-30 11,-57 30,-77 19,-20 45,-34 74,-36 9,-1 16,6 17,15 0,6 -3,12 -8,15l0 0c-10,6 -19,15 -25,25 -6,10 -9,21 -9,34 0,19 8,36 20,49 12,12 30,20 49,20 7,0 14,-1 20,-3 7,-2 13,-5 18,-9 7,-5 17,-3 22,4 3,5 4,12 1,17l0 0zm-98 26c9,0 17,-1 25,-4 -23,-3 -44,-13 -59,-29 -18,-18 -30,-43 -30,-71 0,-11 2,-22 5,-32l0 0c-13,14 -22,34 -22,55 0,22 9,42 24,57 15,15 35,24 57,24z"></path>
    </g>
   </g>
   <g>
    <path class="fil0" d="M1009 297c49,0 94,20 127,51 33,32 53,75 53,123l0 12 26 0c9,0 16,7 16,16l0 24c17,5 29,17 35,30 4,8 6,17 6,26 0,9 -2,18 -6,26 -6,14 -18,25 -35,30l0 24c0,9 -7,16 -16,16l-26 0 0 275 78 0c9,0 16,7 16,16l0 66c0,9 -7,16 -16,16l-515 0c-9,0 -16,-7 -16,-16l0 -66c0,-9 7,-16 16,-16l78 0 0 -275 -26 0c-9,0 -16,-7 -16,-16l0 -24c-17,-5 -29,-17 -35,-30 -4,-8 -6,-17 -6,-26 0,-9 2,-18 6,-26 6,-14 18,-25 35,-30l0 -24c0,-9 7,-16 16,-16l26 0 0 -12c0,-48 20,-92 53,-123 33,-32 77,-51 127,-51zm105 74c-27,-26 -64,-42 -105,-42 -41,0 -78,16 -105,42 -27,26 -43,61 -43,101l0 28c0,9 -7,16 -16,16l-26 0 0 21 0 0c0,8 -6,15 -15,16 -12,1 -20,7 -23,15 -2,4 -3,8 -3,12 0,4 1,9 3,12 4,8 11,14 23,15 9,0 16,7 16,16l0 21 26 0c9,0 16,7 16,16l0 307c0,9 -7,16 -16,16l-78 0 0 34 483 0 0 -34 -78 0c-9,0 -16,-7 -16,-16l0 -307c0,-9 7,-16 16,-16l26 0 0 -21 0 0c0,-8 6,-15 15,-16 12,-1 20,-7 23,-15 2,-4 3,-8 3,-12 0,-4 -1,-9 -3,-12 -4,-8 -11,-14 -23,-15 -9,0 -16,-7 -16,-16l0 -21 -26 0c-9,0 -16,-7 -16,-16l0 -28c0,-39 -17,-75 -43,-101z"></path>
    <polygon class="fil0" points="929,702 1090,702 1090,734 929,734 "></polygon>
    <polygon class="fil0" points="886,749 1133,749 1133,781 886,781 "></polygon>
    <polygon class="fil0" points="886,796 1133,796 1133,828 886,828 "></polygon>
    <path class="fil0" d="M1114 574c-10,17 -24,32 -41,42 -17,10 -36,15 -57,15 -31,0 -59,-13 -80,-33 -20,-20 -33,-48 -33,-80 0,-30 11,-57 30,-77 19,-20 45,-34 74,-36 9,-1 16,6 17,15 0,6 -3,12 -8,15l0 0c-10,6 -19,15 -25,25 -6,10 -9,21 -9,34 0,19 8,36 20,49 12,12 30,20 49,20 7,0 14,-1 20,-3 7,-2 13,-5 18,-9 7,-5 17,-3 22,4 3,5 4,12 1,17l0 0zm-98 26c9,0 17,-1 25,-4 -23,-3 -44,-13 -59,-29 -18,-18 -30,-43 -30,-71 0,-11 2,-22 5,-32l0 0c-13,14 -22,34 -22,55 0,22 9,42 24,57 15,15 35,24 57,24z"></path>
   </g>
  </g>
 </g>
 <rect class="fil1" width="2048" height="2048"></rect>
</svg>