<svg xmlns="http://www.w3.org/2000/svg" xmlns:xlink="http://www.w3.org/1999/xlink" xml:space="preserve" width="2048px" height="2048px" style="shape-rendering:geometricPrecision; text-rendering:geometricPrecision; image-rendering:optimizeQuality; fill-rule:evenodd; clip-rule:evenodd" viewBox="0 0 2048 2048">
 <defs>
  <style type="text/css">
   <![CDATA[
    .fil1 {fill:none}
    .fil0 {fill:#212121;fill-rule:nonzero}
   ]]>
  </style>
 </defs>
 <g id="Layer_x0020_1">
  <metadata id="CorelCorpID_0Corel-Layer"></metadata>
  <g id="_514942368">
   <path class="fil0" d="M504 948c111,0 210,37 309,75l0 0 0 0 0 0 0 0c76,29 152,57 218,57 66,0 142,-29 218,-57l0 0 0 0c99,-37 199,-75 309,-75l16 0 0 16 0 220 0 16 -16 0c-68,0 -145,29 -222,58l0 0c-49,18 -98,37 -148,51 -51,14 -103,23 -157,23 -109,0 -207,-37 -305,-74l0 0c-39,-15 -78,-29 -116,-40 -37,-11 -73,-18 -106,-18l-16 0 0 -16 0 -220 0 -16 16 0zm298 104c-91,-34 -183,-69 -282,-72l0 188c32,2 65,9 99,19 39,11 78,26 118,41l0 0c96,36 191,72 294,72 52,0 101,-9 149,-22 49,-13 97,-32 145,-50l0 0c74,-28 148,-56 217,-60l0 -188c-99,3 -191,38 -282,72l0 0 0 0c-79,30 -158,59 -229,59 -71,0 -150,-30 -229,-59l0 0 0 0 0 0zm458 0l0 0m-11 -30l0 0m-512 205l0 0m-11 30l0 0"></path>
   <path class="fil0" d="M543 1189c0,-8 7,-15 15,-15 8,0 15,7 15,15l0 43c0,7 -5,13 -12,15l-226 61c-8,2 -16,-3 -19,-11 -1,-4 0,-9 2,-12l79 -129 -77 -81c-6,-6 -5,-16 1,-21 2,-2 4,-3 6,-4l0 0 167 -45c8,-2 16,3 19,11 2,8 -3,16 -11,19l-142 38 67 71c5,5 7,13 3,19l-65 107 178 -48 0 -31z"></path>
   <path class="fil0" d="M1488 1190c0,-9 7,-16 16,-16 9,0 16,7 16,16l0 32 177 45 -64 -106c-4,-7 -3,-15 3,-20l66 -69 -138 -36c-9,-2 -14,-11 -11,-19 2,-9 11,-14 19,-11l164 42 0 0c3,1 5,2 7,4 6,6 7,16 1,22l-77 81 79 129 0 0c2,4 3,8 2,12 -2,9 -11,14 -19,11l-225 -58c-8,-1 -13,-8 -13,-16l0 -44z"></path>
   <g>
    <g>
     <path class="fil0" d="M1021 460c-16,-13 -29,-29 -38,-48 -9,-18 -14,-39 -14,-60 0,-21 5,-42 14,-60 9,-19 22,-35 39,-48 6,-5 14,-4 20,0 16,13 29,29 38,48 9,18 14,39 14,60 0,21 -5,42 -14,60 -9,19 -22,35 -39,48 -6,5 -14,4 -20,0zm-10 -62c5,10 12,20 20,28 8,-8 15,-18 20,-28 7,-14 11,-30 11,-46 0,-17 -4,-32 -11,-46 -5,-10 -12,-20 -20,-28 -8,8 -15,18 -20,28 -7,14 -11,30 -11,46 0,17 4,32 11,46z"></path>
     <path class="fil0" d="M1019 437c13,-16 29,-29 48,-38 18,-9 39,-14 60,-14 21,0 42,5 60,14 19,9 35,22 48,39 5,6 4,14 0,20 -13,16 -29,29 -48,38 -18,9 -39,14 -60,14 -21,0 -42,-5 -60,-14 -19,-9 -35,-22 -48,-39 -5,-6 -4,-14 0,-20zm62 -10c-10,5 -20,12 -28,20 8,8 18,15 28,20 14,7 30,11 46,11 17,0 32,-4 46,-11 10,-5 20,-12 28,-20 -8,-8 -18,-15 -28,-20 -14,-7 -30,-11 -46,-11 -17,0 -32,4 -46,11z"></path>
     <path class="fil0" d="M1032 469c-8,8 -15,18 -20,28 -7,14 -11,30 -11,46 0,17 4,32 11,46 5,10 12,20 20,28 8,-8 15,-18 20,-28 7,-14 11,-30 11,-46 0,-17 -4,-32 -11,-46 -5,-10 -12,-20 -20,-28zm-49 14c9,-19 22,-35 38,-48 6,-5 14,-5 20,0 16,13 30,29 39,48 9,18 14,39 14,60 0,21 -5,42 -14,60 -9,19 -22,35 -38,48 -6,5 -14,5 -20,0 -16,-13 -30,-29 -39,-48 -9,-18 -14,-39 -14,-60 0,-21 5,-42 14,-60z"></path>
     <path class="fil0" d="M1010 447c-8,-8 -18,-15 -28,-20 -14,-7 -30,-11 -46,-11 -17,0 -32,4 -46,11 -10,5 -20,12 -28,20 8,8 18,15 28,20 14,7 30,11 46,11 17,0 32,-4 46,-11 10,-5 20,-12 28,-20zm-14 -49c19,9 35,22 48,38 5,6 5,14 0,20 -13,16 -29,30 -48,39 -18,9 -39,14 -60,14 -21,0 -42,-5 -60,-14 -19,-9 -35,-22 -48,-38 -5,-6 -5,-14 0,-20 13,-16 29,-30 48,-39 18,-9 39,-14 60,-14 21,0 42,5 60,14z"></path>
    </g>
    <g>
     <path class="fil0" d="M1068 324c14,-11 30,-19 47,-24 17,-5 36,-6 54,-4 8,1 13,7 14,14 2,18 1,36 -4,53 -5,17 -13,33 -24,48 -4,5 -9,7 -14,6l0 0c-2,0 -4,0 -6,-1l0 0 0 0c-2,0 -4,0 -6,0 -12,0 -24,2 -35,6 -11,4 -21,10 -31,17 -7,5 -17,4 -22,-3 -5,-6 -4,-14 0,-20 7,-9 13,-19 17,-30 4,-11 6,-22 6,-35 0,-3 0,-5 0,-6l0 0m62 -14c-10,3 -21,8 -30,14 0,3 0,5 0,7 0,13 -2,26 -6,39 12,-4 25,-6 39,-6 2,0 4,0 7,0 6,-9 11,-19 14,-30 3,-9 4,-19 4,-28 -9,0 -19,1 -28,4zm-62 8c-1,-6 2,-11 6,-15"></path>
     <path class="fil0" d="M1155 483c11,14 19,30 24,47 5,17 6,36 4,54 -1,8 -7,13 -14,14 -18,2 -36,1 -53,-4 -17,-5 -33,-13 -48,-24 -5,-4 -7,-9 -6,-14l0 0c0,-2 0,-4 1,-6l0 0 0 0c0,-2 0,-4 0,-6 0,-12 -2,-24 -6,-35 -4,-11 -10,-21 -17,-31 -3,-4 -4,-10 -3,-15 -6,2 -12,1 -17,-4l0 0 0 0c-3,-3 -5,-7 -5,-11l0 0 0 0c0,-9 7,-16 16,-16 5,0 9,2 12,5l0 0 0 0 0 0 0 0 0 0 0 0 0 0 0 0 0 0 0 0 0 0 0 0 0 0 0 0 0 0 0 0 0 0 0 0 0 0 0 0 0 0 0 0 0 0 0 0 0 0 0 0 0 0 0 0 0 0c1,1 1,3 1,4l0 0 0 0 0 0 0 0 0 0c0,0 0,1 0,1l0 0c0,2 0,4 -1,5 5,-2 11,-1 15,3 9,7 19,13 30,17 11,4 22,6 35,6 3,0 5,0 6,0l0 0m14 62c-3,-10 -8,-21 -14,-30 -3,0 -5,0 -7,0 -13,0 -26,-2 -39,-6 4,12 6,25 6,39 0,2 0,4 0,7 9,6 19,11 30,14 9,3 19,4 28,4 0,-9 -1,-19 -4,-28zm-8 -62c6,-1 11,2 15,6"></path>
     <path class="fil0" d="M929 509c-6,9 -11,19 -14,30 -3,9 -4,19 -4,28 9,0 19,-1 28,-4 10,-3 21,-8 30,-14 0,-3 0,-5 0,-7 0,-13 2,-26 6,-39 -12,4 -25,6 -39,6 -2,0 -4,0 -7,0zm-44 21c5,-17 13,-33 24,-47 3,-4 9,-7 15,-6 2,0 4,0 6,1l0 0c2,0 4,0 6,0 12,0 24,-2 35,-6 11,-4 21,-10 30,-17 6,-5 14,-5 20,0 7,5 8,15 3,22 -7,9 -13,20 -17,31 -4,11 -6,22 -6,35 0,3 0,5 0,6l0 0 0 0c0,2 0,4 1,6l0 0c1,5 -1,11 -6,14 -14,11 -31,20 -48,24 -17,5 -36,6 -53,4 -7,-1 -13,-6 -14,-14 -2,-18 -1,-36 4,-54z"></path>
     <path class="fil0" d="M969 345c-9,-6 -19,-11 -30,-14 -9,-3 -19,-4 -28,-4 0,9 1,19 4,28 3,10 8,21 14,30 3,0 5,0 7,0 13,0 26,2 39,6 -4,-12 -6,-25 -6,-39 0,-2 0,-4 0,-7zm-21 -44c17,5 33,13 47,24 4,3 7,9 6,15 0,2 0,4 -1,6l0 0c0,2 0,4 0,6 0,12 2,24 6,35 4,11 10,21 17,30 5,6 5,14 0,20 -5,7 -15,8 -22,3 -9,-7 -20,-13 -31,-17 -11,-4 -22,-6 -35,-6 -3,0 -5,0 -6,0l0 0 0 0c-2,0 -4,0 -6,1l0 0c-5,1 -11,-1 -14,-6 -11,-14 -20,-31 -24,-48 -5,-17 -6,-36 -4,-53 1,-7 6,-13 14,-14 18,-2 36,-1 54,4z"></path>
    </g>
   </g>
   <g>
    <path class="fil0" d="M1409 715c-6,-4 -7,-11 -4,-17 4,-6 11,-7 17,-4 11,7 21,17 30,30 9,13 16,27 21,41 9,26 8,66 -1,101 -8,31 -24,59 -47,71 -6,3 -13,1 -16,-5 -3,-6 -1,-13 5,-16 16,-9 28,-31 35,-57 8,-31 9,-65 1,-87 -4,-12 -10,-24 -18,-35 -7,-10 -15,-18 -23,-23z"></path>
    <path class="fil0" d="M1484 819c-12,11 -22,3 -33,-6 -6,-5 -14,-11 -18,-8 -4,3 -1,18 1,36 4,26 8,55 -5,78 3,-1 6,-2 9,-4 13,-6 25,-16 33,-28 10,-14 16,-30 18,-46 2,-14 3,-27 1,-33 -1,-2 -1,5 -6,10zm-19 -25c3,2 -1,10 2,7 24,-22 37,-19 44,-2 4,10 3,27 1,45 -2,19 -10,39 -22,57 -11,16 -26,29 -44,37 -9,4 -18,7 -26,9 -9,2 -17,3 -27,2l0 0c-4,0 -8,-3 -10,-7 -3,-6 0,-13 5,-16 8,-4 11,-8 17,-15l0 0c12,-15 8,-42 4,-66 -4,-25 -7,-47 8,-58 19,-15 34,-3 47,8z"></path>
   </g>
   <g>
    <path class="fil0" d="M1361 1450c4,-5 11,-7 17,-3 5,4 7,11 3,17 -7,11 -18,20 -31,29 -13,8 -28,15 -42,20 -26,8 -66,6 -101,-5 -31,-9 -58,-26 -70,-49 -3,-6 0,-13 5,-16 6,-3 13,0 16,5 8,17 30,29 55,37 30,9 65,11 87,5 12,-3 25,-9 36,-17 10,-7 19,-14 24,-22z"></path>
    <path class="fil0" d="M1255 1521c-11,-12 -2,-22 7,-33 5,-6 11,-13 8,-18 -3,-4 -18,-2 -36,0 -26,3 -56,6 -78,-8 1,3 2,6 3,9 5,14 15,25 27,34 14,10 30,17 45,20 14,2 27,4 33,2 2,-1 -5,-1 -10,-6zm25 -18c-2,3 -10,-1 -7,2 21,25 17,38 0,44 -10,4 -27,2 -45,-1 -19,-3 -39,-11 -56,-24 -15,-12 -28,-27 -35,-45 -4,-10 -6,-18 -8,-26 -2,-9 -2,-17 -1,-27l0 0c0,-4 3,-8 7,-10 6,-3 13,0 16,6 4,8 7,11 15,17l0 0c15,12 42,9 66,7 25,-3 47,-5 58,10 14,19 1,34 -9,47z"></path>
   </g>
   <g>
    <path class="fil0" d="M1006 1570c6,-1 13,3 14,9 1,6 -3,13 -9,14 -13,3 -27,3 -42,0 -15,-3 -31,-8 -44,-14 -25,-12 -52,-41 -70,-72 -16,-28 -25,-59 -17,-83 2,-6 9,-10 15,-8 6,2 10,9 8,15 -5,18 2,42 15,65 16,27 40,52 60,63 11,6 24,10 37,12 12,2 23,2 33,0z"></path>
    <path class="fil0" d="M880 1550c1,-16 13,-18 28,-20 8,-1 18,-2 18,-7 1,-5 -12,-14 -26,-25 -21,-16 -45,-33 -52,-59 -1,3 -3,6 -4,9 -6,14 -6,29 -4,44 3,17 10,33 20,45 9,11 17,21 23,23 2,1 -3,-4 -3,-11zm31 4c-4,0 -6,-8 -7,-4 -1,33 -13,40 -30,32 -10,-4 -21,-17 -32,-31 -12,-15 -21,-35 -24,-56 -3,-19 -2,-39 5,-57 4,-10 8,-17 12,-25 5,-7 10,-14 18,-21l0 0c3,-3 8,-4 12,-3 6,2 10,9 7,15 -3,8 -2,13 -1,23l0 0c2,19 24,35 43,50 20,15 38,28 36,47 -3,24 -23,26 -39,28z"></path>
   </g>
   <g>
    <path class="fil0" d="M688 682c-4,6 -11,7 -17,4 -6,-4 -7,-11 -4,-17 7,-11 17,-21 30,-30 13,-9 27,-16 41,-21 26,-9 66,-8 101,1 31,8 59,24 71,47 3,6 1,13 -5,16 -6,3 -13,1 -16,-5 -9,-16 -31,-28 -56,-35 -31,-8 -65,-9 -87,-1 -12,4 -24,10 -35,18 -10,7 -18,15 -23,23z"></path>
    <path class="fil0" d="M791 606c11,12 3,22 -6,33 -5,6 -11,14 -8,18 3,4 18,1 36,-1 26,-4 55,-8 78,5 -1,-3 -2,-6 -4,-9 -6,-13 -16,-25 -28,-33 -14,-10 -30,-16 -46,-18 -14,-2 -27,-3 -33,-1 -2,1 5,1 10,6zm-25 19c2,-3 10,1 7,-2 -22,-24 -19,-37 -2,-44 10,-4 27,-3 45,-1 19,2 39,10 57,22 16,11 29,26 37,44 4,9 7,18 9,26 2,9 3,17 2,27l0 0c0,4 -3,8 -7,10 -6,3 -13,0 -16,-5 -4,-8 -8,-11 -15,-17l0 0 0 0c-15,-12 -42,-8 -66,-4 -25,4 -47,7 -58,-8 -15,-19 -3,-34 8,-47z"></path>
   </g>
   <path class="fil0" d="M1254 509c-6,-3 -8,-10 -5,-16 3,-6 10,-8 16,-5 40,22 63,66 86,109 16,30 31,59 51,78 21,20 51,34 82,48 47,21 93,43 112,85 5,10 7,21 8,33 1,11 0,22 -1,33 -1,7 -7,11 -13,10 -7,-1 -11,-7 -10,-13 1,-10 2,-19 1,-28 -1,-9 -3,-17 -6,-25 -15,-34 -58,-54 -100,-73 -33,-15 -66,-30 -89,-53 -23,-22 -39,-53 -55,-84 -21,-40 -42,-81 -76,-99zm307 799c5,-5 12,-4 17,0 5,5 4,12 0,17 -23,22 -54,38 -84,54 -30,16 -59,31 -78,51 -20,21 -34,51 -48,82 -21,47 -43,93 -85,112 -43,19 -92,4 -140,-12 -32,-10 -65,-21 -93,-20 -27,1 -58,12 -90,24 -50,19 -102,38 -149,19 -48,-18 -73,-67 -98,-115 -16,-30 -31,-59 -51,-78 -21,-20 -51,-34 -82,-48 -42,-19 -83,-38 -105,-73 -4,-6 -2,-13 4,-17 6,-4 13,-2 17,4 18,28 57,46 95,64 33,15 66,30 89,53 23,22 39,53 55,84 23,44 46,88 85,103 39,15 86,-2 132,-20 33,-12 66,-25 98,-26 33,-1 67,10 101,21 45,14 89,28 124,13 34,-15 54,-58 73,-100 15,-33 30,-66 53,-89 22,-23 53,-39 84,-55 29,-15 58,-30 79,-50zm-1091 -435c0,7 -6,12 -13,11 -7,0 -12,-6 -11,-13 0,-6 1,-12 2,-17 1,-6 3,-11 5,-17 18,-48 67,-73 115,-98 30,-16 59,-31 78,-51 20,-21 34,-51 48,-82 21,-47 43,-93 85,-112l0 0c3,-2 7,-3 11,-4 4,-1 7,-2 11,-3 6,-1 13,3 14,10 1,6 -3,13 -10,14 -3,1 -6,1 -8,2 -3,1 -5,2 -8,3l0 0 0 0c-34,15 -54,58 -73,100 -15,33 -30,66 -53,89 -22,23 -53,39 -84,55 -44,23 -88,46 -103,85 -2,4 -3,9 -4,13 -1,5 -1,9 -2,14z"></path>
   <g>
    <path class="fil0" d="M553 763c-6,3 -13,1 -16,-5 -3,-6 -1,-13 5,-16 8,-5 17,-12 24,-22 8,-10 16,-22 20,-34 9,-21 11,-56 5,-87 -5,-26 -15,-49 -31,-59 -6,-4 -7,-11 -4,-17 4,-6 11,-7 17,-4 22,14 36,43 42,74 7,35 5,75 -6,101 -6,14 -14,28 -24,40 -9,12 -20,21 -32,27z"></path>
    <path class="fil0" d="M607 660c-3,-3 0,5 -3,7 -14,9 -30,20 -48,5 -14,-12 -9,-34 -4,-59 5,-23 11,-50 0,-66l0 0 0 0 0 0 0 0 0 0c-5,-8 -8,-12 -15,-16 -6,-3 -8,-11 -4,-16 2,-4 6,-6 11,-6l0 0c10,0 19,2 27,4 8,2 16,6 25,10 17,9 31,23 41,39 11,18 17,39 18,58 1,18 1,35 -4,45 -8,17 -22,19 -44,-5zm-16 -13c12,-8 23,-15 34,-4 5,5 4,12 5,10 3,-5 2,-18 2,-33 -1,-15 -6,-32 -15,-47 -8,-13 -18,-24 -31,-30 -3,-2 -6,-3 -9,-4 12,23 5,53 0,78 -4,18 -7,33 -4,36 4,3 12,-2 18,-6z"></path>
   </g>
   <g>
    <path class="fil0" d="M1319 577c-3,-6 -1,-13 5,-16 6,-3 13,-1 16,5 5,8 13,17 22,24 10,8 23,15 34,19 22,8 56,9 87,2 26,-6 48,-16 58,-32 3,-6 11,-8 16,-4 6,3 8,11 4,16 -13,22 -42,37 -73,44 -35,8 -75,6 -101,-3 -14,-5 -28,-13 -40,-23 -12,-9 -22,-20 -28,-31z"></path>
    <path class="fil0" d="M1423 627c3,-3 -5,0 -7,-3 0,0 0,0 0,-1 -10,-13 -20,-29 -5,-47 12,-14 34,-10 59,-5 23,4 50,10 66,-1l0 0 0 0c0,0 0,0 0,0 8,-6 12,-8 16,-16 3,-6 10,-8 16,-5 4,2 6,7 6,11 0,10 -1,19 -3,27 -2,8 -5,16 -10,26 -8,18 -22,32 -38,42 -18,11 -38,18 -57,20 -18,1 -35,2 -45,-3 -17,-8 -20,-21 4,-44zm12 -16c9,12 16,22 4,34 -5,5 -12,5 -10,5 5,2 18,2 33,1 16,-1 32,-7 46,-16 13,-8 23,-19 30,-32 1,-3 3,-6 4,-9 -23,12 -53,6 -78,2 -18,-3 -33,-6 -36,-3 -3,4 2,11 6,18 0,0 0,0 0,1z"></path>
   </g>
   <g>
    <path class="fil0" d="M1524 1337c6,-3 13,-2 16,4 3,6 2,13 -4,16 -8,5 -16,13 -23,23 -8,11 -14,23 -19,35 -8,22 -8,56 0,87 6,25 18,48 34,57 6,3 8,11 5,16 -3,6 -11,8 -16,5 -23,-13 -38,-41 -45,-72 -9,-35 -8,-75 1,-101 5,-14 13,-28 22,-41 9,-12 19,-22 30,-29z"></path>
    <path class="fil0" d="M1476 1443c3,3 -1,-5 2,-7 13,-10 29,-22 48,-7 14,12 11,33 7,58 -4,23 -8,51 3,66l0 0 0 0c0,0 0,0 0,1 6,8 9,11 16,15 6,3 8,10 5,16 -2,4 -6,6 -11,7l0 0c-10,0 -19,-1 -27,-3 -8,-2 -16,-5 -26,-9 -18,-8 -32,-21 -43,-37 -12,-17 -19,-38 -21,-57 -2,-18 -2,-35 2,-45 8,-17 21,-20 44,2zm17 12c-12,9 -22,16 -33,5 -5,-5 -5,-12 -6,-10 -2,5 -2,18 0,33 2,15 8,32 17,46 8,12 19,23 33,29 3,1 6,3 9,4 -13,-23 -8,-52 -3,-78 3,-18 6,-33 2,-36 -4,-3 -12,3 -18,7z"></path>
   </g>
   <g>
    <path class="fil0" d="M1192 1603c6,2 10,8 9,14 -2,6 -8,10 -14,9 -9,-2 -21,-2 -33,0 -13,2 -26,6 -38,12 -21,10 -45,35 -61,62 -13,23 -21,47 -16,65 2,6 -2,13 -8,15 -6,2 -13,-2 -15,-8 -7,-25 2,-56 18,-83 18,-31 46,-59 71,-71 13,-7 29,-12 44,-14 15,-2 29,-3 42,0z"></path>
    <path class="fil0" d="M1083 1645c0,4 3,-4 7,-3 16,2 36,5 39,28 2,18 -16,31 -36,46 -19,14 -41,30 -44,49l0 0 0 0c0,0 0,1 0,1 -1,9 -2,14 1,22 2,6 -1,13 -8,15 -4,1 -9,0 -12,-3l0 0c-7,-7 -13,-14 -18,-21 -5,-7 -8,-15 -12,-25 -7,-18 -8,-38 -5,-57 4,-21 13,-40 25,-55 11,-14 23,-27 33,-31 17,-7 29,0 30,33zm4 20c-15,-2 -27,-3 -28,-20 0,-7 5,-12 3,-11 -5,2 -14,12 -23,23 -10,12 -17,28 -20,45 -3,15 -2,30 3,44 1,3 3,6 4,9 7,-25 31,-43 52,-58 14,-11 27,-20 26,-24 -1,-5 -10,-6 -18,-7z"></path>
   </g>
   <g>
    <path class="fil0" d="M768 1561c4,6 2,13 -4,17 -6,4 -13,2 -17,-4 -5,-8 -13,-16 -23,-23 -11,-8 -23,-14 -35,-18 -22,-7 -56,-6 -87,2 -25,7 -47,19 -56,35 -3,6 -10,8 -16,5 -6,-3 -8,-10 -5,-16 12,-23 40,-39 71,-47 35,-9 75,-10 101,-2 14,5 29,12 42,21 12,9 23,19 30,30z"></path>
    <path class="fil0" d="M662 1515c-3,3 5,-1 7,2 10,13 23,29 8,47 -11,15 -33,12 -58,8 -24,-3 -51,-7 -66,5l0 0c-8,6 -12,9 -15,17 -3,6 -10,8 -16,6 -4,-2 -7,-6 -7,-11 0,-10 0,-18 2,-27 2,-8 5,-16 9,-26 7,-18 21,-33 36,-44 17,-12 37,-20 56,-22 18,-2 35,-3 45,1 17,7 21,20 -1,44zm-12 17c-9,-12 -17,-21 -6,-33 5,-5 12,-5 10,-6 -5,-2 -18,-1 -33,1 -15,2 -32,8 -46,18 -12,9 -22,20 -28,34 -1,3 -2,6 -3,9 22,-13 52,-9 78,-5 18,3 33,5 36,1 3,-4 -3,-12 -8,-18z"></path>
   </g>
   <path class="fil0" d="M815 1229l-8 -55c3,0 7,0 10,-1 4,-1 7,-2 11,-4 4,-2 7,-5 10,-9 3,-4 6,-8 8,-13 2,-6 3,-11 3,-17 0,-6 -1,-11 -3,-16 -2,-5 -6,-10 -10,-14 -5,-4 -10,-8 -17,-10l-62 -24 -47 123 32 12 16 -41 16 6 5 49 36 14zm-22 -88l-25 -10 10 -26 25 10c3,1 5,3 7,4 2,2 3,4 4,7 1,2 0,5 -1,8 -1,3 -3,5 -5,6 -2,1 -5,2 -7,2 -3,0 -5,0 -8,-1zm267 131l-2 -132 -34 1 2 132 34 -1zm249 -59l-16 -41 30 -11c7,-3 13,-6 17,-10 5,-4 8,-9 10,-14 2,-5 3,-11 3,-16 0,-6 -1,-11 -3,-17 -2,-6 -5,-11 -9,-15 -4,-4 -8,-8 -13,-10 -5,-2 -11,-4 -17,-4 -6,0 -13,1 -20,4l-62 24 47 123 32 -12zm-1 -79l-25 10 -10 -26 25 -10c3,-1 6,-2 8,-1 3,0 5,1 7,2 2,1 4,4 5,6 1,3 1,5 1,8 -1,2 -2,5 -4,7 -2,2 -4,3 -7,5z"></path>
   <g>
    <path class="fil0" d="M475 876c-4,6 -11,7 -17,4 -6,-4 -7,-11 -4,-17 7,-11 17,-21 30,-30 13,-9 27,-16 41,-21 26,-9 66,-8 101,1 31,8 59,24 71,47 3,6 1,13 -5,16 -6,3 -13,1 -16,-5 -9,-16 -31,-28 -56,-35 -31,-8 -65,-9 -87,-1 -12,4 -24,10 -35,18 -10,7 -18,15 -23,23z"></path>
    <path class="fil0" d="M579 801c11,12 3,22 -6,33 -5,6 -11,14 -8,18 3,4 18,1 36,-1 26,-4 55,-8 78,5 -1,-3 -2,-6 -4,-9 -6,-13 -16,-25 -28,-33 -14,-10 -30,-16 -46,-18 -14,-2 -27,-3 -33,-1 -2,1 5,1 10,6zm-25 19c2,-3 10,1 7,-2 -22,-24 -19,-37 -2,-44 10,-4 27,-3 45,-1 19,2 39,10 57,22 16,11 29,26 37,44 4,9 7,18 9,26 2,9 3,17 2,27l0 0c0,4 -3,8 -7,10 -6,3 -13,0 -16,-5 -4,-8 -8,-11 -15,-17l0 0 0 0c-15,-12 -42,-8 -66,-4 -25,4 -47,7 -58,-8 -15,-19 -3,-34 8,-47z"></path>
   </g>
   <g>
    <path class="fil0" d="M1255 517c-5,-4 -6,-12 -2,-17 4,-5 12,-6 17,-2 10,8 19,20 26,33 7,14 13,29 16,44 5,27 0,66 -14,100 -12,30 -31,55 -55,65 -6,2 -13,-1 -15,-7 -2,-6 1,-13 7,-15 17,-7 32,-27 42,-52 12,-29 17,-63 12,-86 -2,-12 -7,-25 -13,-37 -6,-11 -12,-20 -20,-26z"></path>
    <path class="fil0" d="M1316 630c-13,9 -22,0 -32,-10 -6,-6 -12,-13 -17,-10 -4,2 -4,18 -3,36 0,26 1,56 -15,77 3,-1 6,-1 9,-2 14,-4 27,-13 37,-24 11,-13 20,-28 24,-43 4,-14 6,-27 5,-32 -1,-2 -1,5 -7,9zm-15 -27c3,3 -2,10 1,7 26,-19 39,-14 44,4 3,10 0,27 -5,45 -5,19 -15,38 -29,53 -13,14 -29,25 -48,31 -10,3 -18,5 -27,5 -9,1 -17,0 -27,-1 -4,-1 -8,-4 -10,-8 -2,-6 1,-13 8,-15 8,-3 12,-6 18,-13 0,0 0,0 1,-1l0 0 0 0 0 0c14,-13 13,-41 13,-65 0,-25 -1,-47 15,-57 21,-12 34,2 46,14z"></path>
   </g>
  </g>
 </g>
 <rect class="fil1" width="2048" height="2048"></rect>
</svg>