<svg xmlns="http://www.w3.org/2000/svg" xmlns:xlink="http://www.w3.org/1999/xlink" xml:space="preserve" width="2048px" height="2048px" style="shape-rendering:geometricPrecision; text-rendering:geometricPrecision; image-rendering:optimizeQuality; fill-rule:evenodd; clip-rule:evenodd" viewBox="0 0 2048 2048">
 <defs>
  <style type="text/css">
   <![CDATA[
    .fil1 {fill:none}
    .fil0 {fill:#212121;fill-rule:nonzero}
   ]]>
  </style>
 </defs>
 <g id="Layer_x0020_1">
  <metadata id="CorelCorpID_0Corel-Layer"></metadata>
  <g id="_514946352">
   <path class="fil0" d="M1299 1542c0,59 -17,115 -45,162 -30,49 -72,89 -123,116 -5,2 -10,4 -15,4l0 0 -262 0c-6,0 -12,-2 -18,-5 -50,-27 -91,-66 -121,-114 -29,-47 -45,-103 -45,-162 0,-129 41,-200 81,-269 33,-57 66,-113 66,-204 0,-90 33,-109 83,-109 12,0 25,2 39,4 14,2 28,4 44,4 16,0 31,-2 44,-4 14,-2 28,-4 39,-4 51,0 83,19 83,109 0,91 32,147 66,204 40,69 81,140 81,269zm-100 129c23,-38 36,-82 36,-129 0,-112 -37,-175 -73,-237 -38,-65 -75,-128 -75,-236 0,-37 -8,-45 -19,-45 -9,0 -20,1 -31,3 -16,2 -34,4 -53,4 -18,0 -36,-2 -53,-4 -11,-1 -22,-3 -31,-3 -12,0 -19,8 -19,45 0,108 -37,171 -75,236 -36,61 -73,125 -73,237 0,47 13,92 36,129 22,37 54,68 91,89l246 0c37,-21 69,-52 91,-89z"></path>
   <g>
    <g>
     <path class="fil0" d="M1286 558c-24,-19 -44,-43 -57,-71 -13,-27 -20,-57 -20,-89 0,-32 7,-62 20,-89 14,-28 33,-53 58,-72 9,-7 22,-7 30,0 24,19 44,43 57,71 13,27 20,57 20,89 0,32 -7,62 -20,89 -14,28 -33,53 -58,72 -9,7 -22,7 -30,0zm-14 -92c7,15 17,29 29,41 12,-12 22,-26 29,-41 10,-21 16,-44 16,-68 0,-25 -6,-48 -16,-68 -7,-15 -17,-29 -29,-41 -12,12 -22,26 -29,41 -10,21 -16,44 -16,68 0,25 6,48 16,68z"></path>
     <path class="fil0" d="M1282 525c19,-24 43,-44 71,-57 27,-13 57,-20 89,-20 32,0 62,7 89,20 28,14 53,33 72,58 7,9 7,22 0,30 -19,24 -43,44 -71,57 -27,13 -57,20 -89,20 -32,0 -62,-7 -89,-20 -28,-14 -53,-33 -72,-58 -7,-9 -7,-22 0,-30zm92 -14c-15,7 -29,17 -41,29 12,12 26,22 41,29 21,10 44,16 68,16 25,0 48,-6 68,-16 15,-7 29,-17 41,-29 -12,-12 -26,-22 -41,-29 -21,-10 -44,-16 -68,-16 -25,0 -48,6 -68,16z"></path>
     <path class="fil0" d="M1301 572c-12,12 -22,26 -29,41 -10,21 -16,44 -16,68 0,25 6,48 16,68 7,15 17,29 29,41 12,-12 22,-26 29,-41 10,-21 16,-44 16,-68 0,-25 -6,-48 -16,-68 -7,-15 -17,-29 -29,-41zm-72 21c14,-28 33,-52 57,-71 9,-7 21,-7 30,0 24,19 44,44 58,72 13,27 20,57 20,89 0,32 -7,62 -20,89 -14,28 -33,52 -57,71 -9,7 -21,7 -30,0 -24,-19 -44,-44 -58,-72 -13,-27 -20,-57 -20,-89 0,-32 7,-62 20,-89z"></path>
     <path class="fil0" d="M1269 540c-12,-12 -26,-22 -41,-29 -21,-10 -44,-16 -68,-16 -25,0 -48,6 -68,16 -15,7 -29,17 -41,29 12,12 26,22 41,29 21,10 44,16 68,16 25,0 48,-6 68,-16 15,-7 29,-17 41,-29zm-21 -72c28,14 52,33 71,57 7,9 7,21 0,30 -19,24 -44,44 -72,58 -27,13 -57,20 -89,20 -32,0 -62,-7 -89,-20 -28,-14 -52,-33 -71,-57 -7,-9 -7,-21 0,-30 19,-24 44,-44 72,-58 27,-13 57,-20 89,-20 32,0 62,7 89,20z"></path>
    </g>
    <g>
     <path class="fil0" d="M1354 357c21,-17 45,-29 70,-36 26,-7 53,-9 80,-6 11,1 20,10 21,21 3,26 1,53 -6,79 -7,25 -19,49 -36,71 -5,7 -14,10 -22,9l0 0c-3,0 -6,-1 -9,-1 -3,0 -6,0 -9,0 -18,0 -35,3 -51,8 -16,6 -32,14 -46,25 -10,8 -25,6 -34,-4 -7,-9 -7,-21 0,-30 11,-14 19,-29 25,-45 5,-16 8,-33 8,-51 0,-4 0,-7 0,-9l0 0c0,-3 0,-6 -1,-9 -1,-9 3,-17 10,-22zm83 11c-15,4 -30,11 -44,20 0,4 0,7 0,10 0,20 -3,39 -8,57 18,-5 37,-8 57,-8 3,0 6,0 10,0 9,-14 16,-29 20,-44 4,-13 6,-27 6,-41 -14,0 -28,2 -41,6z"></path>
     <path class="fil0" d="M1484 593c17,21 29,45 36,70 7,26 9,53 6,80 -1,11 -10,20 -21,21 -26,3 -53,1 -79,-6 -25,-7 -49,-19 -71,-36 -7,-5 -10,-14 -9,-22l0 0c0,-3 1,-6 1,-9l0 0c0,-2 0,-5 0,-9 0,-18 -3,-35 -8,-51 -6,-16 -14,-32 -25,-46 -5,-7 -6,-15 -4,-22 -8,3 -18,1 -24,-6l0 0 0 0c-4,-4 -7,-11 -7,-17l0 0 0 0c0,-13 11,-24 24,-24 7,0 14,3 19,9l0 0 0 0 0 0 0 0 0 0 0 0 0 0 0 0 0 0 0 0 0 0 0 0 0 0 0 0 0 0 0 0 0 0 0 0 0 0 0 0 0 0 0 0 0 0 0 0 0 0 0 0 0 0 0 0 0 0 0 0 0 0 0 1 0 0c0,1 0,1 1,2l0 0c0,1 0,1 0,2l0 0 0 0 0 0 0 0 0 0 0 0c0,3 0,6 -1,9 8,-3 16,-1 23,4 14,11 29,19 45,25 16,5 33,8 51,8 4,0 7,0 9,0l0 0c3,0 6,0 9,-1 9,-1 17,3 22,10zm-11 83c-4,-15 -11,-30 -20,-44 -4,0 -7,0 -10,0 -20,0 -39,-3 -57,-8 5,18 8,37 8,57 0,3 0,6 0,10 14,9 29,16 44,20 13,4 27,6 41,6 0,-14 -2,-28 -6,-41z"></path>
     <path class="fil0" d="M1149 632c-9,14 -16,29 -20,44 -4,13 -6,27 -6,41 14,0 28,-2 41,-6 15,-4 30,-11 44,-20 0,-4 0,-7 0,-10 0,-20 3,-39 8,-57 -18,5 -37,8 -57,8 -3,0 -6,0 -10,0zm-66 31c7,-25 19,-49 36,-70 5,-7 13,-11 22,-10 3,0 6,1 9,1l0 0c2,0 6,0 9,0 18,0 35,-3 51,-8 16,-6 32,-14 45,-25 9,-7 21,-7 30,0 10,8 12,23 4,34 -11,14 -19,29 -25,46 -5,16 -8,33 -8,51 0,4 0,7 0,9l0 0 0 0c0,3 0,6 1,9l0 0c1,8 -2,16 -9,22 -22,17 -46,29 -71,36 -26,7 -53,9 -79,6 -11,-1 -20,-10 -21,-21 -3,-27 -1,-54 6,-80z"></path>
     <path class="fil0" d="M1208 388c-14,-9 -29,-16 -44,-20 -13,-4 -27,-6 -41,-6 0,14 2,28 6,41 4,15 11,30 20,44 4,0 7,0 10,0 20,0 39,3 57,8 -5,-18 -8,-37 -8,-57 0,-3 0,-6 0,-10zm-31 -66c25,7 49,19 71,36 6,5 10,13 9,22 0,3 -1,6 -1,9l0 0c0,3 0,6 0,9 0,18 3,35 8,51 6,16 14,32 25,45 7,9 7,21 0,30 -8,10 -23,12 -34,4 -14,-11 -29,-19 -46,-25 -16,-5 -33,-8 -51,-8 -4,0 -7,0 -9,0 -3,0 -6,0 -9,1l0 0c-8,1 -16,-2 -22,-9 -17,-22 -29,-46 -36,-71 -7,-26 -9,-53 -6,-79 1,-11 10,-20 21,-21 27,-3 54,-1 80,6z"></path>
    </g>
   </g>
   <g>
    <g>
     <path class="fil0" d="M646 614c-18,-14 -32,-32 -42,-52 -10,-20 -15,-42 -15,-65 0,-23 5,-46 15,-65 10,-21 25,-39 42,-53 9,-7 22,-7 30,0 18,14 32,32 42,52 10,20 15,42 15,65 0,23 -5,46 -15,65 -10,21 -25,39 -42,53 -9,7 -22,7 -30,0zm1 -73c4,8 8,15 14,21 6,-6 10,-14 14,-21 7,-13 10,-29 10,-45 0,-16 -4,-31 -10,-45 -4,-8 -8,-15 -14,-21 -6,6 -10,14 -14,21 -7,13 -10,29 -10,45 0,16 4,31 10,45z"></path>
     <path class="fil0" d="M643 580c14,-18 32,-32 52,-42 20,-10 42,-15 65,-15 23,0 46,5 65,15 21,10 39,25 53,42 7,9 7,22 0,30 -14,18 -32,32 -52,42 -20,10 -42,15 -65,15 -23,0 -46,-5 -65,-15 -21,-10 -39,-25 -53,-42 -7,-9 -7,-22 0,-30zm73 1c-8,4 -15,8 -21,14 6,6 14,10 21,14 13,7 29,10 45,10 16,0 31,-4 45,-10 8,-4 15,-8 21,-14 -6,-6 -14,-10 -21,-14 -13,-7 -29,-10 -45,-10 -16,0 -31,4 -45,10z"></path>
     <path class="fil0" d="M661 629c-6,6 -10,14 -14,21 -7,13 -10,29 -10,45 0,16 4,31 10,45 4,8 8,15 14,21 6,-6 10,-14 14,-21 7,-13 10,-29 10,-45 0,-16 -4,-31 -10,-45 -4,-8 -8,-15 -14,-21zm-57 1c10,-20 24,-38 42,-52 9,-7 21,-7 30,0 18,14 32,32 42,53 10,20 15,42 15,65 0,23 -5,46 -15,65 -10,20 -24,38 -42,52 -9,7 -21,7 -30,0 -18,-14 -32,-32 -42,-53 -10,-20 -15,-42 -15,-65 0,-23 5,-46 15,-65z"></path>
     <path class="fil0" d="M628 595c-6,-6 -14,-10 -21,-14 -13,-7 -29,-10 -45,-10 -16,0 -31,4 -45,10 -8,4 -15,8 -21,14 6,6 14,10 21,14 13,7 29,10 45,10 16,0 31,-4 45,-10 8,-4 15,-8 21,-14zm-1 -57c20,10 38,24 52,42 7,9 7,21 0,30 -14,18 -32,32 -53,42 -20,10 -42,15 -65,15 -23,0 -46,-5 -65,-15 -20,-10 -38,-24 -52,-42 -7,-9 -7,-21 0,-30 14,-18 32,-32 53,-42 20,-10 42,-15 65,-15 23,0 46,5 65,15z"></path>
    </g>
    <g>
     <path class="fil0" d="M694 462c16,-12 33,-21 52,-26 19,-5 39,-7 58,-5 11,1 20,10 21,21 2,19 1,39 -5,58 -5,19 -14,36 -26,52 -5,7 -14,10 -22,9l0 0c-2,0 -4,0 -6,-1l0 0c-1,0 -3,0 -6,0 -12,0 -23,2 -33,5 -11,4 -21,9 -30,16 -10,8 -25,6 -34,-4 -7,-9 -7,-21 0,-30 7,-9 12,-19 16,-29 4,-10 5,-22 5,-33 0,-3 0,-5 0,-6 0,-2 0,-4 -1,-6 -1,-9 3,-17 9,-22zm65 20c-9,2 -17,6 -25,11 0,1 0,2 0,3 0,10 -1,20 -3,30 10,-2 20,-3 30,-3 1,0 2,0 3,0 5,-8 9,-17 11,-25 2,-6 3,-13 3,-19 -6,1 -13,2 -19,3z"></path>
     <path class="fil0" d="M794 628c12,16 21,33 26,52 5,19 7,39 5,58 -1,11 -10,20 -21,21 -19,2 -39,1 -58,-5 -19,-5 -36,-14 -52,-26 -7,-5 -10,-14 -9,-22l0 0c0,-2 0,-4 1,-6l0 0 0 0c0,-1 0,-3 0,-6 0,-12 -2,-23 -5,-33 -4,-11 -9,-21 -16,-30 -3,-4 -4,-8 -5,-12 -3,0 -6,-1 -9,-3l0 0 0 0 0 0 0 0 0 0c0,0 -1,0 -1,-1l0 0c-6,-4 -10,-12 -10,-20l0 0c0,-13 11,-24 24,-24 7,0 14,3 19,9l0 0 0 0 0 0 0 0 0 0 0 0 0 0 0 0 0 0 0 0 0 0 0 0 0 0 0 0 0 0 0 0 0 0 0 0 0 0 0 0 0 0 0 0 0 0 0 0 0 0 0 0 0 0 0 1 0 0c1,2 1,3 1,5 4,1 9,2 12,5 9,7 19,12 29,16 10,4 22,5 33,5 3,0 5,0 6,0 2,0 4,0 6,-1 9,-1 17,3 22,9zm-20 65c-2,-9 -6,-17 -11,-25 -1,0 -2,0 -3,0 -10,0 -20,-1 -30,-3 2,10 3,20 3,30 0,1 0,2 0,3 8,5 17,9 25,11 6,2 13,3 19,3 -1,-6 -2,-13 -3,-19z"></path>
     <path class="fil0" d="M559 668c-5,8 -9,17 -11,25 -2,6 -3,13 -3,19 6,-1 13,-2 19,-3 9,-2 17,-6 25,-11 0,-1 0,-2 0,-3 0,-10 1,-20 3,-30 -10,2 -20,3 -30,3 -1,0 -2,0 -3,0zm-57 12c5,-18 14,-36 26,-52 5,-6 13,-10 22,-9 2,0 4,0 6,1 1,0 3,0 6,0 12,0 23,-2 33,-5 11,-4 20,-9 29,-16 9,-7 21,-7 30,0 10,8 12,23 4,34 -7,9 -13,19 -16,30 -4,10 -5,22 -5,33 0,2 0,4 0,6l0 0c0,2 0,4 1,6l0 0c1,8 -2,16 -9,22 -16,12 -34,21 -52,26 -19,5 -39,7 -58,5 -11,-1 -20,-10 -21,-21 -2,-19 -1,-39 5,-58z"></path>
     <path class="fil0" d="M589 493c-8,-5 -17,-9 -25,-11 -6,-2 -13,-3 -19,-3 1,6 2,13 3,19 2,9 6,17 11,25 1,0 2,0 3,0 10,0 20,1 30,3 -2,-10 -3,-20 -3,-30 0,-1 0,-2 0,-3zm-12 -57c18,5 36,14 52,26 6,5 10,13 9,22 0,2 0,4 -1,6l0 0c0,1 0,3 0,6 0,12 2,23 5,33 4,11 9,20 16,29 7,9 7,21 0,30 -8,10 -23,12 -34,4 -9,-7 -19,-13 -30,-16 -10,-4 -22,-5 -33,-5 -2,0 -4,0 -6,0l0 0c-2,0 -4,0 -6,1l0 0c-8,1 -16,-2 -22,-9 -12,-16 -21,-34 -26,-52 -5,-19 -7,-39 -5,-58 1,-11 10,-20 21,-21 19,-2 39,-1 58,5z"></path>
    </g>
   </g>
   <path class="fil0" d="M788 670c-10,-9 -10,-24 -1,-34 9,-10 24,-10 34,-1 63,60 104,120 131,179 27,59 40,117 47,172 2,13 -7,25 -20,27 -13,2 -25,-7 -27,-20 -7,-52 -19,-105 -43,-159 -24,-54 -62,-109 -120,-164z"></path>
   <path class="fil0" d="M1086 600c11,-7 26,-4 33,7 7,11 4,26 -7,33 -32,22 -61,75 -80,138 -23,71 -34,151 -27,210 1,13 -8,25 -21,26 -13,1 -25,-8 -26,-21 -7,-65 5,-153 29,-230 23,-72 58,-135 99,-163z"></path>
  </g>
 </g>
 <rect class="fil1" width="2048" height="2048"></rect>
</svg>