<svg xmlns="http://www.w3.org/2000/svg" xmlns:xlink="http://www.w3.org/1999/xlink" xml:space="preserve" width="2048px" height="2048px" style="shape-rendering:geometricPrecision; text-rendering:geometricPrecision; image-rendering:optimizeQuality; fill-rule:evenodd; clip-rule:evenodd" viewBox="0 0 2048 2048">
 <defs>
  <style type="text/css">
   <![CDATA[
    .fil1 {fill:none}
    .fil0 {fill:#212121;fill-rule:nonzero}
   ]]>
  </style>
 </defs>
 <g id="Layer_x0020_1">
  <metadata id="CorelCorpID_0Corel-Layer"></metadata>
  <path class="fil0" d="M617 1081l919 0c18,0 32,14 32,32 0,4 -1,7 -2,11 -16,54 -113,87 -198,116 -49,17 -94,32 -103,42 -13,13 -12,32 -11,50 2,32 3,63 -27,97 -4,4 -8,9 -12,14 -33,36 -47,51 -48,106 0,17 -4,28 -7,38 -2,6 -3,10 4,17 20,18 38,18 78,18 26,0 -27,0 12,0 41,0 74,32 111,68 16,16 33,32 51,45 14,11 17,31 6,45 -6,8 -16,13 -25,13l0 0 -641 0c-18,0 -32,-14 -32,-32 0,-11 6,-21 14,-27 17,-13 33,-29 49,-44 37,-36 71,-68 111,-68 38,0 -14,0 12,0 41,0 58,0 78,-18 7,-7 6,-11 4,-17 -3,-10 -7,-22 -7,-38 -1,-55 -14,-70 -48,-106 -4,-5 -9,-10 -12,-14 -31,-34 -29,-65 -27,-97 1,-18 2,-36 -11,-50 -9,-10 -54,-25 -103,-42 -87,-30 -187,-64 -199,-121 -4,-17 8,-34 25,-38 2,0 4,-1 6,-1l0 0zm826 64l-733 0c28,12 63,23 95,34 57,20 108,37 129,59 31,33 30,65 28,97 -1,18 -2,37 11,51 5,6 9,10 12,13 45,49 64,69 65,149 0,7 2,14 4,20 8,28 15,49 -23,83 -38,34 -63,34 -120,34 -18,0 35,0 -12,0 -14,0 -35,20 -59,43l475 0c-24,-23 -46,-43 -59,-43 -47,0 7,0 -12,0 -58,0 -82,0 -120,-34 -38,-34 -32,-55 -23,-83 2,-6 4,-14 4,-20 1,-79 19,-100 65,-149 3,-4 7,-8 12,-13 13,-14 12,-33 11,-51 -2,-32 -3,-63 28,-97 20,-22 72,-39 129,-59 32,-11 67,-23 95,-34z"></path>
  <path class="fil0" d="M969 1081l215 0 0 -366 -215 99 0 268zm247 64l-279 0c-18,0 -32,-14 -32,-32l0 -320 0 0c0,-12 7,-24 19,-29l276 -127c5,-3 10,-4 16,-4 18,0 32,14 32,32l0 448c0,18 -14,32 -32,32z"></path>
  <g id="_514948536">
   <path class="fil0" d="M1074 341c-10,11 -18,24 -26,38 -26,43 -41,90 -41,113 0,5 0,-1 0,2l0 0c0,25 8,40 20,49 13,10 31,14 49,14 5,0 -1,0 3,0 22,0 39,-7 51,-17 11,-9 17,-22 17,-38 0,-23 -14,-46 -30,-72 -17,-27 -34,-56 -43,-90zm-81 5c24,-41 57,-79 95,-99l0 0c6,-3 12,-4 19,-3 17,3 30,19 27,36 -7,48 16,84 36,118 21,33 40,65 40,106 0,34 -14,64 -39,85 -23,20 -54,31 -92,32 -5,0 -1,0 -4,0 -31,0 -63,-8 -88,-27 -26,-20 -43,-52 -44,-98l0 0c0,-5 0,-1 0,-4 0,-32 18,-93 50,-146z"></path>
   <path class="fil0" d="M1045 589c0,-18 14,-32 32,-32 18,0 32,14 32,32l0 135c0,18 -14,32 -32,32 -18,0 -32,-14 -32,-32l0 -135z"></path>
  </g>
 </g>
 <rect class="fil1" width="2048" height="2048"></rect>
</svg>