<svg xmlns="http://www.w3.org/2000/svg" xmlns:xlink="http://www.w3.org/1999/xlink" xml:space="preserve" width="2048px" height="2048px" style="shape-rendering:geometricPrecision; text-rendering:geometricPrecision; image-rendering:optimizeQuality; fill-rule:evenodd; clip-rule:evenodd" viewBox="0 0 2048 2048">
 <defs>
  <style type="text/css">
   <![CDATA[
    .fil1 {fill:none}
    .fil0 {fill:#212121;fill-rule:nonzero}
   ]]>
  </style>
 </defs>
 <g id="Layer_x0020_1">
  <metadata id="CorelCorpID_0Corel-Layer"></metadata>
  <g id="_387481680">
   <g>
    <path class="fil0" d="M739 1070l962 0c11,0 21,8 23,18l25 82c1,2 1,5 1,7 0,1 0,3 0,4l-25 200c-1,12 -12,21 -24,21l0 0 -962 0c-12,0 -23,-10 -24,-22l-25 -199c0,-1 0,-1 0,-2l0 -1c-1,-4 0,-8 2,-12l25 -81c3,-10 13,-17 23,-17l0 0zm944 48l-926 0 -11 36 948 0 -11 -36zm16 84l-958 0 19 153 919 0 19 -153z"></path>
    <path class="fil0" d="M667 1202c-13,0 -24,-11 -24,-24 0,-13 11,-24 24,-24l1120 0c13,0 24,11 24,24 0,13 -11,24 -24,24l-1120 0z"></path>
   </g>
   <g>
    <path class="fil0" d="M829 1270c-9,0 -16,-7 -16,-16 0,-9 7,-16 16,-16l81 0c9,0 16,7 16,16 0,9 -7,16 -16,16l-81 0z"></path>
    <path class="fil0" d="M1545 1270c-9,0 -16,-7 -16,-16 0,-9 7,-16 16,-16l81 0c9,0 16,7 16,16 0,9 -7,16 -16,16l-81 0z"></path>
   </g>
  </g>
  <g id="_514933272">
   <path class="fil0" d="M417 689c69,0 119,54 165,105 3,3 6,7 9,10l45 -120c0,-1 1,-2 1,-3 6,-15 19,-26 34,-32 14,-5 32,-6 48,0l0 0c16,6 29,17 37,31 8,15 10,32 4,48l-80 218c-2,6 -6,12 -10,17 -4,4 -8,8 -13,11 -12,9 -26,14 -40,14 -15,0 -30,-5 -41,-16l-58 -56c-2,10 -3,19 -4,27 -5,60 1,114 12,166 12,52 29,102 50,151 5,12 -1,26 -13,31 -3,1 -6,2 -10,2l-64 2 0 245c0,18 -9,34 -24,44 -13,9 -30,15 -48,15 -18,0 -35,-6 -48,-15l0 0 0 0c-15,-11 -24,-27 -24,-44l0 -245 -65 -2c-11,0 -20,-8 -23,-19l0 0c-10,-45 -16,-89 -19,-131 -3,-43 -3,-84 1,-124 5,-58 19,-163 57,-237 27,-54 65,-92 121,-92zm130 138c-40,-43 -82,-90 -130,-90 -34,0 -59,28 -78,66 -34,67 -47,165 -51,220 -3,38 -4,76 -1,116 2,34 7,70 14,106l68 2c0,0 1,0 1,0 13,0 24,11 24,24l0 268c0,2 2,4 4,6l0 0c5,3 12,6 20,6 8,0 15,-2 20,-6 3,-2 4,-4 4,-6l0 -268 0 0c0,-13 10,-23 23,-24l54 -2c-16,-41 -30,-83 -39,-127 -12,-56 -18,-115 -13,-180 1,-18 5,-38 9,-59l3 -16 0 0c1,-4 3,-9 6,-12 9,-9 24,-10 34,0l90 87c2,2 4,2 7,2 4,0 8,-2 12,-5l0 0c1,-1 2,-2 3,-2 1,-1 2,-1 3,-2 1,-1 1,-1 1,-2l80 -218c1,-2 0,-5 -1,-8 -2,-4 -6,-7 -11,-9l0 0c-5,-2 -10,-2 -15,0 -3,1 -5,3 -6,5l0 0 -58 158 0 0c-1,3 -3,6 -5,8 -9,9 -24,10 -34,0 -13,-12 -25,-25 -37,-39z"></path>
   <path class="fil0" d="M521 479c29,0 55,12 73,30 19,19 30,45 30,73 0,29 -12,55 -30,73 -19,19 -45,30 -73,30 -29,0 -55,-12 -73,-30 -19,-19 -30,-45 -30,-73 0,-29 12,-55 30,-73 19,-19 45,-30 73,-30zm39 64c-10,-10 -24,-16 -39,-16 -15,0 -29,6 -39,16 -10,10 -16,24 -16,39 0,15 6,29 16,39 10,10 24,16 39,16 15,0 29,-6 39,-16 10,-10 16,-24 16,-39 0,-15 -6,-29 -16,-39z"></path>
   <path class="fil0" d="M688 566c-5,-1 -9,1 -12,5 -5,7 -1,17 8,18l1 0 1 0 1 0 1 0 1 0 1 0 1 0 1 0 1 0 1 0 1 0 1 0 1 0 1 0 1 0 1 0 1 0 1 0 1 0 1 0 1 0 1 0 1 0c11,3 19,-9 13,-18 -2,-2 -4,-4 -7,-4l-1 0 -1 0 -1 0 -1 0 -1 0 -1 0 -1 0 -1 0 -1 0 -1 0 -1 0 -1 0 -1 0 -1 0 -1 0 -1 0 -1 0 -1 0 -1 0 -1 0 -1 0 -1 0 -1 0zm182 110c4,4 10,4 15,1 6,-4 7,-13 1,-18l-1 0 -1 -1 -1 -1 -1 -1 -1 -1 -1 -1 -1 -1 -1 -1 -1 -1 -1 -1 -1 -1 -1 -1 -1 -1 -1 -1 -1 -1 -1 -1 -1 -1 -1 -1 -1 -1 -1 -1 -1 -1 -1 -1 -1 -1 -1 -1 -1 -1 0 0c-7,-5 -18,-1 -19,8 -1,4 1,8 5,11l0 0 1 1 1 1 1 1 1 1 1 1 1 1 1 1 1 1 1 1 1 1 1 1 1 1 1 1 1 1 1 1 1 1 1 1 1 1 1 1 1 1 1 1 1 1 1 1 1 1 1 0zm-77 -50c10,5 21,-5 16,-15 -1,-2 -3,-4 -5,-6l-1 0 -1 0 -1 0 -1 0 -1 0 -1 0 -1 0 -1 0 -1 0 -1 0 -1 0 -1 0 -1 0 -1 0 -1 0 -1 0 -1 0 -1 0 -1 0 -1 0 -1 0 -1 0c-9,-4 -18,3 -17,13 1,4 3,7 7,9l1 0 1 0 1 0 1 0 1 0 1 0 1 0 1 0 1 0 1 0 1 0 1 0 1 0 1 0 1 0 1 0 1 0 1 0 1 0 1 0 1 0 1 0z"></path>
   <path class="fil0" d="M686 526c-5,0 -9,3 -10,8 -3,8 3,16 12,16l1 0 1 0 1 0 1 0 1 0 1 0 1 0 1 0 1 0 1 0 1 0 1 0 1 0 1 0 1 0 1 0 1 0 1 0 1 0 1 0 1 0 1 0 1 0c11,0 16,-14 8,-21 -2,-2 -5,-3 -8,-3l-1 0 -1 0 -1 0 -1 0 -1 0 -1 0 -1 0 -1 0 -1 0 -1 0 -1 0 -1 0 -1 0 -1 0 -1 0 -1 0 -1 0 -1 0 -1 0 -1 0 -1 0 -1 0 -1 0zm204 60c5,2 11,1 15,-3 5,-6 3,-15 -3,-18l-1 0 -1 0 -1 0 -1 0 -1 0 -1 0 -1 0 -1 0 -1 0 -1 0 -1 0 -1 0 -1 0 -1 0 -1 0 -1 0 -1 0 -1 0 -1 0 -1 0 -1 0 -1 0 -1 0 -1 0 -1 0 -1 0c-8,-3 -18,4 -17,12 1,4 3,8 7,9l0 0 1 0 1 0 1 0 1 0 1 0 1 0 1 0 1 0 1 0 1 0 1 0 1 0 1 0 1 0 1 0 1 0 1 0 1 0 1 0 1 0 1 0 1 0 1 0 1 0 1 0zm-87 -29c11,2 19,-10 12,-19 -2,-2 -4,-3 -7,-4l-1 0 -1 0 -1 0 -1 0 -1 0 -1 0 -1 0 -1 0 -1 0 -1 0 -1 0 -1 0 -1 0 -1 0 -1 0 -1 0 -1 0 -1 0 -1 0 -1 0 -1 0 -1 0c-9,-1 -17,8 -13,16 2,4 5,6 9,7l1 0 1 0 1 0 1 0 1 0 1 0 1 0 1 0 1 0 1 0 1 0 1 0 1 0 1 0 1 0 1 0 1 0 1 0 1 0 1 0 1 0 1 0z"></path>
   <path class="fil0" d="M683 490c-4,1 -8,5 -8,10 -1,8 7,15 15,13l1 0 1 0 1 0 1 0 1 0 1 0 1 0 1 0 1 0 1 0 1 0 1 0 1 0 1 0 1 0 1 0 1 0 1 0 1 0 1 0 1 0 1 0 1 0c11,-3 13,-17 3,-22 -3,-1 -5,-2 -8,-1l-1 0 -1 0 -1 0 -1 0 -1 0 -1 0 -1 0 -1 0 -1 0 -1 0 -1 0 -1 0 -1 0 -1 0 -1 0 -1 0 -1 0 -1 0 -1 0 -1 0 -1 0 -1 0 -1 0zm212 16c5,1 11,-1 14,-6 4,-7 0,-15 -7,-17l-1 0 -1 0 -1 0 -1 0 -1 0 -1 0 -1 0 -1 0 -1 0 -1 0 -1 0 -1 0 -1 0 -1 0 -1 0 -1 0 -1 0 -1 0 -1 0 -1 0 -1 0 -1 0 -1 0 -1 0 -1 0 -1 0c-9,-2 -17,7 -14,16 1,4 5,7 9,7l0 0 1 0 1 0 1 0 1 0 1 0 1 0 1 0 1 0 1 0 1 0 1 0 1 0 1 0 1 0 1 0 1 0 1 0 1 0 1 0 1 0 1 0 1 0 1 0 1 0 1 0zm-91 -10c11,0 16,-14 8,-21 -2,-2 -5,-3 -7,-3l-1 0 -1 0 -1 0 -1 0 -1 0 -1 0 -1 0 -1 0 -1 0 -1 0 -1 0 -1 0 -1 0 -1 0 -1 0 -1 0 -1 0 -1 0 -1 0 -1 0 -1 0 -1 0c-9,1 -15,11 -9,19 2,3 6,5 10,5l1 0 1 0 1 0 1 0 1 0 1 0 1 0 1 0 1 0 1 0 1 0 1 0 1 0 1 0 1 0 1 0 1 0 1 0 1 0 1 0 1 0 1 0z"></path>
  </g>
 </g>
 <rect class="fil1" width="2048" height="2048"></rect>
</svg>