<svg xmlns="http://www.w3.org/2000/svg" xmlns:xlink="http://www.w3.org/1999/xlink" xml:space="preserve" width="2048px" height="2048px" style="shape-rendering:geometricPrecision; text-rendering:geometricPrecision; image-rendering:optimizeQuality; fill-rule:evenodd; clip-rule:evenodd" viewBox="0 0 2048 2048">
 <defs>
  <style type="text/css">
   <![CDATA[
    .fil1 {fill:none}
    .fil0 {fill:#212121;fill-rule:nonzero}
   ]]>
  </style>
 </defs>
 <g id="Layer_x0020_1">
  <metadata id="CorelCorpID_0Corel-Layer"></metadata>
  <g id="_387482784">
   <path class="fil0" d="M1655 896l0 304c0,18 -14,32 -32,32l-1198 0c-18,0 -32,-14 -32,-32l0 -304c0,-18 14,-32 32,-32l1198 0c18,0 32,14 32,32zm-64 272l0 -240 -1134 0 0 240 1134 0z"></path>
   <path class="fil0" d="M1599 864l38 -144 -1132 0 -38 144 1132 0zm111 -168l-55 206c-3,15 -16,26 -31,26l-1198 0 0 0c-3,0 -5,0 -8,-1 -17,-4 -27,-22 -23,-39l55 -206c3,-15 16,-26 31,-26l1198 0 0 0c3,0 5,0 8,1 17,4 27,22 23,39z"></path>
   <path class="fil0" d="M425 928c-18,0 -32,-14 -32,-32 0,-18 14,-32 32,-32l1198 0c18,0 32,14 32,32 0,18 -14,32 -32,32l-1198 0z"></path>
   <path class="fil0" d="M342 928c-18,0 -32,-14 -32,-32 0,-18 14,-32 32,-32l1364 0c18,0 32,14 32,32 0,18 -14,32 -32,32l-1364 0z"></path>
   <path class="fil0" d="M288 1168l1472 0c18,0 32,14 32,32l0 160c0,18 -14,32 -32,32l-1472 0c-18,0 -32,-14 -32,-32l0 -160c0,-18 14,-32 32,-32zm1440 64l-1408 0 0 96 1408 0 0 -96z"></path>
   <g>
    <path class="fil0" d="M752 1029c0,-9 7,-16 16,-16 9,0 16,7 16,16l0 15c0,12 -5,23 -13,31l0 0 0 0 0 0c-8,8 -19,13 -31,13l-88 0c-12,0 -23,-5 -31,-13l0 0 0 0 0 0c-8,-8 -13,-19 -13,-31l0 -15c0,-9 7,-16 16,-16 9,0 16,7 16,16l0 15c0,3 1,6 3,8l0 0 0 0c2,2 5,3 8,3l88 0c3,0 6,-1 8,-3l0 0 0 0c2,-2 3,-5 3,-8l0 -15z"></path>
    <path class="fil0" d="M1408 1029c0,-9 7,-16 16,-16 9,0 16,7 16,16l0 15c0,12 -5,23 -13,31l0 0 0 0 0 0c-8,8 -19,13 -31,13l-88 0c-12,0 -23,-5 -31,-13l0 0 0 0 0 0c-8,-8 -13,-19 -13,-31l0 -15c0,-9 7,-16 16,-16 9,0 16,7 16,16l0 15c0,3 1,6 3,8l0 0 0 0c2,2 5,3 8,3l88 0c3,0 6,-1 8,-3l0 0 0 0c2,-2 3,-5 3,-8l0 -15z"></path>
   </g>
   <g>
    <path class="fil0" d="M751 889c4,8 0,17 -8,21 -8,4 -17,0 -21,-8 -6,-14 -9,-28 -8,-42 1,-13 5,-26 11,-37 7,-11 16,-21 28,-26 8,-4 18,-6 28,-5l347 20c14,1 27,2 39,3 68,5 135,9 282,-4l29 -16c6,-4 13,-5 18,-5 11,0 19,5 24,15 4,6 5,15 6,24 1,20 -3,48 -10,72 -2,8 -11,13 -20,11 -8,-2 -13,-11 -11,-20 6,-22 10,-46 9,-62 0,-3 -1,-5 -1,-7l0 0 -32 17 0 0c-2,1 -4,2 -6,2 -153,14 -222,9 -291,4 -13,-1 -26,-2 -39,-3l-347 -20c-5,0 -9,1 -12,2 -6,3 -10,7 -14,13 -4,7 -6,15 -7,23 -1,9 1,18 5,27z"></path>
    <path class="fil0" d="M576 883c7,6 8,16 2,22 -6,7 -16,8 -22,2 -11,-9 -19,-19 -25,-31 -6,-12 -9,-25 -9,-39 0,-25 10,-48 26,-64 16,-16 39,-26 64,-26 25,0 48,10 64,26 16,16 26,39 26,64 0,14 -3,27 -9,38 -6,12 -14,23 -24,31 -7,6 -17,5 -23,-2 -6,-7 -5,-17 2,-23 7,-6 12,-12 16,-20 3,-7 5,-16 5,-25 0,-16 -7,-31 -17,-41 -11,-11 -25,-17 -41,-17 -16,0 -31,7 -41,17 -11,11 -17,25 -17,41 0,9 2,18 6,25 4,8 9,15 16,20z"></path>
   </g>
  </g>
 </g>
 <rect class="fil1" width="2048" height="2048"></rect>
</svg>