<svg xmlns="http://www.w3.org/2000/svg" xmlns:xlink="http://www.w3.org/1999/xlink" xml:space="preserve" width="2048px" height="2048px" style="shape-rendering:geometricPrecision; text-rendering:geometricPrecision; image-rendering:optimizeQuality; fill-rule:evenodd; clip-rule:evenodd" viewBox="0 0 2048 2048">
 <defs>
  <style type="text/css">
   <![CDATA[
    .fil1 {fill:none}
    .fil0 {fill:#212121;fill-rule:nonzero}
   ]]>
  </style>
 </defs>
 <g id="Layer_x0020_1">
  <metadata id="CorelCorpID_0Corel-Layer"></metadata>
  <path class="fil0" d="M1129 697l608 0c18,0 32,14 32,32l0 95c0,18 -14,32 -32,32l-608 0c-18,0 -32,-14 -32,-32l0 -95c0,-18 14,-32 32,-32zm576 64l-544 0 0 31 544 0 0 -31z"></path>
  <path class="fil0" d="M1316 1198l234 0 54 -342 -341 0 54 342zm261 64l-288 0 0 0c-15,0 -29,-11 -32,-27l-64 -403c-1,-3 -1,-5 -1,-8 0,-18 14,-32 32,-32l416 0 0 0c2,0 3,0 5,0 17,3 29,19 27,36l-64 403c-1,17 -15,30 -32,30z"></path>
  <path class="fil0" d="M1433 254c36,0 68,15 92,38 24,24 38,56 38,92 0,36 -15,68 -38,92 -24,24 -56,38 -92,38 -36,0 -68,-15 -92,-38 -24,-24 -38,-56 -38,-92 0,-36 15,-68 38,-92 24,-24 56,-38 92,-38zm47 83c-12,-12 -29,-19 -47,-19 -18,0 -35,7 -47,19 -12,12 -19,29 -19,47 0,18 7,35 19,47 12,12 29,19 47,19 18,0 35,-7 47,-19 12,-12 19,-29 19,-47 0,-18 -7,-35 -19,-47z"></path>
  <path class="fil0" d="M1611 715c-2,17 -18,30 -36,27 -17,-2 -30,-18 -27,-36 0,-2 0,-9 1,-19 0,-15 0,-41 0,-47 0,-27 -9,-45 -25,-56 -21,-16 -54,-22 -91,-22 -37,0 -70,6 -91,22 -15,12 -25,30 -25,56 0,5 0,32 0,44 0,9 0,16 0,17 2,18 -11,33 -29,35 -18,2 -33,-11 -35,-29 0,-3 0,-12 -1,-23 0,-24 0,-43 0,-45 0,-49 19,-84 51,-108 33,-25 79,-35 129,-35 50,0 96,10 129,35 31,24 51,58 51,108 0,3 0,25 -1,48 0,12 -1,23 -1,26z"></path>
  <g id="_387484032">
   <path class="fil0" d="M441 1303c36,0 68,15 92,38 24,24 38,56 38,92 0,36 -15,68 -38,92 -24,24 -56,38 -92,38 -36,0 -68,-15 -92,-38 -24,-24 -38,-56 -38,-92 0,-36 15,-68 38,-92 24,-24 56,-38 92,-38zm47 83c-12,-12 -29,-19 -47,-19 -18,0 -35,7 -47,19 -12,12 -19,29 -19,47 0,18 7,35 19,47 12,12 29,19 47,19 18,0 35,-7 47,-19 12,-12 19,-29 19,-47 0,-18 -7,-35 -19,-47z"></path>
   <path class="fil0" d="M325 1723l231 4c0,-15 0,-33 0,-38 0,-27 -9,-45 -25,-56 -21,-16 -54,-22 -91,-22 -37,0 -70,6 -91,22 -15,12 -25,30 -25,56 0,4 0,21 0,33zm262 69l-292 -5c-17,1 -31,-12 -33,-29 0,-3 0,-12 -1,-23 0,-24 0,-43 0,-45 0,-49 19,-84 51,-108 33,-25 79,-35 129,-35 50,0 96,10 129,35 31,24 51,58 51,108 0,3 0,25 -1,48 0,12 -1,23 -1,26l0 0c-2,16 -16,28 -32,28z"></path>
   <path class="fil0" d="M842 1303c36,0 68,15 92,38 24,24 38,56 38,92 0,36 -15,68 -38,92 -24,24 -56,38 -92,38 -36,0 -68,-15 -92,-38 -24,-24 -38,-56 -38,-92 0,-36 15,-68 38,-92 24,-24 56,-38 92,-38zm47 83c-12,-12 -29,-19 -47,-19 -18,0 -35,7 -47,19 -12,12 -19,29 -19,47 0,18 7,35 19,47 12,12 29,19 47,19 18,0 35,-7 47,-19 12,-12 19,-29 19,-47 0,-18 -7,-35 -19,-47z"></path>
   <path class="fil0" d="M1243 1303c36,0 68,15 92,38 24,24 38,56 38,92 0,36 -15,68 -38,92 -24,24 -56,38 -92,38 -36,0 -68,-15 -92,-38 -24,-24 -38,-56 -38,-92 0,-36 15,-68 38,-92 24,-24 56,-38 92,-38zm47 83c-12,-12 -29,-19 -47,-19 -18,0 -35,7 -47,19 -12,12 -19,29 -19,47 0,18 7,35 19,47 12,12 29,19 47,19 18,0 35,-7 47,-19 12,-12 19,-29 19,-47 0,-18 -7,-35 -19,-47z"></path>
   <path class="fil0" d="M726 1723l231 4c0,-15 0,-33 0,-38 0,-27 -9,-45 -25,-56 -21,-16 -54,-22 -91,-22 -37,0 -70,6 -91,22 -15,12 -25,30 -25,56 0,4 0,21 0,33zm262 69l-292 -5c-17,1 -31,-12 -33,-29 0,-3 0,-12 -1,-23 0,-24 0,-43 0,-45 0,-49 19,-84 51,-108 33,-25 79,-35 129,-35 50,0 96,10 129,35 31,24 51,58 51,108 0,3 0,25 -1,48 0,12 -1,23 -1,26l0 0c-2,16 -16,28 -32,28z"></path>
   <path class="fil0" d="M1127 1723l231 4c0,-15 0,-33 0,-38 0,-27 -9,-45 -25,-56 -21,-16 -54,-22 -91,-22 -37,0 -70,6 -91,22 -15,12 -25,30 -25,56 0,4 0,21 0,33zm262 69l-292 -5c-17,1 -31,-12 -33,-29 0,-3 0,-12 -1,-23 0,-24 0,-43 0,-45 0,-49 19,-84 51,-108 33,-25 79,-35 129,-35 50,0 96,10 129,35 31,24 51,58 51,108 0,3 0,25 -1,48 0,12 -1,23 -1,26l0 0c-2,16 -16,28 -32,28z"></path>
  </g>
  <g id="_387483792">
   <path class="fil0" d="M642 778c36,0 68,15 92,38 24,24 38,56 38,92 0,36 -15,68 -38,92 -24,24 -56,38 -92,38 -36,0 -68,-15 -92,-38 -24,-24 -38,-56 -38,-92 0,-36 15,-68 38,-92 24,-24 56,-38 92,-38zm47 83c-12,-12 -29,-19 -47,-19 -18,0 -35,7 -47,19 -12,12 -19,29 -19,47 0,18 7,35 19,47 12,12 29,19 47,19 18,0 35,-7 47,-19 12,-12 19,-29 19,-47 0,-18 -7,-35 -19,-47z"></path>
   <path class="fil0" d="M526 1198l231 4c0,-15 0,-33 0,-38 0,-27 -9,-45 -25,-56 -21,-16 -54,-22 -91,-22 -37,0 -70,6 -91,22 -15,12 -25,30 -25,56 0,4 0,21 0,33zm262 69l-292 -5c-17,1 -31,-12 -33,-29 0,-3 0,-12 -1,-23 0,-24 0,-43 0,-45 0,-49 19,-84 51,-108 33,-25 79,-35 129,-35 50,0 96,10 129,35 31,24 51,58 51,108 0,3 0,25 -1,48 0,12 -1,23 -1,26l0 0c-2,16 -16,28 -32,28z"></path>
  </g>
  <g id="_387483336">
   <polygon class="fil0" points="1417,1118 1417,937 1449,937 1449,1118 "></polygon>
   <polygon class="fil0" points="1356,971 1509,971 1509,1003 1356,1003 "></polygon>
  </g>
 </g>
 <rect class="fil1" width="2048" height="2048"></rect>
</svg>