<svg xmlns="http://www.w3.org/2000/svg" xmlns:xlink="http://www.w3.org/1999/xlink" xml:space="preserve" width="2048px" height="2048px" style="shape-rendering:geometricPrecision; text-rendering:geometricPrecision; image-rendering:optimizeQuality; fill-rule:evenodd; clip-rule:evenodd" viewBox="0 0 2048 2048">
 <defs>
  <style type="text/css">
   <![CDATA[
    .fil1 {fill:none}
    .fil0 {fill:#212121;fill-rule:nonzero}
   ]]>
  </style>
 </defs>
 <g id="Layer_x0020_1">
  <metadata id="CorelCorpID_0Corel-Layer"></metadata>
  <g id="_387485328">
   <g>
    <path class="fil0" d="M520 875l0 0c6,-6 16,-8 24,-6l100 23c1,0 1,0 2,0 3,1 7,1 10,0 3,-1 5,-2 7,-4l82 -130c1,-2 2,-3 3,-4 2,-2 3,-5 3,-8 0,-3 -1,-6 -4,-8 -2,-2 -5,-3 -8,-3 -3,0 -5,1 -7,3l-77 105 0 0c-6,8 -16,12 -26,9 -51,-16 -85,-35 -110,-49 -14,-8 -24,-14 -30,-15 -11,-2 -22,1 -31,7 -9,6 -15,16 -17,27l0 0 -56 344c0,0 0,1 0,1 -4,22 49,95 91,153 18,25 34,47 43,62l0 0c2,4 4,8 4,13l-2 223c0,2 0,3 0,5 -1,5 1,10 4,14 3,4 7,7 13,7 5,1 10,-1 14,-4 4,-3 6,-7 7,-12l4 -238c0,-2 0,-3 0,-5 0,-3 0,-5 0,-8 -1,-2 -1,-4 -3,-6 -2,-2 -3,-4 -4,-6l-82 -181c-2,-4 -3,-9 -2,-14l41 -280 0 0c0,-1 0,-1 0,-2 1,-5 3,-9 6,-12l0 0zm37 46l-37 247 78 173c5,7 8,14 10,22 2,9 3,18 1,26l-4 239c0,1 0,2 0,3l0 0c-2,18 -12,34 -25,45 -14,11 -31,16 -49,14 -18,-2 -34,-12 -45,-25 -10,-13 -16,-31 -14,-49l2 -216c-9,-15 -23,-33 -38,-54 -47,-65 -106,-147 -99,-189 0,0 0,0 0,-1l56 -344 0 0 0 0c4,-24 18,-45 36,-58 19,-13 42,-19 67,-15 15,2 28,10 46,21 20,11 47,27 84,40l68 -92c1,-1 2,-2 3,-3 11,-11 26,-17 41,-17 15,0 31,5 42,17 12,11 18,27 18,42 0,14 -5,29 -15,40l-83 132c-1,1 -2,3 -3,4l0 0c-9,9 -19,15 -30,18 -12,3 -24,3 -35,0l0 0 -76 -18z"></path>
    <path class="fil0" d="M508 532c26,-2 51,6 70,22 19,16 32,39 34,65 2,26 -6,51 -22,70 -16,19 -39,32 -65,34 -26,2 -51,-6 -70,-22 -19,-16 -32,-39 -34,-65 -2,-26 6,-51 22,-70 16,-19 39,-32 65,-34zm40 58c-9,-8 -22,-12 -35,-11 -13,1 -25,8 -33,17 -8,9 -12,22 -11,35 1,13 8,25 17,33 9,8 22,12 35,11 13,-1 25,-8 33,-17 8,-9 12,-22 11,-35 -1,-13 -8,-25 -17,-33z"></path>
    <path class="fil0" d="M405 1308c0,-13 11,-24 24,-24 13,0 24,11 24,24l-1 104c0,1 0,1 0,2l0 0c-1,7 -2,13 -5,19 -2,5 -4,9 -7,13l-65 165c-1,2 -2,5 -4,6 -11,14 -26,23 -42,26 -17,3 -35,-1 -50,-11l0 0c-15,-11 -25,-27 -27,-43 -3,-16 0,-33 9,-47l59 -155 17 -208c1,-13 13,-23 26,-22 13,1 23,13 22,26l-17 211c0,2 -1,5 -2,7l-61 160c-1,3 -2,5 -4,7 -3,4 -3,9 -3,14 1,5 3,9 7,12 1,0 1,1 2,1 4,3 9,3 14,3 4,-1 8,-3 11,-6l65 -165 0 0c1,-2 2,-4 4,-6 1,-1 2,-3 3,-5 1,-2 1,-3 1,-5l1 -103z"></path>
   </g>
   <path class="fil0" d="M350 358l1327 0c11,0 21,8 23,18l34 104c1,3 2,6 2,9 0,2 0,3 -1,5l-35 254c-2,12 -13,21 -25,21l-39 0c-13,0 -24,-11 -24,-24 0,-13 11,-24 24,-24l19 0 28 -208 -1341 0 28 208 319 0c13,0 24,11 24,24 0,13 -11,24 -24,24l-340 0c-13,0 -23,-10 -24,-23l-34 -252c0,-1 0,-2 0,-4 0,-4 0,-7 1,-10l0 0 35 -105c3,-10 13,-16 23,-16l0 0zm1310 48l-1292 0 -20 59 1331 0 -19 -59zm-109 315c13,0 24,11 24,24 0,13 -11,24 -24,24l-762 0c-13,0 -24,-11 -24,-24 0,-13 11,-24 24,-24l762 0z"></path>
   <path class="fil0" d="M251 513c-13,0 -24,-11 -24,-24 0,-13 11,-24 24,-24l1545 0c13,0 24,11 24,24 0,13 -11,24 -24,24l-1545 0z"></path>
   <g>
    <path class="fil0" d="M1376 875l0 0c6,-6 16,-8 24,-6l100 23c1,0 1,0 2,0 3,1 7,1 10,0 3,-1 5,-2 7,-4l82 -130c1,-2 2,-3 3,-4 2,-2 3,-5 3,-8 0,-3 -1,-6 -4,-8 -2,-2 -5,-3 -8,-3 -3,0 -5,1 -7,3l-77 105 0 0c-6,8 -16,12 -26,9 -51,-16 -85,-35 -110,-49 -14,-8 -24,-14 -30,-15 -11,-2 -22,1 -31,7 -9,6 -15,16 -17,27l0 0 -56 344c0,0 0,1 0,1 -4,22 49,95 91,153 18,25 34,47 43,62l0 0c2,4 4,8 4,13l-2 223c0,2 0,3 0,5 -1,5 1,10 4,14 3,4 7,7 13,7 5,1 10,-1 14,-4 4,-3 6,-7 7,-12l4 -238c0,-2 0,-3 0,-5 0,-3 0,-5 0,-8 -1,-2 -1,-4 -3,-6 -2,-2 -3,-4 -4,-6l-82 -181c-2,-4 -3,-9 -2,-14l41 -280 0 0c0,-1 0,-1 0,-2 1,-5 3,-9 6,-12l0 0zm37 46l-37 247 78 173c5,7 8,14 10,22 2,9 3,18 1,26l-4 239c0,1 0,2 0,3l0 0c-2,18 -12,34 -25,45 -14,11 -31,16 -49,14 -18,-2 -34,-12 -45,-25 -10,-13 -16,-31 -14,-49l2 -216c-9,-15 -23,-33 -38,-54 -47,-65 -106,-147 -99,-189 0,0 0,0 0,-1l56 -344 0 0 0 0c4,-24 18,-45 36,-58 19,-13 42,-19 67,-15 15,2 28,10 46,21 20,11 47,27 84,40l68 -92c1,-1 2,-2 3,-3 11,-11 26,-17 41,-17 15,0 31,5 42,17 12,11 18,27 18,42 0,14 -5,29 -15,40l-83 132c-1,1 -2,3 -3,4l0 0c-9,9 -19,15 -30,18 -12,3 -24,3 -35,0l0 0 -76 -18z"></path>
    <path class="fil0" d="M1364 532c26,-2 51,6 70,22 19,16 32,39 34,65 2,26 -6,51 -22,70 -16,19 -39,32 -65,34 -26,2 -51,-6 -70,-22 -19,-16 -32,-39 -34,-65 -2,-26 6,-51 22,-70 16,-19 39,-32 65,-34zm40 58c-9,-8 -22,-12 -35,-11 -13,1 -25,8 -33,17 -8,9 -12,22 -11,35 1,13 8,25 17,33 9,8 22,12 35,11 13,-1 25,-8 33,-17 8,-9 12,-22 11,-35 -1,-13 -8,-25 -17,-33z"></path>
    <path class="fil0" d="M1260 1308c0,-13 11,-24 24,-24 13,0 24,11 24,24l-1 104c0,1 0,1 0,2l0 0c-1,7 -2,13 -5,19 -2,5 -4,9 -7,13l-65 165c-1,2 -2,5 -4,6 -11,14 -26,23 -42,26 -17,3 -35,-1 -50,-11l0 0c-15,-11 -25,-27 -27,-43 -3,-16 0,-33 9,-47l59 -155 17 -208c1,-13 13,-23 26,-22 13,1 23,13 22,26l-17 211c0,2 -1,5 -2,7l-61 160c-1,3 -2,5 -4,7 -3,4 -3,9 -3,14 1,5 3,9 7,12 1,0 1,1 2,1 4,3 9,3 14,3 4,-1 8,-3 11,-6l65 -165 0 0c1,-2 2,-4 4,-6 1,-1 2,-3 3,-5 1,-2 1,-3 1,-5l1 -103z"></path>
   </g>
  </g>
 </g>
 <rect class="fil1" width="2048" height="2048"></rect>
</svg>